<svg xmlns="http://www.w3.org/2000/svg" width="121" height="158" viewBox="0 0 121 158" fill="none"><path fill-rule="evenodd" clip-rule="evenodd" d="M28.826 115.039L0 157.398H105.05L76.0033 114.715V115.039H28.826Z" fill="#FEBE98"></path><path fill-rule="evenodd" clip-rule="evenodd" d="M80.8935 80.2154C103.044 80.2154 121.001 62.2585 121.001 40.1077C121.001 17.9568 103.044 0 80.8935 0C58.7426 0 40.7858 17.9568 40.7858 40.1077C40.7858 41.7638 40.8862 43.3964 41.0812 44.9998H76.0019V79.9201C77.6052 80.115 79.2376 80.2154 80.8935 80.2154Z" fill="#BD274A"></path><path fill-rule="evenodd" clip-rule="evenodd" d="M40.9907 44.9994H5.8674V115.041H28.7324L52.4326 80.2148L75.9091 114.712V79.9196C57.6699 77.7008 43.2086 63.2389 40.9907 44.9994Z" fill="black"></path></svg>