<svg xmlns="http://www.w3.org/2000/svg" width="173" height="44" viewBox="0 0 173 44" fill="none"><g clip-path="url(#clip0_193_582)"><path fill-rule="evenodd" clip-rule="evenodd" d="M162.279 29.3388C161.729 29.1963 161.528 28.7686 161.354 28.3135C161.338 28.319 161.316 28.3245 161.299 28.33C161.299 28.4999 161.305 28.5931 161.343 28.7796C160.641 28.4999 160.712 27.6282 160.832 27.0196C161.142 25.2541 163.388 22.7045 165.314 23.357C166.233 23.9163 165.548 23.9272 164.944 23.6421C164.585 23.5215 164.182 23.7682 163.813 23.8011C163.818 23.8285 163.823 23.8559 163.829 23.8779C164.509 23.7682 165.156 23.9985 165.771 24.2726C166.021 24.3933 165.967 24.7003 165.994 24.947C165.825 24.9525 165.678 24.958 165.537 24.9635C165.537 24.9854 165.537 25.0019 165.537 25.0183C165.776 25.1609 166.424 25.287 166.13 25.6817C166.114 25.7037 166.146 25.764 166.141 25.8024C166.206 26.4603 165.667 26.6741 165.586 27.2444C165.526 27.7214 165.488 28.1984 165.45 28.6754C165.423 29.0702 165.341 29.0976 164.949 29.0756C164.411 29.0482 164.454 28.8015 164.297 28.3958C164.242 28.6864 164.144 28.8618 164.025 29.1031C163.998 29.6404 164.101 30.1503 164.607 30.4628C164.607 30.4847 164.601 30.5067 164.596 30.5341C164.025 30.7315 163.551 30.3696 163.035 30.1722C162.469 29.8707 162.382 29.2182 162.322 28.6425C162.306 28.5274 162.3 28.3738 162.137 28.3958C161.74 28.5438 162.235 29.0756 162.284 29.3388M163.356 27.2773C162.785 27.5514 162.757 29.0098 163.198 29.3772C163.247 28.7138 163.301 28.0174 163.356 27.2773ZM162.257 25.3418C161.892 25.6872 160.897 27.1292 161.751 27.3814C161.751 26.6412 161.941 25.9778 162.257 25.3418ZM163.856 26.2136C164.128 25.8901 164.514 25.6982 164.612 25.287C164.112 25.1444 163.785 25.7092 163.856 26.2136ZM162.295 27.2608C162.464 26.7619 162.632 26.2629 162.795 25.764C162.774 25.7585 162.757 25.753 162.736 25.7421C162.382 26.1862 162.208 26.6851 162.29 27.2553L162.295 27.2608ZM167.615 19.1352C167.62 19.031 167.631 18.9269 167.642 18.7624C167.419 18.9652 167.24 19.1352 167.016 19.3381C167.599 19.5683 166.973 20.3743 166.603 20.0125C166.489 19.9083 166.413 19.9741 166.347 20.0508C166.092 20.2263 165.314 21.5531 165.069 21.2022C165.042 21.1693 164.993 21.1364 164.955 21.131C164.46 21.0761 164.939 20.5991 164.982 20.336C164.966 20.3195 164.944 20.3031 164.928 20.2921C164.656 20.5991 164.28 20.7033 163.943 20.9007C163.595 21.2022 163.334 21.6847 162.877 21.8218C162.447 21.8492 161.969 22.0576 161.561 21.8547C161.675 21.4928 161.952 21.3612 162.235 21.0597C162.034 21.0432 161.898 21.0323 161.686 21.0158C161.892 20.7252 163.6 19.1242 163.28 18.9817C163.247 18.9433 163.307 18.7788 163.367 18.7021C163.932 17.9509 164.563 17.2491 165.047 16.4376C165.031 16.4212 165.015 16.4047 164.998 16.3883C164.03 17.3697 163.307 18.5924 162.181 19.4093C162.159 19.3874 162.137 19.3655 162.115 19.3436C165.412 15.1875 169.437 10.7409 169.263 5.06617C166.891 5.70766 165.521 7.80212 164.449 9.87464C164.427 9.86368 164.4 9.85271 164.373 9.84723C164.433 9.62791 164.498 9.41408 164.558 9.20025C164.541 9.19477 164.52 9.1838 164.503 9.17832C164.378 9.47988 164.112 9.80885 164.155 10.083C164.177 10.5216 164.09 10.9493 164.03 11.3386C163.764 10.9986 163.084 11.6785 163.127 11.026C163.296 10.2146 163.513 9.39763 163.677 8.6081C163.062 8.93707 163.073 9.6005 162.915 10.1872C162.763 10.7135 161.784 10.7409 161.849 10.083C161.849 9.88561 161.8 9.74305 161.631 9.61695C161.479 9.47988 161.49 9.16187 161.359 9.01383C160.685 8.2243 161.675 6.89745 162.251 6.24498C162.251 6.33819 162.251 6.39302 162.251 6.48623C162.415 6.39302 162.567 6.31078 162.714 6.22305C162.54 6.70555 162.23 7.12224 162.181 7.6486C162.681 6.98517 163.187 6.32723 163.687 5.66928C163.677 5.65832 163.666 5.64735 163.655 5.63639C163.415 5.86667 163.182 6.09146 162.915 6.34368C162.915 6.00922 162.85 5.90505 162.54 5.77894C162.692 5.41159 163.002 5.16486 163.296 4.83589C163.28 5.03875 163.269 5.18131 163.258 5.31838C163.279 5.32935 163.296 5.34579 163.318 5.35676C163.464 5.18131 163.731 5.01682 163.736 4.83589C164.998 2.43439 169.301 1.44199 170.889 4.08474C171.047 4.31502 171.276 4.18891 171.363 4.5453C171.7 5.40611 171.569 6.32723 171.504 7.22093C171.542 7.22093 171.58 7.2319 171.618 7.2319C171.7 6.5904 171.809 5.95439 171.841 5.30741C171.858 5.13196 171.95 5.121 172.054 5.22517C172.445 5.76797 172.135 6.55203 172.636 7.08386C172.793 7.32511 172.478 7.7747 172.875 7.8734C172.962 7.87888 172.995 7.97757 173 8.13109C173.005 8.67389 172.587 9.91302 172.554 10.1817C172.141 11.2179 171.939 12.4242 170.998 13.104C170.949 12.6545 171.227 12.3364 171.259 11.9636C171.238 11.9526 171.221 11.9472 171.2 11.9362C170.775 12.7586 170.346 13.5756 169.921 14.398C169.943 14.409 169.959 14.4254 169.981 14.4419C170.335 14.1184 170.53 13.6085 171.096 13.4933C170.514 15.0614 169.432 16.3773 168.659 17.8522C168.387 18.3457 167.985 18.713 167.686 19.1681C167.658 19.1517 167.637 19.1352 167.609 19.1188L167.615 19.1352ZM165.956 6.52461C167.022 5.91053 167.892 5.01682 169.127 4.7043C168.409 3.92573 166.456 5.94343 165.956 6.52461ZM166.184 17.5452C166.184 17.5452 166.152 17.5232 166.135 17.5123C165.417 18.3731 164.705 19.2394 163.992 20.1002C164.014 20.1276 164.03 20.155 164.052 20.1879C165.129 19.7164 165.564 18.4663 166.19 17.5452H166.184ZM170.166 8.43265C170.481 7.54991 170.743 6.00922 170.394 5.13196C170.356 5.13745 170.324 5.14841 170.286 5.15389C170.416 6.25595 170.307 7.34156 170.161 8.43265H170.166ZM164.242 8.7671C164.242 8.7671 164.275 8.79452 164.291 8.80548C164.764 8.20785 165.439 7.6815 165.689 6.95227C165.667 6.94679 165.646 6.93583 165.624 6.93034C165.053 7.4567 164.514 8.01595 164.242 8.7671ZM136.147 12.956C136.169 13.1205 136.147 13.2466 135.967 13.2356C135.75 13.0876 135.875 12.8135 136.147 12.956ZM134.88 13.5811C134.907 13.0163 135.462 12.956 135.434 13.4275C135.358 13.7894 134.994 13.9594 134.88 13.5811ZM137.202 21.8931C136.593 22.2769 136.163 22.88 135.44 23.1816C135.543 22.5565 135.244 22.6442 134.939 22.1892C134.847 22.2275 134.689 22.3043 134.477 22.3975C134.711 22.7155 134.901 22.9677 134.939 23.3515C134.956 23.4118 134.999 23.5105 134.988 23.5215C134.923 23.5654 134.82 23.6312 134.765 23.6037C133.879 23.039 133.411 21.0268 133.036 20.0344C133.008 20.0344 132.976 20.0399 132.948 20.0454C132.894 20.9117 133.052 21.6135 133.438 22.414C132.524 21.9973 132.513 21.1858 132.388 20.3963C131.24 22.2824 129.152 23.198 127.008 23.1816C127.03 23.3022 127.041 23.3844 127.063 23.505C125.36 23.2638 124.338 22.1124 123.391 20.8513C123.369 20.8623 123.353 20.8733 123.337 20.8842C123.386 21.0926 123.44 21.3009 123.489 21.5093C123.467 21.5257 123.446 21.5422 123.429 21.5531C122.39 20.6156 121.928 19.2394 121.825 17.8577C121.433 13.1589 122.483 8.04885 126.329 4.99489C126.78 4.85234 127.183 4.57819 127.58 4.30405C127.726 4.22181 127.846 4.23826 127.928 4.43016C128.325 4.81396 129.027 4.06829 129.402 3.76125C128.836 3.84897 128.488 4.21084 128.058 4.40822C128.983 2.5276 131.774 2.96623 133.15 4.0957C133.063 4.13956 133.014 4.17794 132.965 4.18891C132.432 4.2547 132.834 4.49047 132.508 4.77558C132.66 4.95103 132.845 5.16486 133.074 5.42804C133.106 5.20324 133.128 5.0552 133.155 4.88523C133.248 4.90717 133.318 4.92361 133.416 4.95103C133.395 4.81944 133.373 4.7043 133.346 4.5453C134.172 5.37321 133.83 6.57944 133.569 7.58829C133.612 8.17495 133.819 8.69583 133.095 9.03576C133.074 8.93707 133.057 8.83838 133.036 8.74517C133.014 8.73421 132.992 8.72324 132.97 8.71776C132.861 8.99738 132.606 9.32635 132.676 9.55115C132.747 10.4997 131.045 12.0184 130.37 12.649C130.104 12.9286 127.161 15.2807 127.21 14.3487C126.894 14.409 126.617 14.4638 126.285 14.5351C126.426 14.6173 126.519 14.6722 126.611 14.727C126.611 14.7434 126.606 14.7654 126.601 14.7818C125.317 14.5954 125.937 15.0231 125.763 16.0977C125.736 16.0977 125.703 16.0977 125.676 16.1032C125.632 15.8236 125.589 15.5439 125.54 15.2533C125.322 15.4726 125.154 17.0572 125.317 17.5507C125.366 17.2107 125.409 16.9421 125.447 16.6734C125.475 16.6734 125.502 16.6734 125.529 16.6734C125.779 17.907 125.6 19.2778 126.231 20.3963C126.437 20.7307 126.769 20.1824 126.981 20.0837C127.008 20.1057 127.036 20.1331 127.057 20.155C126.949 20.3359 126.834 20.5224 126.726 20.7033C127.498 21.1529 128.934 19.6451 129.489 19.1352C129.957 18.6527 130.37 18.1318 130.62 17.4958C130.718 17.2436 130.816 17.2217 131.104 17.3752C131.393 16.8434 131.67 16.306 131.844 15.7249C131.91 15.533 131.997 15.3904 132.225 15.5001C132.35 15.3301 132.339 15.0285 132.655 15.0834C132.916 14.7599 132.731 14.1732 133.269 14.0526C133.433 14.5625 133.161 15.0121 133.133 15.5439C133.237 15.3575 133.313 15.2204 133.405 15.056C133.465 15.1272 133.52 15.1875 133.628 15.3191C133.775 14.8476 133.552 14.4419 133.835 14.0471C134.08 14.4145 133.623 14.886 134.025 15.1766C134.118 15.3027 134.042 15.5165 134.025 15.6755C134.733 15.8071 134.238 14.9079 134.749 15.0998C134.918 14.6886 134.841 14.0087 135.445 14.0636C134.466 16.4157 134.031 19.1791 134.711 21.6409C136.054 21.0378 133.721 17.3862 135.462 14.8476C135.559 15.0121 135.625 15.1163 135.706 15.2533C135.766 15.1053 135.782 14.9956 135.815 14.8476C135.946 14.4693 136.549 14.5296 136.31 14.9682C135.967 16.5637 135.875 18.236 136.163 19.8315C136.99 18.9433 137.344 17.6658 138.383 16.9969C137.969 17.7645 137.382 18.4279 137.132 19.2832C137.86 18.3402 138.725 17.4958 139.133 16.3389C139.117 16.317 139.101 16.2896 139.084 16.2677C138.861 16.3444 138.644 16.4157 138.388 16.5034C139.781 14.2061 140.548 11.6346 141.179 9.03576C141.227 8.87128 141.2 8.63003 141.478 8.61907C141.701 7.97209 141.777 7.24287 141.875 6.54106C140.341 6.91938 138.921 7.57732 137.67 8.54779C137.507 8.73969 137.311 8.55327 137.126 8.50941C137.306 7.93371 138.29 7.56636 138.758 7.16062C138.747 7.13321 138.742 7.10579 138.736 7.07838C138.192 7.03452 137.088 8.30654 136.751 7.83502C136.549 7.59925 136.827 7.39639 136.947 7.20997C135.848 6.48623 137.529 6.38754 137.257 5.59801C136.93 5.64187 136.876 5.83377 136.821 5.35128C136.767 4.88523 137.017 4.58916 137.316 4.2876C138.257 3.34455 139.411 2.86754 140.684 2.76336C140.798 2.81819 140.912 2.91688 141.026 2.91688C141.902 2.86206 142.843 3.02106 143.686 2.81271C143.414 2.76885 143.137 2.73047 142.865 2.6866C142.865 2.66467 142.865 2.64274 142.865 2.62081C144.774 2.25894 146.727 2.71402 148.609 2.77981C149.664 2.97171 148.565 3.56935 149.485 3.83252C149.643 3.679 149.811 3.54741 150.045 3.70642C150.611 4.18891 149.991 5.11003 149.92 5.72411C149.381 7.85695 148.914 10.0446 148.778 12.2432C149.632 11.037 150.306 9.71016 151.367 8.67938C151.394 8.69583 151.416 8.71227 151.443 8.72872C151.351 8.88773 151.264 9.05221 151.171 9.21122C151.182 9.22218 151.198 9.23315 151.209 9.24411C151.568 8.85483 151.933 8.46555 152.319 8.04885C152.221 8.00498 152.161 7.98305 152.107 7.96112C151.982 7.57732 154.375 5.79539 155.283 5.59801C155.218 6.2724 156.398 5.86118 155.24 6.68361C155.55 6.79327 155.795 6.881 156.061 6.97421C156.143 6.71103 156.268 6.59589 156.529 6.54654C156.725 6.98517 156.137 8.48748 157.008 7.36897C157.051 7.38542 157.089 7.40735 157.127 7.4238C156.621 8.93707 156.355 10.4942 156.197 12.0733C156.165 12.0733 156.132 12.0733 156.099 12.0733C156.099 11.2179 156.154 10.3791 156.262 9.52922C155.588 10.3462 155.12 15.4726 155.61 16.4979C155.664 15.6371 155.724 14.7544 155.778 13.8662C155.8 13.8662 155.822 13.8662 155.844 13.8662C155.844 15.4178 156.029 16.9092 156.246 18.4444C156.165 18.3402 156.083 18.236 156.001 18.1318C155.98 18.1318 155.963 18.1318 155.942 18.1373C156.001 19.4477 156.502 20.6759 157.127 21.8054C157.378 22.1453 157.263 22.5455 157.356 22.9129C157.367 22.9568 157.252 23.0829 157.214 23.0774C156.736 23.0664 156.573 22.6717 156.273 22.3646C156.485 22.6991 156.85 23.6586 157.242 23.6915C157.427 23.5763 157.579 23.6421 157.715 23.7627C158.101 24.0698 157.742 24.4646 157.59 24.7826C157.416 25.2541 156.991 25.2596 156.611 25.3583C155.24 26.3013 153.526 24.8977 152.748 23.7408C152.466 23.357 152.667 22.8581 152.324 22.5017C150.72 19.3984 152.205 15.8948 152.857 12.7257C152.836 12.7038 152.808 12.6764 152.787 12.6545C150.388 14.6118 148.604 18.6911 148.179 21.756C147.701 22.4523 146.76 22.4359 146.634 21.4819C146.553 20.6594 146.569 19.7767 146.303 19.0036C146.145 20.0837 146.411 21.1474 146.46 22.2385C146.368 22.2385 146.297 22.2385 146.205 22.233C146.178 22.3262 146.15 22.4194 146.123 22.5181C145.606 22.573 145.884 21.3941 145.802 21.0597C145.78 17.5178 145.628 13.8936 145.965 10.4174C145.911 10.4558 145.813 10.4887 145.802 10.5436C145.323 12.1994 145.28 13.921 145.383 15.6317C145.389 15.7852 145.372 15.9661 145.443 16.0922C145.71 16.5747 145.595 17.0791 145.585 17.5781C145.557 18.0112 145.617 18.4498 145.383 18.8446C145.236 19.2065 145.508 19.7493 145.595 20.1331C145.634 20.5059 145.634 20.8788 145.634 21.2516C145.617 21.4764 145.552 21.7012 145.568 21.9315C145.574 22.1124 145.704 22.403 145.541 22.5291C144.975 22.6168 145.035 19.3271 144.943 18.7843C144.703 14.409 145.427 10.094 146.569 5.88312C146.286 5.83925 145.073 5.79539 144.986 6.10243C144.464 8.71227 144.062 11.355 143.072 13.8388C141.973 17.2436 140.21 20.4127 138.067 23.2583C137.708 23.7573 137.044 23.2583 136.68 23.7956C136.479 24.0314 136 23.9272 135.87 23.6421C135.848 23.5873 135.924 23.4557 135.995 23.4009C136.511 22.9897 136.941 22.4852 137.24 21.8931H137.202ZM127.416 9.14542C127.444 9.16187 127.471 9.17832 127.498 9.20025C127.041 10.2255 126.35 11.0973 126.149 12.2378C127.716 12.2487 128.249 10.7903 129.299 9.94592C129.467 9.76498 129.576 9.60598 129.658 9.3428C128.95 10.0336 128.227 10.4942 127.694 11.3002C127.601 11.4866 127.444 11.3386 127.346 11.2728C127.308 11.2508 127.313 11.1083 127.346 11.0425C127.993 10.3681 128.76 9.78692 129.424 9.11801C130.463 8.11464 131.235 6.94679 131.447 5.4719C131.529 4.9291 131.409 4.83041 130.898 5.03327C130.24 5.30741 129.598 5.69122 129.146 6.25595C129.625 6.06953 129.924 5.37321 130.501 5.63639C129.706 6.50268 128.852 7.33607 128.265 8.3833C128.194 8.49296 128.031 8.48199 127.922 8.53134C127.906 8.50393 127.884 8.47651 127.868 8.4491C128.053 8.13657 128.238 7.81857 128.423 7.50604C128.396 7.48959 128.374 7.47315 128.347 7.4567C127.89 7.99402 127.416 8.52037 127.074 9.24411C127.242 9.18928 127.329 9.16187 127.416 9.13445V9.14542ZM139.65 17.1778C140.232 16.5089 140.678 15.7632 140.765 14.8805C141.233 13.8059 141.717 12.7422 142.038 11.6127C142.011 11.6017 141.978 11.5908 141.946 11.5798C141.179 13.4495 140.412 15.3136 139.65 17.1833V17.1778ZM129.886 19.5738C129.886 19.5738 129.864 19.5355 129.853 19.519C129.244 20.0015 128.646 20.5004 128.02 20.961C127.552 21.3064 126.976 21.4983 126.601 21.9644C126.628 21.9918 126.649 22.0192 126.677 22.0466C128.031 21.6025 128.961 20.5882 129.891 19.5738H129.886ZM155.61 23.845C155.719 24.1685 156.154 25.0019 156.398 24.3713C156.415 24.0533 156.665 24.1794 156.877 24.1301C156.855 24.1411 156.828 24.1465 156.806 24.1575C156.556 23.7518 156.306 23.346 156.05 22.9403C155.985 23.2912 156.279 23.7463 155.61 23.845ZM154.315 7.65408C154.282 7.63215 154.244 7.60474 154.212 7.5828C153.298 8.20785 152.705 9.11801 152.112 10.0282C152.841 9.43601 153.45 8.67938 154.125 8.01595C154.217 7.92274 154.255 7.7747 154.315 7.6486V7.65408ZM128.249 11.8814C127.547 12.1226 126.829 12.1829 126.29 12.7312C126.807 12.9505 127.852 12.5009 128.249 11.8814ZM135.456 20.8623C135.679 20.7088 135.755 20.5827 135.723 20.3634C135.587 19.4916 135.505 18.6143 135.489 17.7316C135.467 17.7316 135.445 17.7316 135.423 17.7316C135.315 18.7569 135.32 19.7767 135.456 20.8568V20.8623ZM140.063 4.56174C140.907 4.39178 141.728 4.23277 142.544 4.06829C141.935 4.06829 140.221 3.77769 140.063 4.56174ZM128.782 13.0986C128.156 13.4001 127.563 13.6798 126.943 13.9758C127.743 14.0581 128.347 13.8059 128.782 13.0986ZM143.088 6.31078C142.745 6.85907 142.865 7.48411 142.783 8.07626C143.012 7.51153 143.18 6.93583 143.088 6.31078ZM155.305 21.745C155.343 21.7396 155.387 21.7341 155.425 21.7231C155.354 21.2406 155.278 20.7526 155.207 20.2702C155.175 20.2702 155.147 20.2811 155.115 20.2866C155.071 20.791 155.126 21.279 155.305 21.745ZM146.689 5.29097C146.411 5.03875 145.459 5.0552 145.046 5.27452C145.585 5.28 146.112 5.28548 146.689 5.29097ZM144.644 6.03664C144.382 6.14081 144.295 6.42044 144.382 6.79875C144.573 6.58492 144.714 6.36561 144.644 6.03664ZM60.1725 26.2465C60.1507 26.3616 60.1235 26.4713 60.1018 26.5864C60.0256 26.559 59.9495 26.5261 59.8733 26.4932C59.9223 26.3945 59.9712 26.2903 60.0202 26.1917C60.0691 26.2081 60.1235 26.2245 60.1725 26.2465ZM61.3202 25.9669C61.1407 26.1094 61.0428 26.2465 60.934 26.2629C60.7436 26.2958 60.5261 26.071 60.5913 25.923C60.8198 25.5831 61.0102 25.6324 61.3202 25.9669ZM55.8644 21.0049C56.1255 21.8054 56.5225 22.5839 56.8326 23.3735C56.974 23.7573 57.0121 24.1465 57.3602 24.4152C57.6485 24.6126 57.5017 24.8922 57.6866 25.1225C57.9586 25.4624 58.4482 25.7475 58.6005 26.1478C58.3502 26.6193 57.6975 26.3616 57.5126 25.9943C57.159 26.5919 56.5497 25.9614 56.2071 25.6653C55.0756 24.9416 55.9079 23.4173 55.0756 22.573C55.1028 22.7813 55.13 22.9842 55.1572 23.1925C55.13 23.2035 55.1028 23.2145 55.0756 23.2254C54.722 22.7155 54.6513 22.1014 54.499 21.5148C54.2651 20.484 53.9605 19.4587 53.9224 18.395C53.9061 18.1757 53.9224 17.9619 54.1291 17.8083C54.3413 17.0956 54.1183 16.2457 54.1183 15.4891C54.0584 16.0758 53.9986 16.6624 53.9442 17.2491C53.9061 17.2491 53.8735 17.2491 53.8354 17.2436C53.6124 16.6679 53.7375 16.0648 53.694 15.4398C52.5517 17.2326 51.9805 19.3381 51.6269 21.4216C51.4583 22.5346 51.3332 23.6531 51.1809 24.7661C51.17 24.8538 51.0667 24.9306 51.0068 25.0183C50.452 24.5852 50.8763 23.7956 50.811 23.187C50.7892 23.187 50.7675 23.1816 50.7457 23.1761C50.5227 23.8943 50.7512 24.6345 50.6315 25.3473C50.3106 25.3363 50.1474 24.8977 49.8428 24.9306C49.6361 25.1225 49.4783 24.9745 49.2662 24.8429C49.2172 25.0074 49.1791 25.1609 49.1302 25.3308C48.5427 25.3857 49.1791 24.4755 48.6352 24.4042C48.5373 24.3768 48.472 24.2452 48.3632 24.1356C48.3414 24.2507 48.3197 24.3823 48.2979 24.5084C46.9 24.8155 47.5908 17.2162 47.5473 16.1087C47.6941 14.9463 47.6452 13.6962 48.0259 12.5941C48.0695 12.5338 47.9933 12.3803 47.9715 12.2761C47.9444 12.2707 47.9172 12.2652 47.89 12.2542C47.5962 12.6545 47.5201 13.2192 47.0631 13.4769C46.8075 13.8333 46.579 14.3706 46.6062 14.8257C46.22 16.0264 45.4421 17.1065 45.143 18.3621C44.7513 19.6122 44.4032 20.8842 44.1367 22.1672C43.8592 22.88 44.4086 24.322 43.9027 24.7826C43.7396 24.8922 43.7722 25.0183 43.8103 25.1828C43.8266 25.6105 44.4413 27.4966 43.5546 27.0689C43.5873 27.3211 43.6253 27.5898 43.6634 27.8694C42.7387 27.5953 43.2228 26.3397 42.7604 25.605C42.7822 26.1971 42.8094 26.7893 42.8312 27.4198C42.4558 27.3869 42.4504 27.047 42.3144 26.8496C42.1349 27.4801 42.0424 27.2937 42.4885 27.7817C41.5474 28.5438 41.5855 26.4713 41.2591 25.9833C41.1558 26.3945 41.6943 28.4067 41.0851 28.2368C40.552 27.9517 40.9763 27.2334 40.6064 26.8386C40.5792 26.8496 40.552 26.8551 40.5248 26.866C40.552 27.2663 40.6172 27.6665 40.3997 28.0284C39.9971 27.8091 39.8231 27.6501 39.785 27.1292C39.6871 27.354 39.6109 27.513 39.5293 27.6994C39.1377 25.0731 39.8068 22.3701 39.8557 19.7219C39.8285 19.7219 39.8013 19.7219 39.7796 19.7164C39.6381 21.0926 39.5021 22.4688 39.3607 23.8724C39.0942 23.7573 39.018 23.5983 39.0398 23.357C39.1214 22.3262 39.1921 21.29 39.2574 20.2537C39.2574 19.5355 39.0398 18.8556 39.2356 18.1483C39.4532 16.317 39.6544 14.4857 39.8394 12.649C39.8992 11.4756 40.0951 10.3078 40.1331 9.13994C40.1603 8.51489 40.1549 8.51489 40.6445 8.02143C40.862 8.76162 40.5411 9.50729 40.5629 10.2639C40.5901 10.2639 40.6118 10.2694 40.6336 10.2749C40.6988 9.74305 41.0687 6.29433 41.9771 7.78019C42.0587 7.58829 42.1294 7.4238 42.2056 7.25931C42.6843 7.51153 42.6897 7.53894 42.6408 8.45458C42.7169 8.13109 42.7931 7.80212 42.8692 7.46766C43.5111 7.61022 43.1303 8.65744 43.2881 9.16187C43.4132 8.84935 43.4567 8.63551 43.6906 8.43265C43.9952 8.67938 43.9517 8.98642 43.8266 9.32087C43.6634 9.83626 43.5492 10.3407 43.6906 10.8945C43.3751 12.6325 43.2337 14.4638 43.0596 16.2348C43.0868 16.2402 43.1086 16.2457 43.1358 16.2567C43.5601 15.3356 43.7341 14.228 44.3923 13.4495C44.4141 13.4659 44.4413 13.4879 44.463 13.5043C44.3053 13.9265 44.1421 14.3432 43.9843 14.7654C44.0115 14.7763 44.0387 14.7873 44.0659 14.8037C44.6915 13.2795 45.366 11.7772 46.4104 10.4887C46.3941 10.4723 46.3778 10.4558 46.3614 10.4394C45.8229 10.9602 45.5074 11.673 44.9743 12.2049C44.9526 12.1884 44.9254 12.1665 44.8982 12.15C45.7957 10.4613 47.0414 8.97545 48.1837 7.44573C48.4829 7.06741 48.967 6.83165 49.375 6.55202C49.6959 6.41495 49.8156 6.93583 50.1637 6.63975C50.7131 7.02903 48.423 8.70131 48.1837 9.26604C48.2054 9.28249 48.2218 9.29346 48.2381 9.30991C49.0377 8.36685 49.9896 7.57732 50.9144 6.76586C51.355 6.53009 51.6487 7.10579 51.4583 7.49508C51.4801 7.51153 51.5018 7.52798 51.5236 7.54442C51.6161 7.46218 51.7085 7.38542 51.801 7.30318C52.1491 7.46218 52.1546 7.46766 51.9859 7.81308C51.5889 8.75614 51.6106 9.81981 51.3767 10.8122C51.2842 11.2728 51.4801 11.7991 51.1591 12.1884C50.6805 11.9033 50.9252 11.2015 50.8001 10.7355C50.6859 11.5524 50.6587 12.3693 50.8654 13.1808C50.9198 12.967 50.9742 12.7586 51.0286 12.5448C51.0558 12.5448 51.083 12.5448 51.1102 12.5503C51.3441 13.3946 50.7838 14.2555 50.9361 15.1327C51.1102 14.7325 51.257 14.3212 51.393 13.91C51.4909 13.6907 51.6705 13.5098 51.6161 13.2356C51.5997 13.1644 51.6922 13.0602 51.752 12.9889C52.3885 12.331 52.9433 11.6237 53.4329 10.8396C53.0249 11.2399 52.6169 11.6401 52.209 12.0404C52.1818 12.0184 52.1491 11.9965 52.1219 11.9746C52.3885 11.4756 52.8345 11.0973 53.1718 10.6422C53.2914 10.4174 53.3295 10.0994 53.5199 9.9185C54.1781 9.27153 54.858 8.64648 55.5217 8.00498C55.4999 7.97757 55.4781 7.94467 55.4564 7.91726C55.2442 8.05981 55.0267 8.19689 54.8145 8.33944C54.7982 8.32847 54.7819 8.31751 54.771 8.30654C54.9777 7.87888 55.3748 7.56636 55.6631 7.19352C55.8426 6.99065 56.0221 7.09483 56.1962 7.19352C56.2941 7.6486 55.8263 8.12561 55.489 8.42717C55.5108 8.4491 55.5325 8.47103 55.5489 8.49296C56.1255 7.9995 56.7021 7.50604 57.2895 7.00162C57.5397 7.12224 57.5887 7.24835 57.4201 7.50604C57.246 7.76374 57.2079 7.98305 57.4038 8.25171C57.5071 9.23315 56.9088 10.3297 57.0284 11.3112C57.0937 10.4339 57.4201 9.58953 57.6213 8.73421C57.7192 8.38879 57.8389 8.36685 58.1109 8.63003C58.2088 8.5423 58.3122 8.45458 58.4101 8.36685C58.5896 8.6081 58.5189 8.8329 58.4264 9.09059C58.2251 9.97333 58.0402 10.8561 57.828 11.7333C57.5125 12.9615 57.654 14.2116 57.5778 15.4507C57.4364 15.3246 57.3058 15.2095 57.1481 15.0614C57.1535 15.4288 57.1644 15.7523 57.1699 16.0977C57.2841 16.0593 57.3657 16.0319 57.518 15.9771C57.5996 16.3499 57.7301 16.7008 57.741 17.0517C57.7193 18.554 58.4264 19.9028 58.6984 21.3009C58.3938 20.5882 58.0891 19.8699 57.7845 19.1571C57.7682 19.1626 57.7519 19.1681 57.7301 19.1736C58.1762 21.3832 59.7863 22.9677 60.7872 24.8812C60.6294 24.9416 60.5369 24.969 60.3466 25.0019C60.9014 26.1094 60.0365 25.6214 59.498 25.2267C59.4925 25.5282 59.3402 25.8353 59.6775 26.0272C59.2423 26.6906 58.6929 25.5447 58.2795 25.3254C58.0293 25.0951 57.828 24.8593 57.7628 24.492C57.1046 23.3844 56.4464 22.2111 55.9188 21.0213C55.9024 21.0213 55.8861 21.0268 55.8752 21.0323L55.8644 21.0049ZM59.8298 24.0533C58.8833 23.0719 58.2414 21.8766 57.5397 20.7252C58.0402 22.0137 58.5733 23.2857 59.8298 24.0533ZM42.2002 22.8361C41.9608 23.8231 41.7106 24.8155 42.1349 25.8079H42.2274C42.2165 24.8209 42.211 23.8285 42.2002 22.8361ZM48.1728 22.6059C48.2109 22.6004 48.2544 22.5949 48.2925 22.5894C48.2598 21.4161 48.2326 20.2482 48.2 19.0749C48.0151 20.2098 47.9443 21.4654 48.1728 22.6059ZM55.489 22.4633C55.489 22.4633 55.4455 22.4852 55.4238 22.5017C55.8807 23.3735 56.0058 24.4097 56.8598 25.1664C56.3811 24.2178 55.9351 23.3406 55.4945 22.4688L55.489 22.4633ZM41.8629 8.0324C41.8629 8.0324 41.8303 8.02143 41.814 8.01595C41.7759 8.36137 41.5093 8.72872 41.7269 9.05221C41.7596 9.04125 41.7976 9.03028 41.8303 9.01932C41.8412 8.69034 41.852 8.36137 41.8629 8.0324ZM125.42 27.8804C125.828 27.6391 126.198 27.8968 126.584 27.9736C126.584 28.001 127.357 28.3135 127.357 28.3409C126.965 28.33 125.801 28.0229 125.409 28.012C125.409 27.9681 125.42 27.9242 125.426 27.8804H125.42ZM119.545 7.84598C119.203 7.28673 119.241 6.77682 119.627 6.60137C119.806 6.8152 119.763 7.56087 119.545 7.84598ZM130.011 26.3507C129.603 26.2739 129.195 26.1971 128.787 26.1149C129.065 26.0326 129.445 26.2355 129.63 25.9669C129.875 25.5337 127.52 25.4515 127.183 25.3637C124.963 25.2267 120.35 24.9416 118.131 25.1993C119.355 19.5958 119.632 13.8497 119.66 8.12561C119.273 8.39427 119.447 8.73421 119.393 9.01383C119.333 9.30991 119.284 9.61146 119.23 9.90754C119.148 9.09608 119.35 8.25171 119.116 7.47315C119.012 7.20449 118.98 6.97421 119.116 6.74941C119.339 6.39302 119.252 6.05857 119.099 5.72411C118.789 5.70218 118.604 5.82829 118.61 6.24498C118.414 6.1134 118.251 6.0476 118.147 5.92698C117.467 5.49931 117.603 6.74941 117.571 7.12773C117.544 7.13869 117.516 7.14417 117.489 7.15514C117.554 6.72199 117.201 6.6233 116.94 6.36013C116.597 7.10579 116.662 7.93371 116.374 8.67389C116.08 8.86579 116.031 9.19477 115.934 9.49084C114.944 12.8135 113.051 15.8126 110.521 18.1647C110.499 18.1483 110.483 18.1318 110.461 18.1209C110.717 17.1065 110.44 16.0209 111.092 15.1546C111.103 15.1546 111.114 15.1601 111.125 15.1601C111.027 15.7084 110.929 16.2622 110.837 16.8105C110.864 16.8105 110.891 16.8214 110.918 16.8269C111.533 15.1053 111.952 13.3234 112.36 11.5414C112.942 8.78903 113.703 5.92698 112.904 3.14168C112.561 3.18555 112.545 3.17458 112.528 2.88399C112.479 2.72498 112.577 2.38505 112.305 2.41794C111.968 2.39601 112.186 3.58579 112.104 3.89283C111.832 3.32262 111.93 1.30492 110.918 2.22604C110.766 2.37408 110.88 2.51115 110.94 2.64822C111.277 3.42679 111.337 4.23826 111.228 5.06617C111.147 4.64399 111.201 2.67016 110.445 3.08137C110.353 3.13072 110.189 3.11427 110.086 3.06492C109.428 2.79626 109.738 3.81607 109.76 4.15601C109.564 3.94218 109.466 2.97171 109.161 3.09234C108.372 3.14717 109.7 5.40611 109.248 6.34916C109.101 6.89196 109.014 7.45122 108.927 8.00498C108.873 8.35041 108.916 8.37782 109.319 8.33944C109.188 9.06866 109.063 9.77047 108.933 10.4778C108.895 10.4778 108.857 10.4723 108.824 10.4668C108.797 10.3078 108.77 10.1488 108.737 9.93495C108.508 11.6675 108.22 13.2631 107.834 14.9408C107.747 14.2555 108.22 13.0054 107.801 12.5009C107.529 12.32 107.54 12.0678 107.404 11.8101C107.051 12.2542 107.35 12.7477 107.268 13.126C107.143 12.7038 106.915 12.2323 106.833 11.7662C106.828 11.3769 106.382 11.3166 106.104 11.2508C105.5 11.7936 105.049 11.1741 105.332 12.309C105.968 15.5604 105.065 18.9707 103.107 21.6189C102.656 22.3536 101.927 21.7505 101.693 22.2275C100.317 20.5388 100.523 16.3335 101.252 15.4726C101.274 15.6152 101.29 15.7523 101.312 15.8948C101.638 15.4726 101.66 14.8586 101.856 14.3541C101.878 14.2829 101.807 14.1842 101.763 14.0361C102.416 13.1205 101.415 13.1424 101.285 13.6578C101.219 13.9045 101.094 14.1348 101.002 14.3706C100.98 14.3596 100.958 14.3541 100.931 14.3432C100.996 14.0581 101.062 13.773 101.127 13.4879C100.534 13.3234 100.284 13.4275 99.9629 13.9484C99.7834 14.1513 99.3483 14.0581 99.6529 14.4802C99.3319 14.5296 99.0436 14.5735 98.7064 14.6228C98.7934 14.25 99.0817 14.1732 99.3646 14.0087C99.5985 13.8881 99.6202 13.7949 99.4353 13.6085C99.0872 13.3343 98.6846 14.0361 98.3855 14.2006C98.3637 14.1787 98.3365 14.1568 98.3093 14.1403C99.2449 12.468 100.442 10.9931 101.6 9.48536C101.584 9.47439 101.573 9.46343 101.557 9.45246C101.23 9.68274 100.904 9.90754 100.583 10.1378C100.931 9.48536 101.557 8.94255 102.144 8.69583C103.194 7.98854 103.994 6.91938 105.256 6.56299C105.163 6.80424 105.087 6.99614 105 7.22642C105.397 6.99065 105.533 6.48075 105.827 6.13533C106.055 5.8557 105.713 5.6638 105.62 5.42804C105.604 4.66044 104.505 4.61109 105.152 3.77769C104.848 3.679 104.565 3.58579 104.277 3.49259C104.304 3.39389 104.336 3.2952 104.364 3.20199C102.53 1.5681 100.268 5.77894 99.1307 6.91389C98.9457 7.199 98.7499 6.99065 98.5867 7.41832C98.0863 8.37234 97.5858 9.32636 97.118 10.2968C96.5414 11.5579 96.2423 12.8189 95.546 14.0636C95.7473 11.8759 95.7364 9.7266 96.0464 7.63763C96.0573 7.63763 96.0682 7.64312 96.0736 7.6486C96.0736 8.1585 96.0736 8.67389 96.0791 9.1838C96.1172 9.1838 96.1552 9.1838 96.1879 9.18928C96.4327 7.95016 96.536 6.69458 96.7046 5.44449C96.7046 5.03875 96.9548 4.5453 96.6339 4.22181C96.3674 4.38629 96.3891 4.7043 96.313 4.97844C96.2967 4.55078 96.2967 4.1286 95.9431 3.75576C95.5025 3.84897 95.633 4.36436 95.3556 4.66592C95.3937 4.26019 95.4209 3.90928 95.459 3.49807C95.2196 3.62417 95.1054 3.96411 94.7953 3.7448C94.8389 3.56935 94.9313 3.19103 94.6213 3.28424C94.0882 3.60224 94.0882 4.35888 93.9305 4.94006C93.6748 4.51788 93.6041 5.17583 93.5225 5.35128C93.1036 8.0324 92.1843 10.6806 92.0864 13.3892C92.1191 13.3892 92.1517 13.3892 92.1898 13.3892C92.2986 13.0492 92.4019 12.7093 92.5107 12.3748C92.5325 12.3748 92.5542 12.3858 92.576 12.3913C92.4618 12.7422 92.576 13.3453 92.2768 13.5701C92.0647 13.5427 91.9994 13.6907 91.9613 13.8333C91.0312 17.1394 91.3847 20.6265 91.7383 23.9821C93.3539 23.6312 92.6685 22.9403 92.7174 21.6628C92.7446 21.6628 92.7718 21.6628 92.799 21.6573C92.9677 22.3317 92.9405 23.0555 93.3158 23.7244C93.2396 22.88 93.1635 22.0905 93.0928 21.2955C93.12 21.2955 93.1472 21.29 93.1689 21.2845C93.3321 21.7012 93.3974 24.2781 94.0556 23.7956C94.3983 23.7408 94.6539 23.9601 95.0292 24.0588C95.0184 20.9445 95.8778 18.1593 97.6348 15.6591C96.6992 19.5629 97.613 25.1006 102.71 24.5578V24.481C102.351 24.3878 101.992 24.2946 101.627 24.1959C101.627 24.174 101.617 24.1465 101.617 24.1246C104.097 24.2836 105.669 22.9348 106.877 20.9062C106.996 21.8876 107.872 23.2199 108.938 22.6388C108.498 22.5126 107.948 22.4907 107.649 22.1124C107.393 21.7067 107.29 21.0432 107.72 20.7198C107.807 21.0103 107.878 21.2571 107.954 21.5148C108.519 20.7855 107.943 20.4182 108.378 20.0837C108.77 20.4401 108.416 20.9445 108.242 21.3119C108.073 21.6738 108.095 21.7779 108.389 22.0411C109.743 23.3406 111.517 21.9315 112.545 20.8513C112.528 20.8349 112.517 20.813 112.501 20.7965C112.273 20.8897 112.044 20.9829 111.816 21.0761C111.805 21.0542 111.789 21.0323 111.778 21.0103C112.077 20.6923 112.376 20.3743 112.686 20.0399C112.73 20.2098 112.757 20.3195 112.789 20.4346C112.822 20.4456 112.855 20.4566 112.887 20.4675C113.518 19.5355 114.481 18.7569 114.846 17.6877C115.482 16.9201 116.08 16.1251 116.554 15.2314C116.575 15.2369 116.597 15.2424 116.619 15.2533C116.325 18.3676 115.46 21.3612 114.797 24.4042C114.824 24.4097 114.851 24.4152 114.878 24.4262C115.047 24.0917 115.215 23.7518 115.384 23.4173C115.406 23.4228 115.428 23.4338 115.449 23.4393C115.335 24.0424 115.221 24.6455 115.112 25.2102C110.799 25.6105 106.49 25.6434 102.253 26.4219C101.829 26.6029 97.8687 27.1895 97.3737 26.9099C95.323 26.9593 84.5526 28.3738 82.5128 28.626C81.8492 28.8344 80.2391 28.6973 79.8474 29.3114C77.6117 29.6294 75.0116 30.1393 73.5103 30.249C73.4994 30.1996 73.5049 30.2161 73.494 30.1612C74.3861 29.8816 75.3217 29.8103 76.2355 29.6404C74.3045 29.443 72.4007 30.1777 70.4968 30.4464C69.1641 30.7479 67.8423 31.0933 66.515 31.4278C65.9439 31.6307 65.2476 31.6416 64.7961 32.0693C64.8886 32.1241 64.9865 32.1735 65.1715 32.2722C64.6438 32.4805 64.1597 32.6724 63.6756 32.8643C64.1325 33.0891 64.5405 32.8259 64.9648 32.7766C65.0191 33.0946 65.079 33.1165 65.3945 33.0014C66.6293 32.5573 67.8423 32.0199 69.1478 31.8226C69.1532 31.8555 69.1587 31.8829 69.1641 31.9158C66.4715 32.5079 63.6321 33.5113 61.8316 35.7099C62.6584 35.7647 63.2132 35.1123 63.9258 34.8326C64.4045 34.6572 64.9158 34.4598 65.4162 34.3885C64.6275 34.8162 63.6647 35.0191 62.9902 35.6496C62.4299 35.8963 61.8261 36.1376 61.2713 36.4172C60.9993 36.5378 61.07 36.7242 61.293 36.8394C61.4671 37.2232 61.7554 37.0368 62.0328 37.0093C61.8751 37.1684 61.3964 37.1629 61.5215 37.4699C61.5977 37.6179 61.5759 37.8756 61.8696 37.755C62.7182 37.3931 63.6593 37.2451 64.4426 36.7407C65.4217 36.1485 66.5694 36.1156 67.6247 35.7373C68.4134 35.4522 69.3164 35.518 70.0616 35.1123C68.816 35.1232 67.7009 35.5399 66.4878 35.8196C66.8795 35.4796 70.6437 34.5859 71.8349 34.5366C71.7642 34.6243 71.7044 34.7011 71.6391 34.7778C71.6554 34.8162 71.6609 34.8162 71.6772 34.8546C72.7216 34.7669 73.7769 34.4817 74.7886 34.224C75.0497 33.9773 75.3652 34.0212 75.6753 33.9993C77.3126 33.8348 81.4249 32.9959 83.0568 32.815C83.3015 32.7821 83.5626 32.7601 83.6823 32.5134C86.8862 32.0419 91.9178 31.3455 92.4998 31.0111C93.566 30.9672 94.5288 30.4464 95.6113 30.4683C98.0265 30.2764 103.841 29.0373 106.273 28.8508C107.649 28.7521 109.031 28.308 110.401 28.2532C111.718 28.319 112.953 28.1052 114.269 28.0284C113.682 29.3224 113.143 30.5834 112.289 31.669C112.262 31.6581 112.24 31.6471 112.213 31.6307C112.468 31.055 112.724 30.4793 112.974 29.9036C112.621 30.3093 112.186 30.6163 111.952 31.1043C110.712 33.7087 109.167 36.165 107.007 38.1059C106.806 35.9676 107.355 33.9993 108.394 32.1844C108.59 31.828 108.579 31.828 108.247 31.6087C108.568 31.1043 109.014 30.9837 108.204 30.6876C108.378 30.3696 108.536 30.0735 108.704 29.7665C108.062 29.4869 108.226 30.3148 107.437 30.3422C106.05 30.7644 105.228 32.0254 104.51 33.2097C104.516 32.7272 104.902 32.3215 105.082 31.8829C105.261 31.5539 105.272 31.5594 104.962 31.373C104.978 31.3017 105 31.2249 105.016 31.1536C104.995 31.1317 104.978 31.1098 104.956 31.0879C102.242 33.2481 102.558 42.4155 105.734 43.9945C106.746 43.9781 108.416 42.1249 109.243 41.4505C108.813 42.2455 108.171 42.8541 107.453 43.4133C107.573 43.4846 107.654 43.534 107.736 43.5888C107.671 43.6875 107.622 43.7697 107.567 43.8574C109.009 43.5888 109.896 42.2674 110.684 41.1434C110.793 40.6719 110.831 40.0852 111.315 39.7453C111.136 40.1565 110.973 40.5348 110.809 40.9131C110.837 40.9296 110.864 40.9406 110.886 40.957C112.844 38.5445 114.204 35.7154 115.651 32.9904C116.102 32.6231 115.972 32.0967 116.113 31.6471C116.086 31.6307 116.059 31.6197 116.037 31.6032C115.917 31.7622 115.798 31.9212 115.672 32.0802C115.662 32.0693 115.651 32.0638 115.64 32.0528C115.868 31.4278 116.091 30.8027 116.32 30.1777C116.336 30.1777 116.358 30.1832 116.374 30.1887C116.341 30.5286 116.314 30.8685 116.282 31.2085C116.314 31.2085 116.347 31.2194 116.38 31.2194C116.63 30.1283 116.88 29.0373 117.13 27.9242C117.875 27.7872 118.686 27.9297 119.377 27.5295C119.611 27.3705 119.975 27.5021 120.133 27.7378C120.008 27.8036 119.883 27.8639 119.758 27.9297C119.758 27.9517 119.763 27.9791 119.768 28.001C120.644 28.0065 123.892 27.8201 124.778 28.0503C124.811 28.0558 124.854 28.0284 124.892 28.0174C124.898 27.99 124.909 27.9626 124.914 27.9407C124.659 27.8365 124.408 27.7269 124.153 27.6227C124.816 27.2389 126.165 27.9242 126.562 27.376C126.688 27.2608 126.932 27.2444 127.106 27.1621C127.068 27.1018 127.057 27.047 127.03 27.0415C126.557 26.9538 126.116 26.7125 125.616 26.7838C125.328 26.8277 124.925 26.6961 124.626 26.4164C125.213 26.4439 125.746 26.4439 126.274 26.4987C126.557 26.5371 126.824 26.8331 127.123 26.8441C127.607 26.7893 128.189 26.8441 128.64 26.6961C129.043 26.2849 129.527 26.5426 129.995 26.4329C129.995 26.4055 129.995 26.3781 129.995 26.3452L130.011 26.3507ZM92.2714 15.1875C91.8525 16.0155 91.8961 16.9201 91.7492 17.8029C91.5751 16.3389 91.7383 15.3685 92.2659 14.8586C92.2659 14.9956 92.3095 15.1108 92.2659 15.1875H92.2714ZM93.974 11.3934C94.0936 9.55115 94.3439 7.73632 95.1489 6.04212C94.7573 7.82405 94.3656 9.61146 93.974 11.3934ZM104.38 4.44112C104.407 4.62754 104.385 4.71526 104.173 4.84137C103.749 5.0881 103.368 5.42255 103.015 5.76798C102.269 6.4643 101.791 7.36349 100.795 7.75277C101.312 6.881 103.901 4.49595 104.385 4.44112H104.38ZM103.956 3.77769C103.45 4.23826 102.949 4.69333 102.449 5.14293C102.427 5.11551 102.405 5.09358 102.384 5.06617C102.835 4.55626 103.303 4.0628 103.956 3.77221V3.77769ZM102.438 4.38629C101.698 5.37321 100.719 6.12984 99.9466 7.08386C100.567 5.98729 101.236 4.94006 102.438 4.38629ZM99.5604 11.3386C99.5332 11.7498 98.8043 12.8354 98.1461 13.444C98.4398 12.5832 98.9729 11.9581 99.5604 11.3386ZM98.6846 21.1474C98.9131 21.6464 99.1252 22.1234 99.3319 22.5839C98.8478 22.414 98.467 21.4764 98.6846 21.1474ZM106.186 21.4325C106.267 21.1858 106.344 20.961 106.42 20.7362C106.393 20.7198 106.365 20.6978 106.338 20.6814C106.142 20.8952 105.946 21.1145 105.751 21.3284C105.729 21.3174 105.702 21.3064 105.68 21.2955C106.703 19.9522 107.029 18.3457 107.41 16.7556C107.437 16.7611 107.464 16.7721 107.486 16.7831C107.018 18.2689 107.355 20.2866 106.18 21.4325H106.186ZM111.587 17.9893C111.587 17.9893 111.538 17.9509 111.517 17.9345C112.425 16.6734 113.339 15.4123 114.247 14.1513C114.269 14.1568 114.285 14.1622 114.307 14.1677C113.725 15.6317 112.588 16.7995 111.587 17.9893ZM66.0581 35.6606C66.0418 35.6112 66.0255 35.5674 66.0092 35.518C67.0209 35.1726 68.0109 34.7504 69.0553 34.4982C69.0662 34.5366 69.0825 34.575 69.0934 34.6133C68.0816 34.9642 67.0699 35.3097 66.0581 35.6606ZM84.9334 29.8981C84.8409 29.8432 84.743 29.7939 84.6506 29.7391C84.6125 29.7007 84.5744 29.6678 84.5363 29.6349C87.6314 29.2511 91.9178 28.7576 92.4346 28.6754C91.6676 28.9605 88.1482 29.4485 84.928 29.8981H84.9334ZM80.2391 29.4649C80.2173 29.5088 80.201 29.5526 80.1847 29.5965C78.803 29.9036 74.6907 30.5944 74.5058 30.4847C75.1803 30.2161 79.0206 29.5198 80.2445 29.4649H80.2391ZM77.1113 33.0781C75.833 33.3578 74.5765 33.5551 73.2655 33.6319C73.2655 33.61 73.2655 33.588 73.2601 33.5606C74.6309 33.3687 78.3243 32.2009 79.8039 32.2831C79.7985 32.3325 79.793 32.3873 79.793 32.4366C79.8039 32.6779 79.1403 32.7766 79.2382 32.8479C78.2101 33.0288 77.4268 33.1878 77.1059 33.0781H77.1113ZM82.2191 31.2852C82.5998 31.1427 82.9534 30.9343 83.3015 30.726C83.3015 30.726 83.3015 30.7205 83.3015 30.715C87.4682 30.068 93.0492 29.2566 94.6648 29.0263C94.6648 29.0537 94.6757 29.0756 94.6811 29.1031C93.0329 29.4485 86.228 30.4628 82.2245 31.2798L82.2191 31.2852ZM101.203 28.7302C101.203 28.7302 101.192 28.6754 101.187 28.648C102.601 28.0394 104.092 27.8475 105.604 27.7598C105.615 27.8146 105.62 27.8694 105.631 27.9242C104.157 28.1929 102.677 28.4616 101.203 28.7302ZM105.408 39.1257C104.946 37.3877 105.424 35.666 105.789 33.9664C105.968 33.111 106.496 32.4092 106.849 31.6252C106.811 31.6032 106.779 31.5813 106.741 31.5649C106.414 31.9651 106.088 32.3654 105.762 32.7656C106.082 31.8938 106.703 31.2962 107.518 30.8576C106.023 33.4126 105.441 36.1979 105.403 39.1257H105.408ZM105.816 43.4901C105.843 43.3585 105.832 43.1776 105.914 43.1063C106.616 42.4867 107.306 41.8452 108.035 41.2641C107.611 42.2181 106.86 43.2379 105.816 43.4901ZM107.361 41.1708C107.083 41.4614 106.333 42.8047 106.082 41.8891C106.18 41.8288 106.322 41.7904 106.36 41.7082C106.839 40.7487 107.926 40.3703 108.683 39.6631C108.693 39.674 108.704 39.685 108.71 39.696C108.258 40.1894 107.807 40.6774 107.361 41.1708ZM107.361 39.027C106.768 38.4184 108.895 37.2287 109.297 36.6639C109.025 37.3274 107.861 38.7255 107.361 39.027ZM110.973 37.7276C110.973 36.8174 111.718 36.4062 112.224 35.836C112.017 36.6091 111.457 37.1409 110.973 37.7276ZM115.346 15.7687C115.346 15.7687 115.303 15.7523 115.281 15.7413C115.721 14.7763 116.162 13.8168 116.603 12.8573C116.641 12.8628 116.673 12.8738 116.711 12.8793C116.575 13.932 115.999 14.9408 115.346 15.7687ZM62.2885 31.669C62.691 31.8883 62.9902 31.6526 63.322 31.5374C63.186 31.2852 62.5605 31.3675 62.2885 31.669ZM75.2782 5.121C75.1422 5.6638 74.9953 6.4643 74.3534 6.53009C74.6581 5.60897 73.9455 5.69122 75.2782 5.121ZM83.122 8.39427C83.1492 8.52586 83.2091 8.64648 83.1982 8.76162C83.0187 9.84723 83.035 10.9767 82.7249 12.0239C82.8881 11.4098 82.6379 8.37782 83.122 8.39427ZM75.9636 8.81645C76.5728 8.21333 77.7749 7.65408 78.2427 8.11464C77.4486 8.25171 76.8502 8.86579 75.9636 8.81645ZM66.7272 6.00922C66.7761 5.51576 66.5912 4.24374 67.3636 4.23277C67.4017 4.23277 67.4452 4.20536 67.4778 4.18891C67.5377 3.99701 67.3854 3.70093 67.6628 3.679C67.9511 3.70642 68.2666 3.99153 68.2503 4.34243C68.5929 4.07377 68.9574 3.85994 69.4306 4.04636C69.311 4.11215 69.1967 4.17794 69.0771 4.24922C69.0771 4.26567 69.0879 4.27664 69.0934 4.29308C69.4306 4.32598 69.7135 4.23277 69.6754 3.82704C70.883 3.79963 71.0843 5.32935 71.427 6.21757C71.4596 6.34916 71.2311 6.53558 71.2039 6.64523C71.2855 6.91938 71.2529 7.33607 71.4542 7.52798C71.9383 7.27028 72.1069 9.1838 72.1613 9.50181C72.1504 11.5634 71.6554 11.3386 72.9392 13.1918C72.9228 13.2137 72.9011 13.2302 72.8793 13.2521C72.6672 13.0602 72.455 12.8738 72.2429 12.6819C72.2266 12.6928 72.2048 12.6983 72.1885 12.7093C72.417 13.3234 72.9936 13.6962 73.4233 14.1622C73.5212 14.2555 73.6354 14.3158 73.5974 14.4912C73.7388 15.0614 74.3752 15.4562 74.9736 15.4452C75.0552 15.4452 75.1422 15.4891 75.2564 15.5275C75.1531 15.6042 75.0769 15.6645 74.9464 15.7632C75.1041 15.7523 75.2075 15.7468 75.3108 15.7413C75.3108 15.7523 75.3163 15.7632 75.3217 15.7797C75.1857 15.8455 74.93 15.9058 74.8648 16.0374C74.8702 16.2128 75.1041 16.3006 75.2292 16.1964C75.3543 16.0703 75.5175 15.9551 75.4794 15.7303C75.474 15.692 75.523 15.6426 75.5665 15.5549C75.9037 16.0758 75.387 16.5144 75.5121 17.0572C75.6372 16.7885 75.6644 16.6405 75.9092 16.5254C76.3498 17.0079 76.0397 17.5068 75.969 18.0112C75.9527 18.8885 75.8602 19.7657 75.8384 20.643C75.5502 20.7198 75.5121 20.8349 75.6589 21.0871C75.7732 21.3448 75.9799 22.3317 76.3335 21.767C78.1829 18.5924 79.2871 14.9682 79.9725 11.3605C80.0106 11.3605 80.0432 11.3605 80.0813 11.3605C80.0813 11.7553 80.0704 12.15 80.065 12.5393C80.0868 12.5393 80.114 12.5393 80.1357 12.5448C80.4186 11.0754 80.5709 9.58953 80.6525 8.09819C80.6198 8.09271 80.5872 8.08723 80.5546 8.08174C80.4022 8.94804 80.2554 9.81433 80.0976 10.708C79.9943 10.6422 79.9508 10.6148 79.8909 10.5819C79.842 10.73 79.7985 10.867 79.7495 11.0096C79.7277 11.0096 79.706 10.9986 79.6788 10.9931C79.842 9.89657 80.0052 8.8 80.1792 7.70343C80.2173 7.47863 80.1085 7.43477 79.9399 7.47315C79.4666 7.50604 78.9553 7.91178 78.5147 7.70891C78.8683 7.2648 79.5428 7.21545 79.9344 6.82069C78.6833 6.95227 77.6879 7.62667 76.5293 8.01047C76.3933 8.07078 76.2791 8.16399 76.1104 8.03788C76.0506 7.99402 75.9037 8.03788 75.8058 8.07626C75.6481 8.13109 75.474 8.15302 75.4087 7.98305C75.3543 7.58829 75.8221 7.36349 76.0016 7.04C75.6481 7.14966 75.0769 8.1585 74.8974 7.44025C74.5765 7.6157 74.3534 8.1585 74.1413 7.57732C74.0488 7.62667 73.9618 7.67053 73.8748 7.71439C73.94 7.37445 74.4786 6.43688 74.8539 6.881C75.6317 5.42804 77.6335 5.42804 78.9336 4.67688C77.7205 4.83589 76.5946 5.30193 75.3815 5.73508C75.7514 4.56174 77.0787 4.7372 78.0197 4.39178C79.1294 4.07925 80.3152 4.00249 81.3814 3.58031C80.016 3.47065 78.7214 4.00249 77.3996 4.24374C77.318 4.2547 77.1875 4.24374 77.1494 4.19439C76.8176 3.82156 75.9364 4.46305 75.4958 4.52885C75.4794 4.50143 75.4631 4.47402 75.4468 4.44112C77.0732 3.50903 79.0859 3.52 80.8918 3.10879C81.5119 2.99913 82.1266 2.86206 82.7304 3.09234C84.0522 3.03202 85.3686 3.11975 86.6741 3.38841C86.6741 3.42679 86.6741 3.46517 86.6741 3.50355C85.4502 3.47065 84.1719 3.1691 82.9752 3.53097C83.9978 3.9367 87.8436 3.33358 88.1427 4.47402C88.0394 4.6385 87.713 4.61657 87.5226 4.69882C87.7239 4.75364 87.9089 4.81396 88.0176 5.01134C87.5988 5.26355 87.0657 5.06617 86.6034 5.19227C87.9361 5.97632 87.2398 5.09358 88.1101 5.62542C88.2243 5.30741 88.3712 4.99489 88.5018 4.68237C88.5398 4.69333 88.5725 4.7043 88.6051 4.71527C88.2135 5.70766 88.3168 6.76586 88.1427 7.81857C88.121 7.66505 88.0992 7.51153 88.0775 7.35252C88.0612 7.35252 88.0394 7.35252 88.0231 7.34704C87.9959 7.70891 87.7674 8.12012 87.8653 8.46006C87.9197 8.60262 88.0231 8.75065 88.0122 8.88773C87.9089 9.7924 87.8327 10.6313 87.6586 11.536C87.5281 11.3605 87.4411 11.2344 87.3431 11.1083C86.7774 12.002 86.9461 17.1833 87.6042 18.1757C87.7402 16.3444 87.0113 14.5186 87.577 12.7312C87.6369 15.4233 87.8164 18.088 89.0784 20.5607C88.8227 20.2427 88.5834 19.9193 88.3549 19.5848C88.3331 19.5903 88.3059 19.5958 88.2842 19.6012C88.3277 20.7198 89.2035 21.4983 89.6441 22.4633C89.9215 22.9129 90.3131 23.2199 90.4382 23.7573C89.6767 24.5578 89.0022 23.7573 88.529 23.0719C88.5018 23.0938 88.4746 23.1103 88.4528 23.1322C88.6323 23.4393 88.839 23.7353 88.9913 24.0588C89.1708 24.4317 89.6495 24.2781 89.8508 24.629C89.3884 25.2541 88.6051 25.1883 87.9361 25.1115C87.2235 25.446 86.4456 24.4536 86.0376 23.9601C84.8301 22.4085 84.3242 20.5936 84.112 18.6746C83.9325 14.705 84.5254 10.7355 85.3033 6.8481C84.2752 6.89745 82.7032 6.56847 82.5128 8.01595C82.4094 10.39 82.1157 12.7367 81.6914 15.0669C81.7241 15.0724 81.7567 15.0834 81.7948 15.0888C81.8981 14.7708 82.0015 14.4528 82.1048 14.1348C82.132 14.1348 82.1538 14.1458 82.181 14.1458C81.9036 15.7468 81.5119 17.3588 80.8265 18.8007C80.1194 19.201 80.1901 20.0125 79.8474 20.6046C79.8692 20.6211 79.8909 20.632 79.9072 20.6485C80.0106 20.5169 80.114 20.3798 80.2173 20.2482C80.2391 20.2592 80.2608 20.2702 80.2826 20.2811C79.7985 21.7122 78.7921 22.891 77.9708 24.1411C77.367 24.8374 76.823 25.4569 75.8167 25.2157C75.8602 25.1225 75.8874 25.0622 75.9146 24.9964C75.5719 24.958 75.2075 25.2212 74.8484 25.265C74.5928 25.3418 74.6254 25.106 74.533 24.9964C72.6944 23.9546 72.0362 21.6025 72.0634 19.5848C72.0199 17.9619 73.2547 17.3588 71.4922 16.5857C70.834 19.5738 70.7579 23.187 68.2394 25.2815C68.2176 25.2596 68.1904 25.2376 68.1687 25.2157C68.2557 25.0457 68.3427 24.8812 68.4243 24.7113C68.4134 24.7113 68.408 24.7003 68.3971 24.6948C68.0435 24.9799 67.3854 26.3561 66.9284 26.0601C66.7598 26.1862 66.6347 26.4658 66.3845 26.2794C66.1615 26.1094 66.4008 25.9559 66.5096 25.764C65.9711 25.8627 65.797 26.5864 65.4598 26.4987C65.2748 26.5371 65.2041 26.877 64.9865 26.6248C64.894 26.3452 65.2585 26.1862 65.4162 25.9943C65.0899 26.0107 64.9049 25.5008 64.5133 25.8133C64.6275 25.9175 64.7472 26.0272 64.9049 26.1697C64.2631 26.2245 63.7517 26.0436 63.371 25.605C62.8596 24.947 62.2504 24.3604 61.8588 23.6202C62.109 23.7682 62.2939 23.8834 62.4789 23.993C62.4952 23.9875 62.5061 23.9766 62.5224 23.9656C61.1516 21.5038 60.1507 18.6966 60.5968 15.84C61.0537 13.7455 61.3692 11.5031 62.3483 9.58405C62.691 9.13445 65.2911 4.24374 65.6556 5.63639C65.884 5.4719 66.1397 5.13745 66.5912 5.4719C66.1941 5.94343 65.7916 6.42044 65.3945 6.89745C65.4054 6.90841 65.4217 6.91938 65.4326 6.93034C65.846 6.63427 66.2539 6.34368 66.7381 5.99826L66.7272 6.00922ZM65.7481 23.5599C65.7481 23.5599 65.7698 23.5708 65.7807 23.5763C66.2757 22.7539 66.3573 21.7341 66.8686 20.9281C66.8958 20.9391 66.9176 20.9555 66.9448 20.972C66.9121 21.1693 66.8795 21.3612 66.8468 21.5586C66.8795 21.5696 66.9176 21.5806 66.9502 21.5915C67.8586 19.2723 68.0435 16.7776 68.3482 14.3158C68.5984 13.4659 68.0272 12.7915 67.7661 12.0404C67.4724 11.0151 67.2929 10.0446 66.9828 9.00835C64.5622 11.5963 64.5568 16.2348 64.8505 19.5848C64.6221 18.7733 64.6384 17.907 64.3664 17.123C64.3283 17.123 64.2957 17.1175 64.2576 17.112C63.9204 17.6548 64.0727 18.3292 64.0346 18.9433C64.0564 19.212 64.3718 19.3984 64.4915 19.6122C65.0518 20.7965 64.8451 22.1837 65.5631 23.3131C65.6447 23.2309 65.71 23.1706 65.7753 23.1048C65.7916 23.1158 65.8079 23.1267 65.8242 23.1377C65.8025 23.2803 65.7807 23.4173 65.7589 23.5599H65.7481ZM75.5502 23.2035C75.066 22.8142 74.6853 22.3591 74.5602 21.7341C74.6744 21.8383 74.7832 21.9479 74.8974 22.0521C74.9192 22.0302 74.9409 22.0137 74.9572 21.9918C74.1631 20.9939 74.7179 19.7164 74.299 18.6088C74.0108 19.5903 74.0978 20.8513 74.2882 21.915C74.2555 21.9205 74.2229 21.9315 74.1903 21.9369C74.0869 21.6573 73.9781 21.3722 73.8748 21.0926C73.8421 21.1036 73.8095 21.12 73.7714 21.1364C73.8149 21.9808 74.3915 24.4152 75.5447 23.2035H75.5502ZM85.2163 5.4719C84.2915 5.09907 83.4538 5.25807 82.5726 5.59252C82.6379 5.65283 82.6488 5.66928 82.6651 5.66928C83.5082 5.57608 84.4112 5.74604 85.2163 5.4719ZM87.3105 22.3427C87.3105 22.3427 87.2779 22.3591 87.2615 22.3646C87.3758 22.6991 87.6423 24.1411 88.1373 23.8231C88.2243 23.4173 87.4954 22.7539 87.3105 22.3427ZM72.8249 14.6886C72.7923 15.2479 73.5593 15.9168 74.0978 15.7961C73.5974 15.5001 73.3906 14.9189 72.8249 14.6886ZM62.4734 14.9682C62.6801 14.1293 62.9576 13.2959 62.9521 12.4187C62.5659 13.2247 62.5006 14.091 62.4734 14.9682ZM68.7507 5.35128C68.5114 5.68025 68.495 6.78231 68.7072 7.2319C68.7289 6.56299 69.0009 5.96536 68.7507 5.35128ZM71.1441 9.65533C71.3508 8.75066 71.2855 8.07626 70.9809 7.8734C70.8993 8.49296 71.0353 9.07414 71.1441 9.65533ZM79.4394 15.2862C79.4068 15.2753 79.3687 15.2643 79.3361 15.2533C79.1076 15.9168 78.8792 16.5857 78.6507 17.2491C78.6888 17.2601 78.7214 17.2765 78.7595 17.2875C79.0587 16.646 79.3524 16.0045 79.4394 15.2862ZM72.7597 15.6097C72.5366 15.2643 71.8567 14.6941 71.6717 14.6996C71.7969 15.2533 72.2701 15.6536 72.7597 15.6097ZM71.6989 10.7409C71.8784 10.5161 71.9328 9.68822 71.7969 9.46343C71.7642 9.89109 71.737 10.2968 71.6989 10.7409ZM74.4242 17.6822C74.5384 17.8412 74.7233 17.0462 74.7342 16.9311C74.6907 16.9201 74.6472 16.9146 74.6091 16.9037C74.5493 17.1669 74.484 17.43 74.4296 17.6768L74.4242 17.6822ZM31.8432 20.7691C32.1206 21.109 31.9629 21.7067 31.5658 21.7834C31.5386 21.4106 31.6365 21.0816 31.8432 20.7691ZM30.4017 28.8892C29.7871 28.785 29.477 28.6973 29.3737 28.0284C29.7816 27.9517 30.3637 28.4451 30.4017 28.8892ZM26.235 12.6325C26.1534 12.9779 26.0773 13.2795 26.0066 13.5865C26.0283 13.592 26.0446 13.5975 26.061 13.603C26.2078 13.285 26.3547 12.967 26.4907 12.6435C26.5668 12.2323 26.1643 12.0239 26.6974 11.7882C26.1534 11.2563 27.1271 10.2201 27.4644 9.77595C28.1552 9.09608 28.4272 7.71439 29.4226 7.46766C29.3628 7.56636 29.3029 7.66505 29.2377 7.76922C29.8578 8.04885 28.6448 8.48199 28.8895 8.90417C29.1398 9.06318 29.4933 8.81645 29.564 8.52586C29.6511 8.13657 29.9992 8.31751 30.2712 8.36137C30.5323 8.30106 30.788 8.23526 31.0708 8.1585C30.6628 7.80212 30.5921 7.71439 30.9294 7.25931C31.0654 7.31963 31.2721 7.44573 31.4189 7.33607C32.0445 6.80424 31.816 8.14206 32.5232 8.09271C32.5504 8.05981 32.5776 8.02143 32.6048 7.98854C32.3763 7.85695 32.1859 7.72536 32.1859 7.42928C32.583 7.44573 33.3609 7.39639 33.1487 8.01047C33.0617 8.31203 33.4207 8.58069 33.5241 8.81097C33.6002 8.33944 33.8939 8.05981 33.5513 7.64312C33.5676 7.62667 33.5839 7.60474 33.5948 7.58829C34.291 8.13109 34.4814 9.11801 34.9764 9.84723C34.8731 9.47439 34.7643 9.10156 34.6609 8.72872C35.2266 8.32847 35.2484 9.61146 35.5095 9.90754C35.6672 10.2201 35.689 10.6093 36.0208 10.8341C36.1894 11.0973 36.1894 11.514 36.2438 11.8265C36.2438 11.8978 36.1514 12.0349 36.0861 12.0404C35.5911 12.0239 36.1894 13.773 36.1622 14.1513C36.048 15.6371 36.2166 17.134 36.0535 18.6308C35.9719 19.689 35.9066 20.7581 35.5965 21.7834C35.5857 21.8163 35.5965 21.8547 35.6618 21.9095C35.8685 21.3832 35.8468 20.7965 36.1568 20.314C36.2112 18.8994 36.4451 17.4739 36.3363 16.0648C36.271 15.5933 36.6572 15.4726 36.5865 14.8531C36.5974 14.6283 36.6518 14.398 36.4125 14.2061C36.0752 13.6523 36.1568 12.8573 36.4016 12.2378C37.1794 16.964 37.0924 22.3317 34.4107 26.4493C34.0626 26.6741 33.9266 27.0086 33.8178 27.3814C33.4044 28.0065 32.9747 28.7247 32.2131 28.9495C32.1805 28.9112 32.1478 28.8728 32.1152 28.8344C32.311 28.7521 32.6592 28.6096 32.4361 28.3355C32.4089 28.3026 32.447 28.1819 32.4905 28.1271C33.0998 27.365 33.7471 26.5864 34.0898 25.6653C34.068 25.6488 34.0463 25.6379 34.0245 25.6214C33.1814 26.389 33.0345 27.9571 31.8215 28.2477C31.2558 28.3738 31.8323 28.8234 31.5441 28.9605C31.5005 28.9824 31.5223 29.1305 31.506 29.3004C30.5269 28.8837 29.9611 27.853 29.2921 27.0579C29.0582 27.2937 29.0201 27.2937 28.8515 27.0579C28.5577 26.7619 28.5523 26.3781 28.4163 25.9998C27.9213 26.5974 28.7971 27.3485 28.9385 27.9736C28.9711 28.0449 28.9766 28.1874 28.9385 28.2203C28.623 28.4451 28.8406 28.9715 28.5795 29.1798C27.7092 28.9495 26.9639 27.1073 26.5777 26.3013C26.594 26.2849 26.6158 26.2629 26.6321 26.2465C26.915 26.4384 27.1924 26.6248 27.5188 26.8441C27.3012 26.4 27.0999 25.9778 26.8932 25.5611C26.866 25.5721 26.8388 25.5776 26.8062 25.5885C26.7572 25.7256 26.7028 25.8682 26.6376 26.0491C25.1417 23.5928 24.6739 20.5388 24.8479 17.7042C24.9622 16.7556 25.1471 12.6599 26.235 12.6106V12.6325ZM32.3219 19.2065C33.1052 15.4398 33.2249 14.5789 32.2675 10.8396C32.3002 10.8287 32.3328 10.8122 32.3654 10.8012C32.5667 10.9877 32.768 11.1686 32.9692 11.355C31.6148 8.4162 30.0808 12.7586 29.5042 13.9813C28.9875 14.705 28.846 15.5549 28.5904 16.3828C28.5686 16.3828 28.5469 16.3718 28.5251 16.3718C28.5033 16.2128 28.4761 16.0593 28.4544 15.9003C28.3456 16.3664 28.1389 16.8927 28.2096 17.3478C28.4272 17.5013 28.4 17.7316 28.3891 17.9399C28.1389 20.2921 28.4 22.6936 29.477 24.8264C30.0917 24.311 30.6628 23.8395 30.9511 23.1158C31.098 22.7923 31.2068 22.4414 31.4842 22.2056C31.5713 22.3098 31.5876 22.4414 31.7236 22.5017C31.9955 21.8054 32.5993 21.0761 32.2186 20.3305C32.4307 19.5903 33.2194 19.042 33.0236 18.2196C32.5613 18.4444 32.8767 19.19 32.3165 19.212L32.3219 19.2065ZM30.5921 26.5316C30.7934 26.8002 31.0926 27.6556 31.4733 27.1786C31.8269 26.7564 32.1533 26.3068 32.4851 25.8627C32.7299 25.5008 32.1914 25.6708 32.496 24.7661C31.7562 25.265 31.1796 25.8517 30.5921 26.5316ZM33.5404 25.3034C33.5132 25.287 33.486 25.265 33.4533 25.2431C30.7281 28.2971 31.5604 28.6425 33.5404 25.3034ZM34.2149 25.1828C34.2638 25.1993 34.3074 25.2212 34.3563 25.2376C34.8404 24.4974 35.0308 23.6312 35.3028 22.7978C34.8459 23.527 34.476 24.3549 34.2149 25.1828ZM30.4072 10.4723C30.69 10.231 31.0599 10.1762 31.1143 9.78143C30.8097 9.74854 30.5704 9.96785 30.4072 10.4723ZM30.2331 26.1917C30.2331 26.1917 30.2766 26.2355 30.293 26.2574C30.5867 26.1423 30.9022 25.7969 30.9348 25.5337C30.69 25.7585 30.4616 25.9778 30.2331 26.1917ZM32.1478 9.7924C31.8813 9.50181 31.6855 9.49632 31.5223 9.7595C31.729 9.77047 31.9031 9.78143 32.1478 9.7924ZM19.082 31.9212C18.9569 31.7129 18.7176 31.5539 19.0276 31.4388C19.131 31.532 19.218 31.6471 19.3105 31.7568C19.2561 31.7951 19.1962 31.839 19.082 31.9212ZM19.4628 11.4098C19.4791 11.9362 19.3105 12.4297 19.1799 12.9231C19.1473 12.9176 19.1201 12.9122 19.0874 12.9067C19.1745 12.4022 19.2615 11.8923 19.3485 11.3879C19.3866 11.3934 19.4247 11.3989 19.4682 11.4044L19.4628 11.4098ZM13.8763 20.4456C13.8655 20.1386 13.8546 19.8973 13.8655 19.6561C14.4366 19.2668 14.4094 20.2427 13.8763 20.4456ZM12.4566 21.9534C12.4566 21.9534 12.4077 21.9369 12.3805 21.9315C11.8147 24.7168 11.3905 27.7159 11.9616 30.5286C11.9942 30.5286 12.0269 30.5176 12.0595 30.5122C12.0486 29.8981 11.8963 29.2511 11.9834 28.6535C12.0976 28.0065 12.3097 27.3814 12.1792 26.7125C12.3206 25.9723 12.4077 25.2102 12.3533 24.4536C12.2771 24.6619 12.2118 24.8374 12.152 25.0074C12.1194 24.9964 12.0813 24.9909 12.0486 24.9799C12.1846 23.9711 12.3152 22.9568 12.4512 21.9479L12.4566 21.9534ZM11.8093 17.4794C11.8093 17.4794 11.8474 17.4849 11.8637 17.4903C12.647 14.9682 12.8265 12.2816 13.4792 9.71016C12.647 9.83078 12.9244 10.5107 12.7939 11.1083C12.5382 13.2466 12.1357 15.3575 11.8147 17.4794H11.8093ZM9.79666 24.3439C9.79666 24.3439 9.75314 24.3439 9.72595 24.3439C9.57364 26.1642 9.51924 27.9845 9.55732 29.8049C9.58452 29.8049 9.61172 29.8049 9.63891 29.8049C9.95985 27.99 9.61172 26.1533 9.79122 24.3384L9.79666 24.3439ZM18.9406 20.7691C18.8318 21.7999 18.3368 22.7978 18.6523 23.9437C18.8699 22.8416 18.9025 21.8054 18.9406 20.7691ZM18.9297 27.7707C19.0167 27.0086 18.995 26.241 18.9623 25.4789C18.7665 26.241 18.7774 27.0031 18.9297 27.7707ZM11.6788 18.576C11.6244 19.0584 11.5754 19.4806 11.5264 19.9138C11.9888 19.5355 12.0922 18.9159 11.6788 18.576ZM22.5905 13.1808C22.634 13.1808 22.6776 13.1918 22.7211 13.1973C22.7755 12.786 22.8244 12.3803 22.8788 11.9691C22.8462 11.9691 22.8135 11.9581 22.7755 11.9526C22.7102 12.3639 22.6504 12.7696 22.5905 13.1808ZM29.39 0H29.1506C28.6502 0.0438629 28.1443 0.339938 27.6602 0.444112C26.7518 0.778567 25.8543 1.15688 24.9622 1.54069C24.1898 1.97931 23.2487 1.91352 22.547 2.51115C22.4981 2.55502 22.411 2.55502 22.3403 2.57695C22.3294 2.55502 22.3131 2.5276 22.3022 2.50567C22.7646 2.18218 23.2215 1.85321 23.722 1.50231C23.3357 1.30492 23.1508 1.66679 22.8571 1.63938C23.2433 1.33782 23.6295 1.03626 24.0103 0.729221C23.9939 0.70729 23.9722 0.679875 23.9559 0.657944C22.2968 1.61196 20.6595 2.6866 18.7393 2.99913C20.2461 2.32474 21.8616 1.89159 23.1726 0.838879C22.8462 0.70729 22.634 1.00885 22.3512 1.10754C21.4319 1.49682 20.5779 2.01221 19.577 2.23701C17.0041 2.99364 14.4312 3.88735 11.9181 4.80299C11.9235 4.82492 11.9344 4.85234 11.9399 4.87427C12.4675 4.79751 13.0006 4.72623 13.5282 4.64947C12.7993 5.04972 11.8909 5.04424 11.1022 5.3129C9.541 5.55963 8.2627 6.44237 6.85929 7.11128C6.42413 7.36349 6.0216 7.62667 5.48852 7.6486C4.16127 8.24075 2.80138 9.04673 1.84945 10.1214C2.30638 9.85819 2.71978 9.61695 3.13319 9.38118C3.13319 9.39215 3.14407 9.40312 3.14951 9.41408C2.09967 10.3188 1.04984 11.2234 0 12.1336C0.0271978 12.1445 0.0543957 12.1555 0.0870331 12.172V12.5338C0.413407 12.7477 0.571155 12.3036 0.87577 12.3145C0.723463 12.5229 0.495001 12.6325 0.473242 12.9176C0.783298 12.9067 0.946485 12.6435 1.10967 12.4406C1.7733 12.8793 2.27374 11.8485 2.75242 11.5195C3.35621 11.0644 3.99808 10.6532 4.62363 10.2255C3.79138 11.3824 2.50764 12.0349 1.50132 13.0273C1.13143 13.2795 1.33813 13.7181 1.12599 14.0526C1.31638 14.1513 1.46324 14.0526 1.52852 13.8771C1.72434 13.3179 2.28462 13.2685 2.65995 12.9615C2.67627 12.9834 2.69259 12.9999 2.7089 13.0218C2.33357 13.3727 1.9528 13.7236 1.53396 14.1129C1.80594 14.2226 1.80594 14.3432 1.69171 14.5131C1.9528 14.25 2.25198 14.1458 2.58379 14.0855C3.54116 13.1315 4.58556 12.1774 5.87473 11.6401C5.86385 11.7059 5.85841 11.7498 5.84754 11.8101C5.94001 11.7882 6.01072 11.7717 6.08688 11.7553C6.09775 11.7772 6.10863 11.7936 6.12495 11.8156C5.086 12.7093 3.92193 13.4385 2.84489 14.2774C2.48044 14.6447 1.47956 15.193 1.44693 15.692C1.78962 15.7413 1.93649 15.4343 2.15407 15.2259C2.17039 15.2424 2.18127 15.2588 2.19759 15.2753C2.18127 15.3575 2.17039 15.4343 2.14319 15.5659C2.40429 15.4343 2.58923 15.2698 2.84489 15.2698C3.05704 15.3246 3.16583 15.204 3.32358 15.1053C4.73242 14.4967 6.02704 13.6962 7.32166 12.8573C7.31078 12.8299 7.29446 12.8025 7.28358 12.7751C7.066 12.8573 6.84842 12.9396 6.63083 13.0163C6.61995 12.9889 6.60363 12.9615 6.59276 12.9341C8.1104 11.9581 9.67155 11.0535 11.385 10.4229C11.0423 11.0644 9.79666 11.026 9.53556 11.7059C10.1448 11.4921 10.6833 11.0315 11.3687 10.889C11.1402 12.0294 10.6452 13.1534 10.3624 14.2938C10.2645 14.6393 9.96529 14.9956 10.2427 15.3959C10.1557 15.988 9.99249 16.5912 9.92177 17.1943C9.96529 17.2052 10.0034 17.2162 10.0469 17.2272C10.3297 15.9771 10.6724 14.7489 11.385 13.592C10.8519 16.1854 10.1067 18.735 9.7749 21.3722C9.45397 23.8943 9.43765 26.4439 9.28534 28.9769C9.35606 29.5143 8.93721 33.4564 9.68787 33.1494C9.73683 32.7492 9.50292 32.305 9.85106 31.9158C9.90001 32.1844 9.89457 32.5079 10.1067 32.6669C10.3515 32.7711 10.4222 32.2886 10.6017 32.1625C10.7214 32.3708 10.6724 32.6066 10.8356 32.7163C11.298 32.7985 11.3578 33.8293 11.7059 32.486C12.0051 33.1384 12.2118 32.804 12.4077 32.3105C12.7395 32.4037 12.7993 32.3654 12.783 32.0254C12.8265 31.0659 12.5056 30.0406 12.8211 29.125C12.8591 29.125 12.8972 29.125 12.9299 29.125C13.0604 29.3443 13.1148 29.6349 13.3324 29.7774C13.6316 29.0098 13.4684 28.0723 13.6044 27.2498C13.6588 26.1917 13.8818 25.1335 13.8383 24.0753C13.8111 24.0643 13.7839 24.0533 13.7621 24.0424C13.4738 24.3001 13.4085 24.6893 13.4031 25.0512C13.3922 26.1478 13.2236 27.195 12.8265 28.2203C12.7449 26.2081 13.006 24.1904 13.1964 22.1837C13.4901 18.9817 13.7023 15.7578 14.6324 12.6654C14.7412 13.0931 14.4638 13.4988 14.627 13.921C14.9153 13.2247 14.8609 12.3584 15.1166 11.6182C15.4103 10.889 15.53 8.7671 16.2589 8.5423C15.7312 10.8012 15.2852 13.0821 14.5128 15.2753C14.268 15.8181 14.2517 16.4705 14.1646 17.0736C14.1918 17.6219 13.588 19.2558 14.2408 19.4258C14.9425 15.7797 15.84 12.1665 16.6342 8.53682C16.7375 8.20785 17.1292 8.09271 17.374 7.88984C17.3631 7.86791 17.3468 7.84598 17.3359 7.82405C17.151 7.89533 16.966 7.96112 16.7321 8.04885C16.7593 7.88984 16.743 7.71988 16.8028 7.68698C16.9986 7.57184 17.2543 7.40735 17.4338 7.4567C17.684 7.52798 17.869 7.46766 18.0702 7.3909C18.9188 7.08935 19.7239 6.71651 20.5888 6.44785C20.2733 7.69794 19.8327 8.88224 19.6804 10.1762C19.7891 10.094 19.8544 10.0446 19.9632 9.96237C19.7456 11.8704 19.2669 13.6633 18.9188 15.5384C18.8753 15.8784 18.5924 15.7249 18.587 16.2567C18.3912 17.6493 18.2606 19.0475 18.1192 20.4456C17.9343 23.9711 17.1183 27.5459 17.7384 31.055C17.9016 31.4442 18.5924 31.2414 18.9025 31.3401C18.8318 30.6054 18.7611 29.92 18.6958 29.2346C18.7284 29.2237 18.7611 29.2127 18.7937 29.2017C18.81 29.4485 18.9025 29.6075 19.1636 29.5362C19.1854 29.7062 19.2071 29.8542 19.2289 30.0022C19.2561 30.0022 19.2833 30.0022 19.3159 29.9968C19.3703 29.8487 19.4301 29.7007 19.4573 29.6184C19.7565 29.8213 19.9741 29.8981 20.3113 29.9364C20.4038 29.8542 20.5235 29.6952 20.6323 29.602C20.9587 29.2346 20.7846 28.5931 20.8934 28.1216C20.8662 28.1216 20.839 28.1216 20.8118 28.1161C20.7628 28.3519 20.7193 28.5877 20.6649 28.8673C20.2352 28.4012 20.5724 27.9517 20.5833 27.4582C20.4909 26.7619 20.4582 26.0546 20.431 25.3528C20.4582 25.3583 20.4909 25.3637 20.518 25.3747C20.6323 25.3089 20.7465 25.2376 20.8825 25.1554C20.9097 25.6763 20.9369 26.1807 20.9641 26.6906C21.0022 26.6906 21.0402 26.6906 21.0838 26.6906C21.013 24.7826 21.2252 25.4898 21.8943 24.2014C21.916 23.6695 22.101 23.1048 21.8235 22.6004C21.78 22.5401 21.8344 22.414 21.8453 22.3207C21.8671 22.3207 21.8888 22.3207 21.916 22.3207C21.9487 22.3865 21.9813 22.4469 22.052 22.5839C22.2859 19.7438 22.1554 16.9366 22.596 14.1019C22.6177 14.1019 22.6395 14.1019 22.6612 14.1019V15.6591C23.0474 14.2226 22.9713 12.5009 23.3521 10.9931C23.5533 9.81433 24.0538 8.67938 24.1789 7.48959C24.1517 7.48411 24.119 7.47315 24.0918 7.46766C23.4881 8.4162 23.6404 9.81981 22.6884 10.5271C22.955 9.57857 23.2052 8.60262 23.5153 7.65956C23.3412 6.83165 22.5361 8.59713 22.4817 8.84935C22.4001 8.10916 22.9006 7.56636 23.1454 6.90293C23.1726 6.84262 23.1454 6.71103 23.0964 6.68361C22.8081 6.4314 23.1617 5.93794 23.1943 5.57059C23.5914 5.44449 24.032 5.30193 24.4781 5.15938C24.4726 5.121 24.4672 5.0881 24.4563 5.04972C23.7165 5.13745 22.9713 5.23065 22.1989 5.32386C23.3521 4.83589 24.5433 4.84685 25.74 4.61109C27.0782 4.17246 28.5523 3.94218 29.7925 3.31713C29.205 3.03203 28.5033 3.46517 27.8832 3.54193C28.3673 3.22941 29.0582 3.14717 29.477 2.79626C29.4444 2.54405 29.5749 2.4015 29.7762 2.25346C29.4498 2.08349 29.1561 2.23153 28.8406 2.31925C27.9104 2.55502 26.9694 2.77433 26.0447 3.03751C24.8751 3.30617 23.7655 3.9038 22.5633 3.96411C24.8099 2.84561 27.3828 2.48374 29.5532 1.19526C29.5369 1.17333 29.5205 1.1514 29.5042 1.12399C28.9331 1.12399 28.3728 1.19526 27.8397 1.43651C28.0518 1.29396 28.215 1.17333 28.3456 0.954019C28.2586 0.910156 28.1715 0.866293 28.0736 0.82243C28.5686 0.559252 29.069 0.301558 29.564 0.0438629C29.5097 0.0328972 29.4607 0.0219315 29.4063 0.0164486L29.39 0ZM1.12599 11.8594C1.12599 11.8594 1.15319 11.8978 1.16951 11.9143C1.35445 11.832 1.5666 11.7827 1.60467 11.5414C1.58835 11.5195 1.5666 11.4976 1.55028 11.4811C1.40885 11.6072 1.26742 11.7333 1.12599 11.8649V11.8594Z" fill="white"></path></g><defs><clipPath id="clip0_193_582"><rect width="173" height="44" fill="white"></rect></clipPath></defs></svg>