<svg width="603" height="412" viewBox="0 0 603 412" fill="none" xmlns="http://www.w3.org/2000/svg">
<path d="M309.571 345.865C289.227 388.52 226.065 409.191 182.754 406.402C209.167 405.91 239.026 370.473 242.307 343.24C209.988 351.442 171.27 345.372 144.693 326.998C129.763 316.826 116.967 302.061 113.85 284.343C93.9987 283.687 74.4758 277.945 57.4138 267.773C36.9066 255.469 19.5165 233.813 21.8133 210.025C24.1101 186.728 43.9611 169.502 62.3356 155.065C51.6718 149.651 43.3048 138.824 39.5315 127.504C38.055 122.746 38.055 117.66 39.0393 112.738C42.4845 95.6765 61.0231 77.6301 84.8115 77.1379C81.8584 62.3727 87.7645 46.6232 97.772 35.4673C107.944 24.3114 121.724 16.9288 136.162 12.1711C184.887 -4.07062 241.979 8.06965 280.04 42.5218C283.321 28.7409 300.383 17.2569 314.492 15.4522C328.601 13.6476 343.53 21.0302 350.421 33.4986C383.725 13.1554 431.137 20.7021 463.949 38.9125C476.91 46.131 488.722 56.1385 496.432 68.935C504.143 81.7315 507.26 97.4811 503.651 111.918C528.095 97.6452 561.563 106.176 582.563 125.207C586.5 128.652 589.945 132.589 592.57 137.183C601.593 152.276 600.937 178.526 585.516 188.533C600.609 209.204 583.875 233.157 566.977 246.446C544.501 264 514.479 266.789 487.081 261.211C490.034 261.867 492.003 275.648 492.167 278.109C492.823 284.343 492.495 290.741 491.182 296.975C488.558 309.444 482.487 320.764 474.12 330.279C435.075 374.411 364.53 380.645 315.148 349.802C313.344 348.489 311.539 347.177 309.571 345.865Z" fill="#FC029A" fill-opacity="0.5"/>
<path d="M302.68 336.513C285.454 380.481 223.932 405.745 180.621 406.074C206.87 403.613 234.104 366.208 235.416 338.81C203.753 349.31 164.708 346.028 136.982 329.787C121.396 320.6 107.451 306.983 103.186 289.429C83.3349 290.249 63.3199 285.983 45.7657 276.96C24.4382 266.132 5.4075 245.789 6.06373 221.837C6.71996 198.377 25.2585 179.838 42.4846 164.088C31.4927 159.495 22.3054 149.159 17.7118 138.167C15.9072 133.574 15.579 128.488 16.0712 123.566C18.204 106.34 35.43 86.9813 59.0544 84.6845C54.9529 70.0834 59.7105 54.0057 69.0618 42.1936C78.4131 30.2174 91.7019 22.0145 105.647 16.2725C153.059 -3.41447 210.808 4.46029 251.33 36.1234C253.627 22.0145 269.869 9.54609 283.813 6.59305C297.758 3.64001 313.18 10.2023 320.89 22.0145C352.718 -0.62549 400.459 3.47595 434.419 19.2255C447.871 25.4597 460.34 34.6469 468.871 46.7872C477.402 58.9274 481.831 74.5129 479.042 89.1141C502.338 73.2005 536.462 79.1066 558.61 96.6607C562.712 99.9419 566.485 103.551 569.602 107.817C579.609 122.254 580.922 148.503 566.321 159.659C582.727 179.182 567.961 204.283 552.048 218.72C530.884 237.914 501.19 242.836 473.464 239.063C476.417 239.391 479.37 253.172 479.862 255.633C481.011 261.867 481.175 268.265 480.19 274.499C478.55 287.132 473.3 298.78 465.589 308.951C429.825 355.708 359.936 367.192 308.422 339.958C306.617 338.974 304.649 337.826 302.68 336.513Z" fill="#FAFAFA"/>
<path d="M576.492 106.996C570.094 96.4967 559.43 88.6219 548.439 83.208C537.611 77.9582 525.799 74.8411 513.822 74.513C504.143 74.3489 494.792 75.9895 486.097 79.5987C486.097 52.037 465.917 28.4127 441.637 16.2725C417.028 3.80409 387.99 -1.60982 360.592 1.83539C347.304 3.47597 334.343 7.74147 322.859 14.4678C312.852 2.98379 295.79 -2.4301 281.024 1.67134C268.228 5.28061 254.775 14.1397 248.541 26.6081C223.768 9.5461 193.746 0.358876 163.723 0.0307609C147.481 -0.297355 131.24 1.99945 115.654 6.92118C98.9204 12.171 82.6787 20.2099 70.0463 32.6782C57.5779 44.9826 49.5391 62.8649 51.9999 80.419C38.3831 83.5361 25.7507 91.9031 18.04 103.551C14.1026 109.457 10.9855 116.184 10.1652 123.238C8.85275 133.246 11.8057 141.941 17.3837 150.308C21.4851 156.542 26.8991 161.628 33.1333 165.565C15.251 182.463 -2.63129 203.134 0.321745 229.219C3.43884 256.453 27.3912 275.812 51.0155 285.655C65.9448 291.889 82.3506 295.007 98.4282 294.842C104.826 313.545 120.084 327.654 137.31 336.677C156.505 346.685 178.652 351.114 200.308 350.294C209.987 349.966 219.339 348.653 228.526 346.357C226.229 358.169 220.323 369.325 212.941 378.84C208.347 384.746 203.261 389.996 197.191 394.261C191.941 397.871 186.527 400.332 180.129 400.988C173.895 401.644 172.582 411.816 179.801 411.652C199.816 411.323 219.831 406.894 238.369 399.511C257.564 391.965 275.775 380.973 290.048 366.044C296.118 359.809 301.204 352.591 305.141 344.88C334.179 360.63 370.272 363.911 402.099 355.872C418.997 351.606 435.239 344.06 449.184 333.396C464.113 321.912 477.237 306.491 483.308 288.28C486.917 277.124 488.229 264.984 485.768 253.336C485.276 250.711 484.62 248.25 483.8 245.625C501.682 246.445 519.893 243.656 536.134 235.946C555.001 226.759 572.063 210.025 578.133 189.517C581.086 179.182 579.774 168.846 574.196 159.987C586.5 146.042 585.844 122.418 576.492 106.996ZM561.563 163.432C573.868 178.526 564.516 197.392 553.36 210.025C541.056 223.641 524.158 231.352 506.112 233.813C495.612 235.29 485.112 235.125 474.613 233.649C469.035 232.993 464.933 241.36 470.183 243.821C470.347 243.985 470.347 244.149 470.511 244.477C471.167 245.953 471.66 247.43 472.152 248.742C472.808 250.875 473.464 253.336 473.956 255.961C475.925 265.312 475.105 274.827 472.48 284.015C467.886 300.092 456.402 313.873 443.606 324.045C419.489 343.239 387.99 351.278 357.147 348.489C339.429 346.849 321.547 341.435 306.453 331.92C304.977 330.935 303.336 330.935 301.86 331.263C299.891 331.591 298.087 332.74 297.266 334.873C290.54 351.935 277.579 365.059 262.322 375.067C246.901 385.402 228.69 392.785 210.644 396.886H210.48C211.792 395.738 213.105 394.59 214.253 393.441C223.932 383.926 231.807 372.114 236.565 359.481C239.19 352.919 240.994 346.028 241.322 338.974C241.487 335.857 239.682 333.56 236.401 333.396C234.268 333.232 231.807 334.544 229.674 335.037C227.05 335.693 224.425 336.349 221.8 337.005C217.042 337.99 212.12 338.646 207.198 339.138C197.355 339.958 187.183 339.466 177.504 337.99C158.637 335.037 139.771 327.326 125.662 314.201C118.115 307.147 111.553 298.288 108.928 288.116C108.272 285.819 106.467 283.851 103.842 283.851C78.0851 284.835 50.1953 277.288 30.6724 259.734C22.4695 252.352 15.415 242.836 12.7901 232.008C10.0011 220.36 12.626 208.876 18.5321 198.705C25.2585 186.893 35.5941 177.213 45.6016 168.026C48.8828 165.073 48.7187 160.807 44.4532 158.839C32.3129 153.589 20.6648 139.316 21.4851 125.699C22.1414 114.051 29.524 103.715 39.0393 97.1529C44.9454 93.0515 51.9999 90.5906 59.3825 89.9344C62.0074 89.6063 65.6167 86.3251 64.7964 83.5361C60.695 68.4428 66.1088 52.8574 76.4445 41.3733C86.616 30.0533 101.053 22.8348 115.326 17.9131C143.38 8.23365 174.551 8.56176 202.769 17.4209C218.847 22.3426 233.94 30.2174 247.393 40.7171C250.838 43.342 256.416 40.0608 257.072 36.2875C259.205 24.4754 271.837 14.96 282.665 12.171C295.462 8.88988 308.586 14.96 315.805 25.7878C317.609 28.4127 322.039 27.4284 324.172 25.9519C344.187 11.8429 370.272 9.54611 394.06 13.1554C418.505 16.7646 444.426 26.9362 460.504 46.295C470.183 58.1072 475.597 73.6927 472.972 88.9501C471.988 94.528 478.878 95.5124 482.487 93.0515C498.729 82.2237 520.221 83.7002 537.611 91.0828C547.126 95.0202 556.477 101.09 562.876 109.129C567.961 115.527 570.586 124.058 571.078 132.425C571.243 136.691 570.914 141.284 569.602 145.222C568.125 149.487 565.829 153.097 562.712 155.557C560.579 157.69 559.595 160.971 561.563 163.432Z" fill="#222222"/>
<path d="M90.966 123H95.706L102.336 135.93L108.966 123H113.706V144H108.966V132.84L103.866 142.5H100.836L95.706 132.84V144H90.966V123ZM124.287 144.6C122.687 144.6 121.297 144.28 120.117 143.64C118.957 143 118.057 142.07 117.417 140.85C116.777 139.61 116.457 138.11 116.457 136.35C116.457 134.69 116.777 133.27 117.417 132.09C118.057 130.89 118.957 129.98 120.117 129.36C121.297 128.72 122.687 128.4 124.287 128.4C126.847 128.4 128.807 129.1 130.167 130.5C131.527 131.9 132.207 133.85 132.207 136.35C132.207 138.99 131.527 141.03 130.167 142.47C128.827 143.89 126.867 144.6 124.287 144.6ZM124.287 140.91C125.267 140.91 126.007 140.54 126.507 139.8C127.007 139.06 127.257 137.94 127.257 136.44C127.257 134.96 127.007 133.86 126.507 133.14C126.007 132.42 125.277 132.06 124.317 132.06C123.317 132.06 122.577 132.42 122.097 133.14C121.637 133.86 121.407 134.96 121.407 136.44C121.407 137.94 121.637 139.06 122.097 139.8C122.577 140.54 123.307 140.91 124.287 140.91ZM136.621 138.15C135.821 137.69 135.161 137.09 134.641 136.35C134.141 135.59 133.891 134.68 133.891 133.62C133.891 132.16 134.411 131.03 135.451 130.23C136.491 129.41 138.071 129 140.191 129H147.661V144H142.711V139.11H141.121L138.661 144H133.621L136.621 138.15ZM142.711 132.36H140.761C140.001 132.36 139.461 132.49 139.141 132.75C138.821 133.01 138.661 133.43 138.661 134.01C138.661 134.61 138.821 135.05 139.141 135.33C139.461 135.61 140.001 135.75 140.761 135.75H142.711V132.36ZM157.051 129H161.491L165.841 136.71L170.191 129H174.631V144H169.921V135.87L166.741 141.36H164.941L161.761 135.87V144H157.051V129ZM177.734 129H182.474V137.31L188.654 129H192.914V144H188.174V135.69L181.994 144H177.734V129ZM209.185 141.9C208.385 142.72 207.455 143.38 206.395 143.88C205.335 144.36 204.065 144.6 202.585 144.6C200.305 144.6 198.515 143.89 197.215 142.47C195.915 141.03 195.265 138.99 195.265 136.35C195.265 133.85 195.905 131.9 197.185 130.5C198.485 129.1 200.285 128.4 202.585 128.4C203.945 128.4 205.155 128.63 206.215 129.09C207.275 129.53 208.225 130.2 209.065 131.1L206.455 133.71C205.935 133.15 205.425 132.74 204.925 132.48C204.425 132.2 203.845 132.06 203.185 132.06C202.085 132.06 201.315 132.42 200.875 133.14C200.435 133.86 200.215 134.96 200.215 136.44C200.215 137.94 200.445 139.06 200.905 139.8C201.365 140.54 202.085 140.91 203.065 140.91C203.725 140.91 204.355 140.77 204.955 140.49C205.575 140.21 206.115 139.81 206.575 139.29L209.185 141.9ZM224.332 141.9C223.532 142.72 222.602 143.38 221.542 143.88C220.482 144.36 219.212 144.6 217.732 144.6C215.452 144.6 213.662 143.89 212.362 142.47C211.062 141.03 210.412 138.99 210.412 136.35C210.412 133.85 211.052 131.9 212.332 130.5C213.632 129.1 215.432 128.4 217.732 128.4C219.092 128.4 220.302 128.63 221.362 129.09C222.422 129.53 223.372 130.2 224.212 131.1L221.602 133.71C221.082 133.15 220.572 132.74 220.072 132.48C219.572 132.2 218.992 132.06 218.332 132.06C217.232 132.06 216.462 132.42 216.022 133.14C215.582 133.86 215.362 134.96 215.362 136.44C215.362 137.94 215.592 139.06 216.052 139.8C216.512 140.54 217.232 140.91 218.212 140.91C218.872 140.91 219.502 140.77 220.102 140.49C220.722 140.21 221.262 139.81 221.722 139.29L224.332 141.9ZM226.308 129H231.048V137.31L237.228 129H241.488V144H236.748V135.69L230.568 144H226.308V129ZM246.66 138.15C245.86 137.69 245.2 137.09 244.68 136.35C244.18 135.59 243.93 134.68 243.93 133.62C243.93 132.16 244.45 131.03 245.49 130.23C246.53 129.41 248.11 129 250.23 129H257.7V144H252.75V139.11H251.16L248.7 144H243.66L246.66 138.15ZM252.75 132.36H250.8C250.04 132.36 249.5 132.49 249.18 132.75C248.86 133.01 248.7 133.43 248.7 134.01C248.7 134.61 248.86 135.05 249.18 135.33C249.5 135.61 250.04 135.75 250.8 135.75H252.75V132.36ZM267.03 134.76H275.73V136.5H267.03V134.76ZM291.438 144.6C289.878 144.6 288.548 144.36 287.448 143.88C286.348 143.38 285.408 142.72 284.628 141.9L286.998 139.53C287.438 139.95 288.028 140.29 288.768 140.55C289.528 140.79 290.268 140.91 290.988 140.91C292.088 140.91 292.888 140.54 293.388 139.8C293.908 139.06 294.168 137.94 294.168 136.44C294.168 134.96 293.918 133.86 293.418 133.14C292.918 132.42 292.058 132.06 290.838 132.06C290.138 132.06 289.448 132.19 288.768 132.45C288.088 132.71 287.538 133.05 287.118 133.47L284.718 131.1C285.518 130.26 286.458 129.6 287.538 129.12C288.638 128.64 289.938 128.4 291.438 128.4C293.838 128.4 295.718 129.1 297.078 130.5C298.438 131.9 299.118 133.85 299.118 136.35C299.118 138.99 298.428 141.03 297.048 142.47C295.688 143.89 293.818 144.6 291.438 144.6ZM288.138 137.97V134.94H296.298V137.97H288.138ZM305.852 132.45H301.112V129H315.512V132.45H310.802V144H305.852V132.45ZM324.824 144.6C323.224 144.6 321.834 144.28 320.654 143.64C319.494 143 318.594 142.07 317.954 140.85C317.314 139.61 316.994 138.11 316.994 136.35C316.994 134.69 317.314 133.27 317.954 132.09C318.594 130.89 319.494 129.98 320.654 129.36C321.834 128.72 323.224 128.4 324.824 128.4C327.384 128.4 329.344 129.1 330.704 130.5C332.064 131.9 332.744 133.85 332.744 136.35C332.744 138.99 332.064 141.03 330.704 142.47C329.364 143.89 327.404 144.6 324.824 144.6ZM324.824 140.91C325.804 140.91 326.544 140.54 327.044 139.8C327.544 139.06 327.794 137.94 327.794 136.44C327.794 134.96 327.544 133.86 327.044 133.14C326.544 132.42 325.814 132.06 324.854 132.06C323.854 132.06 323.114 132.42 322.634 133.14C322.174 133.86 321.944 134.96 321.944 136.44C321.944 137.94 322.174 139.06 322.634 139.8C323.114 140.54 323.844 140.91 324.824 140.91ZM346.907 144.6C345.487 144.6 344.227 144.36 343.127 143.88C342.027 143.38 341.107 142.64 340.367 141.66L342.857 139.17C343.357 139.85 343.897 140.35 344.477 140.67C345.057 140.99 345.727 141.15 346.487 141.15C347.227 141.15 347.827 141.01 348.287 140.73C348.747 140.43 348.977 139.95 348.977 139.29C348.977 138.71 348.807 138.3 348.467 138.06C348.147 137.82 347.707 137.68 347.147 137.64C346.587 137.58 345.957 137.59 345.257 137.67V134.52C346.197 134.48 346.917 134.35 347.417 134.13C347.917 133.91 348.167 133.54 348.167 133.02C348.167 132.72 348.097 132.49 347.957 132.33C347.837 132.17 347.647 132.05 347.387 131.97C347.147 131.89 346.867 131.85 346.547 131.85C345.867 131.85 345.257 132 344.717 132.3C344.177 132.58 343.677 133.01 343.217 133.59L340.727 131.1C341.447 130.2 342.357 129.53 343.457 129.09C344.577 128.63 345.867 128.4 347.327 128.4C348.747 128.4 349.877 128.59 350.717 128.97C351.557 129.35 352.157 129.84 352.517 130.44C352.897 131.04 353.087 131.7 353.087 132.42C353.087 133.48 352.727 134.3 352.007 134.88C351.307 135.46 350.317 135.75 349.037 135.75C350.057 135.75 350.927 135.9 351.647 136.2C352.367 136.5 352.917 136.93 353.297 137.49C353.697 138.03 353.897 138.69 353.897 139.47C353.897 140.41 353.617 141.27 353.057 142.05C352.517 142.83 351.727 143.45 350.687 143.91C349.667 144.37 348.407 144.6 346.907 144.6ZM361.64 144.6C360.38 144.6 359.28 144.26 358.34 143.58C357.4 142.88 356.67 141.92 356.15 140.7C355.63 139.46 355.37 138.03 355.37 136.41C355.37 134.91 355.6 133.56 356.06 132.36C356.54 131.14 357.23 130.18 358.13 129.48C359.03 128.76 360.15 128.4 361.49 128.4C363.29 128.4 364.64 129.07 365.54 130.41C366.46 131.73 366.92 133.7 366.92 136.32C366.92 138.94 366.47 140.98 365.57 142.44C364.69 143.88 363.38 144.6 361.64 144.6ZM363.17 141C363.77 141 364.28 140.81 364.7 140.43C365.12 140.05 365.44 139.52 365.66 138.84C365.9 138.14 366.02 137.34 366.02 136.44C366.02 135.52 365.9 134.73 365.66 134.07C365.44 133.41 365.11 132.9 364.67 132.54C364.23 132.18 363.71 132 363.11 132C362.25 132 361.57 132.39 361.07 133.17C360.57 133.95 360.32 135.03 360.32 136.41C360.32 137.83 360.57 138.95 361.07 139.77C361.59 140.59 362.29 141 363.17 141ZM366.02 144V129H370.97V144H366.02ZM381.461 144.6C378.781 144.6 376.761 143.74 375.401 142.02C374.061 140.3 373.391 137.58 373.391 133.86C373.391 131.68 373.651 129.87 374.171 128.43C374.711 126.97 375.621 125.84 376.901 125.04C378.201 124.22 379.971 123.68 382.211 123.42C383.231 123.32 384.201 123.13 385.121 122.85C386.061 122.57 386.901 122.14 387.641 121.56V125.19C387.141 125.63 386.451 126.01 385.571 126.33C384.691 126.63 383.631 126.84 382.391 126.96C380.991 127.12 379.891 127.4 379.091 127.8C378.291 128.18 377.721 128.76 377.381 129.54C377.041 130.3 376.861 131.31 376.841 132.57C377.241 131.75 377.911 131.05 378.851 130.47C379.791 129.89 380.981 129.6 382.421 129.6C384.481 129.6 386.121 130.24 387.341 131.52C388.581 132.78 389.201 134.59 389.201 136.95C389.201 139.37 388.521 141.25 387.161 142.59C385.821 143.93 383.921 144.6 381.461 144.6ZM381.371 141.06C382.331 141.06 383.051 140.72 383.531 140.04C384.011 139.36 384.251 138.36 384.251 137.04C384.251 135.7 384.001 134.72 383.501 134.1C383.021 133.46 382.311 133.14 381.371 133.14C380.411 133.14 379.681 133.46 379.181 134.1C378.681 134.72 378.431 135.69 378.431 137.01C378.431 138.35 378.681 139.36 379.181 140.04C379.701 140.72 380.431 141.06 381.371 141.06ZM398.652 144.6C397.052 144.6 395.662 144.28 394.482 143.64C393.322 143 392.422 142.07 391.782 140.85C391.142 139.61 390.822 138.11 390.822 136.35C390.822 134.69 391.142 133.27 391.782 132.09C392.422 130.89 393.322 129.98 394.482 129.36C395.662 128.72 397.052 128.4 398.652 128.4C401.212 128.4 403.172 129.1 404.532 130.5C405.892 131.9 406.572 133.85 406.572 136.35C406.572 138.99 405.892 141.03 404.532 142.47C403.192 143.89 401.232 144.6 398.652 144.6ZM398.652 140.91C399.632 140.91 400.372 140.54 400.872 139.8C401.372 139.06 401.622 137.94 401.622 136.44C401.622 134.96 401.372 133.86 400.872 133.14C400.372 132.42 399.642 132.06 398.682 132.06C397.682 132.06 396.942 132.42 396.462 133.14C396.002 133.86 395.772 134.96 395.772 136.44C395.772 137.94 396.002 139.06 396.462 139.8C396.942 140.54 397.672 140.91 398.652 140.91ZM412.786 132.45H408.046V129H422.446V132.45H417.736V144H412.786V132.45ZM430.078 144.6C428.818 144.6 427.718 144.26 426.778 143.58C425.838 142.88 425.108 141.92 424.588 140.7C424.068 139.46 423.808 138.03 423.808 136.41C423.808 134.91 424.038 133.56 424.498 132.36C424.978 131.14 425.668 130.18 426.568 129.48C427.468 128.76 428.588 128.4 429.928 128.4C431.728 128.4 433.078 129.07 433.978 130.41C434.898 131.73 435.358 133.7 435.358 136.32C435.358 138.94 434.908 140.98 434.008 142.44C433.128 143.88 431.818 144.6 430.078 144.6ZM431.608 141C432.208 141 432.718 140.81 433.138 140.43C433.558 140.05 433.878 139.52 434.098 138.84C434.338 138.14 434.458 137.34 434.458 136.44C434.458 135.52 434.338 134.73 434.098 134.07C433.878 133.41 433.548 132.9 433.108 132.54C432.668 132.18 432.148 132 431.548 132C430.688 132 430.008 132.39 429.508 133.17C429.008 133.95 428.758 135.03 428.758 136.41C428.758 137.83 429.008 138.95 429.508 139.77C430.028 140.59 430.728 141 431.608 141ZM434.458 144V129H439.408V144H434.458ZM455.927 144.6C454.327 144.6 452.937 144.28 451.757 143.64C450.597 143 449.697 142.07 449.057 140.85C448.417 139.61 448.097 138.11 448.097 136.35C448.097 134.69 448.417 133.27 449.057 132.09C449.697 130.89 450.597 129.98 451.757 129.36C452.937 128.72 454.327 128.4 455.927 128.4C458.487 128.4 460.447 129.1 461.807 130.5C463.167 131.9 463.847 133.85 463.847 136.35C463.847 138.99 463.167 141.03 461.807 142.47C460.467 143.89 458.507 144.6 455.927 144.6ZM455.927 140.91C456.907 140.91 457.647 140.54 458.147 139.8C458.647 139.06 458.897 137.94 458.897 136.44C458.897 134.96 458.647 133.86 458.147 133.14C457.647 132.42 456.917 132.06 455.957 132.06C454.957 132.06 454.217 132.42 453.737 133.14C453.277 133.86 453.047 134.96 453.047 136.44C453.047 137.94 453.277 139.06 453.737 139.8C454.217 140.54 454.947 140.91 455.927 140.91ZM110.011 182.6C107.331 182.6 105.311 181.74 103.951 180.02C102.611 178.3 101.941 175.58 101.941 171.86C101.941 169.68 102.201 167.87 102.721 166.43C103.261 164.97 104.171 163.84 105.451 163.04C106.751 162.22 108.521 161.68 110.761 161.42C111.781 161.32 112.751 161.13 113.671 160.85C114.611 160.57 115.451 160.14 116.191 159.56V163.19C115.691 163.63 115.001 164.01 114.121 164.33C113.241 164.63 112.181 164.84 110.941 164.96C109.541 165.12 108.441 165.4 107.641 165.8C106.841 166.18 106.271 166.76 105.931 167.54C105.591 168.3 105.411 169.31 105.391 170.57C105.791 169.75 106.461 169.05 107.401 168.47C108.341 167.89 109.531 167.6 110.971 167.6C113.031 167.6 114.671 168.24 115.891 169.52C117.131 170.78 117.751 172.59 117.751 174.95C117.751 177.37 117.071 179.25 115.711 180.59C114.371 181.93 112.471 182.6 110.011 182.6ZM109.921 179.06C110.881 179.06 111.601 178.72 112.081 178.04C112.561 177.36 112.801 176.36 112.801 175.04C112.801 173.7 112.551 172.72 112.051 172.1C111.571 171.46 110.861 171.14 109.921 171.14C108.961 171.14 108.231 171.46 107.731 172.1C107.231 172.72 106.981 173.69 106.981 175.01C106.981 176.35 107.231 177.36 107.731 178.04C108.251 178.72 108.981 179.06 109.921 179.06ZM119.822 184.67C120.122 184.81 120.452 184.9 120.812 184.94C121.192 185 121.502 185.03 121.742 185.03C122.142 185.03 122.542 184.96 122.942 184.82C123.342 184.7 123.702 184.48 124.022 184.16C124.342 183.84 124.582 183.4 124.742 182.84L129.152 167H134.402L128.432 184.34C128.132 185.24 127.762 186.01 127.322 186.65C126.902 187.29 126.352 187.78 125.672 188.12C124.992 188.46 124.102 188.63 123.002 188.63C122.322 188.63 121.752 188.6 121.292 188.54C120.852 188.48 120.442 188.4 120.062 188.3C119.702 188.2 119.292 188.08 118.832 187.94L119.822 184.67ZM118.502 167H123.752L127.682 182H123.512L118.502 167ZM134.923 185.6C134.923 183.82 135.013 182.41 135.193 181.37C135.393 180.31 135.713 179.54 136.153 179.06C136.593 178.56 137.203 178.26 137.983 178.16C138.183 177.94 138.353 177.7 138.493 177.44C138.653 177.18 138.773 176.84 138.853 176.42C138.953 176 139.023 175.46 139.063 174.8C139.123 174.12 139.153 173.26 139.153 172.22V167H152.053V178.28C152.813 178.28 153.423 178.38 153.883 178.58C154.363 178.76 154.733 179.11 154.993 179.63C155.253 180.15 155.433 180.89 155.533 181.85C155.633 182.81 155.683 184.06 155.683 185.6H151.963C151.963 185.32 151.973 184.97 151.993 184.55C152.033 184.15 152.023 183.75 151.963 183.35C151.923 182.97 151.783 182.65 151.543 182.39C151.323 182.13 150.943 182 150.403 182H140.023C139.583 182 139.263 182.13 139.063 182.39C138.863 182.67 138.733 183.01 138.673 183.41C138.633 183.83 138.613 184.24 138.613 184.64C138.633 185.04 138.643 185.36 138.643 185.6H134.923ZM147.103 178.25V170.75H144.013C144.013 172.19 143.973 173.38 143.893 174.32C143.833 175.24 143.703 175.97 143.503 176.51C143.303 177.03 143.023 177.42 142.663 177.68C142.323 177.94 141.873 178.13 141.313 178.25H147.103ZM157.527 184.67C157.827 184.81 158.157 184.9 158.517 184.94C158.897 185 159.207 185.03 159.447 185.03C159.847 185.03 160.247 184.96 160.647 184.82C161.047 184.7 161.407 184.48 161.727 184.16C162.047 183.84 162.287 183.4 162.447 182.84L166.857 167H172.107L166.137 184.34C165.837 185.24 165.467 186.01 165.027 186.65C164.607 187.29 164.057 187.78 163.377 188.12C162.697 188.46 161.807 188.63 160.707 188.63C160.027 188.63 159.457 188.6 158.997 188.54C158.557 188.48 158.147 188.4 157.767 188.3C157.407 188.2 156.997 188.08 156.537 187.94L157.527 184.67ZM156.207 167H161.457L165.387 182H161.217L156.207 167ZM173.618 167H178.568V178.25H182.498V167H187.448V178.25H191.348V167H196.298V178.22C197.038 178.22 197.638 178.32 198.098 178.52C198.578 178.72 198.948 179.09 199.208 179.63C199.468 180.15 199.648 180.9 199.748 181.88C199.848 182.84 199.898 184.08 199.898 185.6H196.208C196.208 185.28 196.218 184.91 196.238 184.49C196.258 184.09 196.238 183.7 196.178 183.32C196.118 182.94 195.968 182.62 195.728 182.36C195.508 182.12 195.138 182 194.618 182H173.618V167ZM201.948 167H206.688V175.31L212.868 167H217.128V182H212.388V173.69L206.208 182H201.948V167ZM223.709 174.14L224.009 174.92L219.269 167H224.729L227.459 172.73H226.529L229.289 167H234.719L230.069 174.92L230.309 174.14L234.959 182H229.289L226.979 176.87L224.609 182H218.999L223.709 174.14ZM243.439 167H258.289V182H253.339V170.75H248.389V182H243.439V167ZM268.764 182.6C267.164 182.6 265.774 182.28 264.594 181.64C263.434 181 262.534 180.07 261.894 178.85C261.254 177.61 260.934 176.11 260.934 174.35C260.934 172.69 261.254 171.27 261.894 170.09C262.534 168.89 263.434 167.98 264.594 167.36C265.774 166.72 267.164 166.4 268.764 166.4C271.324 166.4 273.284 167.1 274.644 168.5C276.004 169.9 276.684 171.85 276.684 174.35C276.684 176.99 276.004 179.03 274.644 180.47C273.304 181.89 271.344 182.6 268.764 182.6ZM268.764 178.91C269.744 178.91 270.484 178.54 270.984 177.8C271.484 177.06 271.734 175.94 271.734 174.44C271.734 172.96 271.484 171.86 270.984 171.14C270.484 170.42 269.754 170.06 268.794 170.06C267.794 170.06 267.054 170.42 266.574 171.14C266.114 171.86 265.884 172.96 265.884 174.44C265.884 175.94 266.114 177.06 266.574 177.8C267.054 178.54 267.784 178.91 268.764 178.91ZM279.268 167H284.218V182H279.268V167ZM280.648 172.49H286.648L289.078 167H294.268L290.608 174.11L294.688 182H289.138L286.288 176H280.738L280.648 172.49ZM303.364 182.6C301.764 182.6 300.374 182.28 299.194 181.64C298.034 181 297.134 180.07 296.494 178.85C295.854 177.61 295.534 176.11 295.534 174.35C295.534 172.69 295.854 171.27 296.494 170.09C297.134 168.89 298.034 167.98 299.194 167.36C300.374 166.72 301.764 166.4 303.364 166.4C305.924 166.4 307.884 167.1 309.244 168.5C310.604 169.9 311.284 171.85 311.284 174.35C311.284 176.99 310.604 179.03 309.244 180.47C307.904 181.89 305.944 182.6 303.364 182.6ZM303.364 178.91C304.344 178.91 305.084 178.54 305.584 177.8C306.084 177.06 306.334 175.94 306.334 174.44C306.334 172.96 306.084 171.86 305.584 171.14C305.084 170.42 304.354 170.06 303.394 170.06C302.394 170.06 301.654 170.42 301.174 171.14C300.714 171.86 300.484 172.96 300.484 174.44C300.484 175.94 300.714 177.06 301.174 177.8C301.654 178.54 302.384 178.91 303.364 178.91ZM312.878 178.91C312.978 178.93 313.088 178.96 313.208 179C313.328 179.04 313.478 179.06 313.658 179.06C314.078 179.06 314.388 178.69 314.588 177.95C314.788 177.21 314.918 175.96 314.978 174.2C315.058 172.44 315.098 170.04 315.098 167H328.178V182H323.228V170.75H320.018C320.018 173.13 319.938 175.09 319.778 176.63C319.638 178.17 319.368 179.38 318.968 180.26C318.588 181.12 318.058 181.72 317.378 182.06C316.698 182.42 315.818 182.6 314.738 182.6C314.238 182.6 313.768 182.57 313.328 182.51C312.888 182.45 312.488 182.38 312.128 182.3L312.878 178.91ZM338.373 182.6C336.833 182.6 335.473 182.28 334.293 181.64C333.133 181 332.223 180.08 331.563 178.88C330.903 177.66 330.573 176.19 330.573 174.47C330.573 171.91 331.233 169.93 332.553 168.53C333.873 167.11 335.663 166.4 337.923 166.4C339.703 166.4 341.193 166.78 342.393 167.54C343.593 168.3 344.463 169.37 345.003 170.75C345.543 172.11 345.703 173.7 345.483 175.52H335.463C335.463 176.62 335.713 177.48 336.213 178.1C336.713 178.7 337.493 179 338.553 179C339.273 179 339.953 178.87 340.593 178.61C341.253 178.35 341.803 177.99 342.243 177.53L344.643 179.9C343.863 180.72 342.963 181.38 341.943 181.88C340.943 182.36 339.753 182.6 338.373 182.6ZM335.493 172.82H340.593C340.513 171.8 340.263 171.04 339.843 170.54C339.423 170.04 338.843 169.79 338.103 169.79C337.383 169.79 336.783 170.04 336.303 170.54C335.843 171.04 335.573 171.8 335.493 172.82ZM347.817 167H352.767V172.49H357.537V167H362.487V182H357.537V176.24H352.767V182H347.817V167ZM365.6 167H370.34V175.31L376.52 167H380.78V182H376.04V173.69L369.86 182H365.6V167ZM385.952 176.15C385.152 175.69 384.492 175.09 383.972 174.35C383.472 173.59 383.222 172.68 383.222 171.62C383.222 170.16 383.742 169.03 384.782 168.23C385.822 167.41 387.402 167 389.522 167H396.992V182H392.042V177.11H390.452L387.992 182H382.952L385.952 176.15ZM392.042 170.36H390.092C389.332 170.36 388.792 170.49 388.472 170.75C388.152 171.01 387.992 171.43 387.992 172.01C387.992 172.61 388.152 173.05 388.472 173.33C388.792 173.61 389.332 173.75 390.092 173.75H392.042V170.36ZM403.563 174.14L403.863 174.92L399.123 167H404.583L407.313 172.73H406.383L409.143 167H414.573L409.923 174.92L410.163 174.14L414.813 182H409.143L406.833 176.87L404.463 182H398.853L403.563 174.14ZM419.064 182.6C418.284 182.6 417.634 182.34 417.114 181.82C416.594 181.28 416.334 180.63 416.334 179.87C416.334 179.11 416.594 178.47 417.114 177.95C417.634 177.43 418.284 177.17 419.064 177.17C419.844 177.17 420.494 177.43 421.014 177.95C421.534 178.47 421.794 179.11 421.794 179.87C421.794 180.63 421.534 181.28 421.014 181.82C420.494 182.34 419.844 182.6 419.064 182.6ZM440.895 182.6C438.795 182.6 436.935 182.15 435.315 181.25C433.715 180.35 432.465 179.07 431.565 177.41C430.665 175.73 430.215 173.76 430.215 171.5C430.215 169.26 430.655 167.31 431.535 165.65C432.435 163.99 433.685 162.7 435.285 161.78C436.905 160.86 438.785 160.4 440.925 160.4C443.105 160.4 444.995 160.87 446.595 161.81C448.195 162.73 449.435 164.03 450.315 165.71C451.195 167.37 451.635 169.3 451.635 171.5C451.635 173.78 451.175 175.76 450.255 177.44C449.355 179.1 448.095 180.38 446.475 181.28C444.875 182.16 443.015 182.6 440.895 182.6ZM440.955 178.76C442.155 178.76 443.175 178.48 444.015 177.92C444.855 177.36 445.485 176.55 445.905 175.49C446.345 174.41 446.565 173.11 446.565 171.59C446.565 169.23 446.075 167.42 445.095 166.16C444.115 164.88 442.695 164.24 440.835 164.24C439.035 164.24 437.655 164.87 436.695 166.13C435.735 167.37 435.255 169.14 435.255 171.44C435.255 173.76 435.755 175.56 436.755 176.84C437.755 178.12 439.155 178.76 440.955 178.76ZM90.9094 220.6C88.2294 220.6 86.2094 219.74 84.8494 218.02C83.5094 216.3 82.8394 213.58 82.8394 209.86C82.8394 207.68 83.0994 205.87 83.6194 204.43C84.1594 202.97 85.0694 201.84 86.3494 201.04C87.6494 200.22 89.4194 199.68 91.6594 199.42C92.6794 199.32 93.6494 199.13 94.5694 198.85C95.5094 198.57 96.3494 198.14 97.0894 197.56V201.19C96.5894 201.63 95.8994 202.01 95.0194 202.33C94.1394 202.63 93.0794 202.84 91.8394 202.96C90.4394 203.12 89.3394 203.4 88.5394 203.8C87.7394 204.18 87.1694 204.76 86.8294 205.54C86.4894 206.3 86.3094 207.31 86.2894 208.57C86.6894 207.75 87.3594 207.05 88.2994 206.47C89.2394 205.89 90.4294 205.6 91.8694 205.6C93.9294 205.6 95.5694 206.24 96.7894 207.52C98.0294 208.78 98.6494 210.59 98.6494 212.95C98.6494 215.37 97.9694 217.25 96.6094 218.59C95.2694 219.93 93.3694 220.6 90.9094 220.6ZM90.8194 217.06C91.7794 217.06 92.4994 216.72 92.9794 216.04C93.4594 215.36 93.6994 214.36 93.6994 213.04C93.6994 211.7 93.4494 210.72 92.9494 210.1C92.4694 209.46 91.7594 209.14 90.8194 209.14C89.8594 209.14 89.1294 209.46 88.6294 210.1C88.1294 210.72 87.8794 211.69 87.8794 213.01C87.8794 214.35 88.1294 215.36 88.6294 216.04C89.1494 216.72 89.8794 217.06 90.8194 217.06ZM100.72 222.67C101.02 222.81 101.35 222.9 101.71 222.94C102.09 223 102.4 223.03 102.64 223.03C103.04 223.03 103.44 222.96 103.84 222.82C104.24 222.7 104.6 222.48 104.92 222.16C105.24 221.84 105.48 221.4 105.64 220.84L110.05 205H115.3L109.33 222.34C109.03 223.24 108.66 224.01 108.22 224.65C107.8 225.29 107.25 225.78 106.57 226.12C105.89 226.46 105 226.63 103.9 226.63C103.22 226.63 102.65 226.6 102.19 226.54C101.75 226.48 101.34 226.4 100.96 226.3C100.6 226.2 100.19 226.08 99.7303 225.94L100.72 222.67ZM99.4003 205H104.65L108.58 220H104.41L99.4003 205ZM115.821 223.6C115.821 221.82 115.911 220.41 116.091 219.37C116.291 218.31 116.611 217.54 117.051 217.06C117.491 216.56 118.101 216.26 118.881 216.16C119.081 215.94 119.251 215.7 119.391 215.44C119.551 215.18 119.671 214.84 119.751 214.42C119.851 214 119.921 213.46 119.961 212.8C120.021 212.12 120.051 211.26 120.051 210.22V205H132.951V216.28C133.711 216.28 134.321 216.38 134.781 216.58C135.261 216.76 135.631 217.11 135.891 217.63C136.151 218.15 136.331 218.89 136.431 219.85C136.531 220.81 136.581 222.06 136.581 223.6H132.861C132.861 223.32 132.871 222.97 132.891 222.55C132.931 222.15 132.921 221.75 132.861 221.35C132.821 220.97 132.681 220.65 132.441 220.39C132.221 220.13 131.841 220 131.301 220H120.921C120.481 220 120.161 220.13 119.961 220.39C119.761 220.67 119.631 221.01 119.571 221.41C119.531 221.83 119.511 222.24 119.511 222.64C119.531 223.04 119.541 223.36 119.541 223.6H115.821ZM128.001 216.25V208.75H124.911C124.911 210.19 124.871 211.38 124.791 212.32C124.731 213.24 124.601 213.97 124.401 214.51C124.201 215.03 123.921 215.42 123.561 215.68C123.221 215.94 122.771 216.13 122.211 216.25H128.001ZM138.425 222.67C138.725 222.81 139.055 222.9 139.415 222.94C139.795 223 140.105 223.03 140.345 223.03C140.745 223.03 141.145 222.96 141.545 222.82C141.945 222.7 142.305 222.48 142.625 222.16C142.945 221.84 143.185 221.4 143.345 220.84L147.755 205H153.005L147.035 222.34C146.735 223.24 146.365 224.01 145.925 224.65C145.505 225.29 144.955 225.78 144.275 226.12C143.595 226.46 142.705 226.63 141.605 226.63C140.925 226.63 140.355 226.6 139.895 226.54C139.455 226.48 139.045 226.4 138.665 226.3C138.305 226.2 137.895 226.08 137.435 225.94L138.425 222.67ZM137.105 205H142.355L146.285 220H142.115L137.105 205ZM154.516 205H159.466V216.25H163.396V205H168.346V216.25H172.246V205H177.196V216.22C177.936 216.22 178.536 216.32 178.996 216.52C179.476 216.72 179.846 217.09 180.106 217.63C180.366 218.15 180.546 218.9 180.646 219.88C180.746 220.84 180.796 222.08 180.796 223.6H177.106C177.106 223.28 177.116 222.91 177.136 222.49C177.156 222.09 177.136 221.7 177.076 221.32C177.016 220.94 176.866 220.62 176.626 220.36C176.406 220.12 176.036 220 175.516 220H154.516V205ZM189.896 220.6C188.356 220.6 186.996 220.28 185.816 219.64C184.656 219 183.746 218.08 183.086 216.88C182.426 215.66 182.096 214.19 182.096 212.47C182.096 209.91 182.756 207.93 184.076 206.53C185.396 205.11 187.186 204.4 189.446 204.4C191.226 204.4 192.716 204.78 193.916 205.54C195.116 206.3 195.986 207.37 196.526 208.75C197.066 210.11 197.226 211.7 197.006 213.52H186.986C186.986 214.62 187.236 215.48 187.736 216.1C188.236 216.7 189.016 217 190.076 217C190.796 217 191.476 216.87 192.116 216.61C192.776 216.35 193.326 215.99 193.766 215.53L196.166 217.9C195.386 218.72 194.486 219.38 193.466 219.88C192.466 220.36 191.276 220.6 189.896 220.6ZM187.016 210.82H192.116C192.036 209.8 191.786 209.04 191.366 208.54C190.946 208.04 190.366 207.79 189.626 207.79C188.906 207.79 188.306 208.04 187.826 208.54C187.366 209.04 187.096 209.8 187.016 210.82ZM199.341 205H203.781L208.131 212.71L212.481 205H216.921V220H212.211V211.87L209.031 217.36H207.231L204.051 211.87V220H199.341V205ZM219.754 223.81C220.414 223.31 220.994 222.76 221.494 222.16C221.994 221.58 222.344 221.04 222.544 220.54C222.024 220.6 221.544 220.51 221.104 220.27C220.684 220.05 220.334 219.73 220.054 219.31C219.794 218.89 219.664 218.4 219.664 217.84C219.664 217.08 219.924 216.44 220.444 215.92C220.964 215.4 221.614 215.14 222.394 215.14C223.174 215.14 223.824 215.42 224.344 215.98C224.864 216.54 225.124 217.33 225.124 218.35C225.124 219.25 224.914 220.14 224.494 221.02C224.094 221.9 223.514 222.72 222.754 223.48C222.014 224.24 221.144 224.88 220.144 225.4L219.754 223.81ZM234.175 205H241.585C243.585 205 245.015 205.28 245.875 205.84C246.735 206.38 247.165 207.26 247.165 208.48C247.165 209.52 246.855 210.31 246.235 210.85C245.635 211.37 244.675 211.77 243.355 212.05C244.895 212.09 246.055 212.42 246.835 213.04C247.615 213.64 248.005 214.51 248.005 215.65C248.005 216.55 247.765 217.33 247.285 217.99C246.825 218.63 246.155 219.13 245.275 219.49C244.415 219.83 243.405 220 242.245 220H234.175V205ZM240.805 211.06C241.345 211.06 241.755 210.95 242.035 210.73C242.315 210.49 242.455 210.14 242.455 209.68C242.455 209.22 242.305 208.88 242.005 208.66C241.725 208.42 241.335 208.3 240.835 208.3H238.975V211.06H240.805ZM241.315 216.67C241.995 216.67 242.485 216.53 242.785 216.25C243.085 215.97 243.235 215.61 243.235 215.17C243.235 214.73 243.085 214.39 242.785 214.15C242.485 213.91 241.995 213.79 241.315 213.79H238.975V216.67H241.315ZM256.797 205H261.747V220H256.797V205ZM258.177 210.49H264.177L266.607 205H271.797L268.137 212.11L272.217 220H266.667L263.817 214H258.267L258.177 210.49ZM280.893 220.6C279.293 220.6 277.903 220.28 276.723 219.64C275.563 219 274.663 218.07 274.023 216.85C273.383 215.61 273.063 214.11 273.063 212.35C273.063 210.69 273.383 209.27 274.023 208.09C274.663 206.89 275.563 205.98 276.723 205.36C277.903 204.72 279.293 204.4 280.893 204.4C283.453 204.4 285.413 205.1 286.773 206.5C288.133 207.9 288.813 209.85 288.813 212.35C288.813 214.99 288.133 217.03 286.773 218.47C285.433 219.89 283.473 220.6 280.893 220.6ZM280.893 216.91C281.873 216.91 282.613 216.54 283.113 215.8C283.613 215.06 283.863 213.94 283.863 212.44C283.863 210.96 283.613 209.86 283.113 209.14C282.613 208.42 281.883 208.06 280.923 208.06C279.923 208.06 279.183 208.42 278.703 209.14C278.243 209.86 278.013 210.96 278.013 212.44C278.013 213.94 278.243 215.06 278.703 215.8C279.183 216.54 279.913 216.91 280.893 216.91ZM295.027 208.45H290.287V205H304.687V208.45H299.977V220H295.027V208.45ZM313.999 220.6C312.399 220.6 311.009 220.28 309.829 219.64C308.669 219 307.769 218.07 307.129 216.85C306.489 215.61 306.169 214.11 306.169 212.35C306.169 210.69 306.489 209.27 307.129 208.09C307.769 206.89 308.669 205.98 309.829 205.36C311.009 204.72 312.399 204.4 313.999 204.4C316.559 204.4 318.519 205.1 319.879 206.5C321.239 207.9 321.919 209.85 321.919 212.35C321.919 214.99 321.239 217.03 319.879 218.47C318.539 219.89 316.579 220.6 313.999 220.6ZM313.999 216.91C314.979 216.91 315.719 216.54 316.219 215.8C316.719 215.06 316.969 213.94 316.969 212.44C316.969 210.96 316.719 209.86 316.219 209.14C315.719 208.42 314.989 208.06 314.029 208.06C313.029 208.06 312.289 208.42 311.809 209.14C311.349 209.86 311.119 210.96 311.119 212.44C311.119 213.94 311.349 215.06 311.809 215.8C312.289 216.54 313.019 216.91 313.999 216.91ZM324.293 205H329.243V226H324.293V205ZM333.233 220.6C332.173 220.6 331.273 220.26 330.533 219.58C329.793 218.9 329.223 217.94 328.823 216.7C328.443 215.46 328.253 214.01 328.253 212.35C328.253 210.67 328.453 209.24 328.853 208.06C329.253 206.88 329.843 205.98 330.623 205.36C331.423 204.72 332.403 204.4 333.563 204.4C334.963 204.4 336.133 204.74 337.073 205.42C338.013 206.1 338.713 207.04 339.173 208.24C339.653 209.42 339.893 210.79 339.893 212.35C339.893 213.91 339.623 215.31 339.083 216.55C338.563 217.79 337.803 218.78 336.803 219.52C335.803 220.24 334.613 220.6 333.233 220.6ZM332.033 217C332.933 217 333.643 216.59 334.163 215.77C334.683 214.95 334.943 213.81 334.943 212.35C334.943 210.99 334.693 209.93 334.193 209.17C333.693 208.39 333.003 208 332.123 208C331.543 208 331.033 208.18 330.593 208.54C330.173 208.9 329.843 209.4 329.603 210.04C329.363 210.68 329.243 211.44 329.243 212.32C329.243 213.26 329.353 214.09 329.573 214.81C329.813 215.51 330.143 216.05 330.563 216.43C330.983 216.81 331.473 217 332.033 217ZM349.243 220.6C347.643 220.6 346.253 220.28 345.073 219.64C343.913 219 343.013 218.07 342.373 216.85C341.733 215.61 341.413 214.11 341.413 212.35C341.413 210.69 341.733 209.27 342.373 208.09C343.013 206.89 343.913 205.98 345.073 205.36C346.253 204.72 347.643 204.4 349.243 204.4C351.803 204.4 353.763 205.1 355.123 206.5C356.483 207.9 357.163 209.85 357.163 212.35C357.163 214.99 356.483 217.03 355.123 218.47C353.783 219.89 351.823 220.6 349.243 220.6ZM349.243 216.91C350.223 216.91 350.963 216.54 351.463 215.8C351.963 215.06 352.213 213.94 352.213 212.44C352.213 210.96 351.963 209.86 351.463 209.14C350.963 208.42 350.233 208.06 349.273 208.06C348.273 208.06 347.533 208.42 347.053 209.14C346.593 209.86 346.363 210.96 346.363 212.44C346.363 213.94 346.593 215.06 347.053 215.8C347.533 216.54 348.263 216.91 349.243 216.91ZM359.507 205H363.947L368.297 212.71L372.647 205H377.087V220H372.377V211.87L369.197 217.36H367.397L364.217 211.87V220H359.507V205ZM393.839 220.6C391.159 220.6 389.139 219.74 387.779 218.02C386.439 216.3 385.769 213.58 385.769 209.86C385.769 207.68 386.029 205.87 386.549 204.43C387.089 202.97 387.999 201.84 389.279 201.04C390.579 200.22 392.349 199.68 394.589 199.42C395.609 199.32 396.579 199.13 397.499 198.85C398.439 198.57 399.279 198.14 400.019 197.56V201.19C399.519 201.63 398.829 202.01 397.949 202.33C397.069 202.63 396.009 202.84 394.769 202.96C393.369 203.12 392.269 203.4 391.469 203.8C390.669 204.18 390.099 204.76 389.759 205.54C389.419 206.3 389.239 207.31 389.219 208.57C389.619 207.75 390.289 207.05 391.229 206.47C392.169 205.89 393.359 205.6 394.799 205.6C396.859 205.6 398.499 206.24 399.719 207.52C400.959 208.78 401.579 210.59 401.579 212.95C401.579 215.37 400.899 217.25 399.539 218.59C398.199 219.93 396.299 220.6 393.839 220.6ZM393.749 217.06C394.709 217.06 395.429 216.72 395.909 216.04C396.389 215.36 396.629 214.36 396.629 213.04C396.629 211.7 396.379 210.72 395.879 210.1C395.399 209.46 394.689 209.14 393.749 209.14C392.789 209.14 392.059 209.46 391.559 210.1C391.059 210.72 390.809 211.69 390.809 213.01C390.809 214.35 391.059 215.36 391.559 216.04C392.079 216.72 392.809 217.06 393.749 217.06ZM403.65 222.67C403.95 222.81 404.28 222.9 404.64 222.94C405.02 223 405.33 223.03 405.57 223.03C405.97 223.03 406.37 222.96 406.77 222.82C407.17 222.7 407.53 222.48 407.85 222.16C408.17 221.84 408.41 221.4 408.57 220.84L412.98 205H418.23L412.26 222.34C411.96 223.24 411.59 224.01 411.15 224.65C410.73 225.29 410.18 225.78 409.5 226.12C408.82 226.46 407.93 226.63 406.83 226.63C406.15 226.63 405.58 226.6 405.12 226.54C404.68 226.48 404.27 226.4 403.89 226.3C403.53 226.2 403.12 226.08 402.66 225.94L403.65 222.67ZM402.33 205H407.58L411.51 220H407.34L402.33 205ZM418.751 223.6C418.751 221.82 418.841 220.41 419.021 219.37C419.221 218.31 419.541 217.54 419.981 217.06C420.421 216.56 421.031 216.26 421.811 216.16C422.011 215.94 422.181 215.7 422.321 215.44C422.481 215.18 422.601 214.84 422.681 214.42C422.781 214 422.851 213.46 422.891 212.8C422.951 212.12 422.981 211.26 422.981 210.22V205H435.881V216.28C436.641 216.28 437.251 216.38 437.711 216.58C438.191 216.76 438.561 217.11 438.821 217.63C439.081 218.15 439.261 218.89 439.361 219.85C439.461 220.81 439.511 222.06 439.511 223.6H435.791C435.791 223.32 435.801 222.97 435.821 222.55C435.861 222.15 435.851 221.75 435.791 221.35C435.751 220.97 435.611 220.65 435.371 220.39C435.151 220.13 434.771 220 434.231 220H423.851C423.411 220 423.091 220.13 422.891 220.39C422.691 220.67 422.561 221.01 422.501 221.41C422.461 221.83 422.441 222.24 422.441 222.64C422.461 223.04 422.471 223.36 422.471 223.6H418.751ZM430.931 216.25V208.75H427.841C427.841 210.19 427.801 211.38 427.721 212.32C427.661 213.24 427.531 213.97 427.331 214.51C427.131 215.03 426.851 215.42 426.491 215.68C426.151 215.94 425.701 216.13 425.141 216.25H430.931ZM441.355 222.67C441.655 222.81 441.985 222.9 442.345 222.94C442.725 223 443.035 223.03 443.275 223.03C443.675 223.03 444.075 222.96 444.475 222.82C444.875 222.7 445.235 222.48 445.555 222.16C445.875 221.84 446.115 221.4 446.275 220.84L450.685 205H455.935L449.965 222.34C449.665 223.24 449.295 224.01 448.855 224.65C448.435 225.29 447.885 225.78 447.205 226.12C446.525 226.46 445.635 226.63 444.535 226.63C443.855 226.63 443.285 226.6 442.825 226.54C442.385 226.48 441.975 226.4 441.595 226.3C441.235 226.2 440.825 226.08 440.365 225.94L441.355 222.67ZM440.035 205H445.285L449.215 220H445.045L440.035 205ZM461.316 208.45H456.576V205H470.976V208.45H466.266V220H461.316V208.45ZM165.254 243H170.204V264H165.254V243ZM174.194 258.6C173.134 258.6 172.234 258.26 171.494 257.58C170.754 256.9 170.184 255.94 169.784 254.7C169.404 253.46 169.214 252.01 169.214 250.35C169.214 248.67 169.414 247.24 169.814 246.06C170.214 244.88 170.804 243.98 171.584 243.36C172.384 242.72 173.364 242.4 174.524 242.4C175.924 242.4 177.094 242.74 178.034 243.42C178.974 244.1 179.674 245.04 180.134 246.24C180.614 247.42 180.854 248.79 180.854 250.35C180.854 251.91 180.584 253.31 180.044 254.55C179.524 255.79 178.764 256.78 177.764 257.52C176.764 258.24 175.574 258.6 174.194 258.6ZM172.994 255C173.894 255 174.604 254.59 175.124 253.77C175.644 252.95 175.904 251.81 175.904 250.35C175.904 248.99 175.654 247.93 175.154 247.17C174.654 246.39 173.964 246 173.084 246C172.504 246 171.994 246.18 171.554 246.54C171.134 246.9 170.804 247.4 170.564 248.04C170.324 248.68 170.204 249.44 170.204 250.32C170.204 251.26 170.314 252.09 170.534 252.81C170.774 253.51 171.104 254.05 171.524 254.43C171.944 254.81 172.434 255 172.994 255ZM188.525 258.6C187.265 258.6 186.165 258.26 185.225 257.58C184.285 256.88 183.555 255.92 183.035 254.7C182.515 253.46 182.255 252.03 182.255 250.41C182.255 248.91 182.485 247.56 182.945 246.36C183.425 245.14 184.115 244.18 185.015 243.48C185.915 242.76 187.035 242.4 188.375 242.4C190.175 242.4 191.525 243.07 192.425 244.41C193.345 245.73 193.805 247.7 193.805 250.32C193.805 252.94 193.355 254.98 192.455 256.44C191.575 257.88 190.265 258.6 188.525 258.6ZM190.055 255C190.655 255 191.165 254.81 191.585 254.43C192.005 254.05 192.325 253.52 192.545 252.84C192.785 252.14 192.905 251.34 192.905 250.44C192.905 249.52 192.785 248.73 192.545 248.07C192.325 247.41 191.995 246.9 191.555 246.54C191.115 246.18 190.595 246 189.995 246C189.135 246 188.455 246.39 187.955 247.17C187.455 247.95 187.205 249.03 187.205 250.41C187.205 251.83 187.455 252.95 187.955 253.77C188.475 254.59 189.175 255 190.055 255ZM192.905 258V243H197.855V258H192.905ZM214.166 255.9C213.366 256.72 212.436 257.38 211.376 257.88C210.316 258.36 209.046 258.6 207.566 258.6C205.286 258.6 203.496 257.89 202.196 256.47C200.896 255.03 200.246 252.99 200.246 250.35C200.246 247.85 200.886 245.9 202.166 244.5C203.466 243.1 205.266 242.4 207.566 242.4C208.926 242.4 210.136 242.63 211.196 243.09C212.256 243.53 213.206 244.2 214.046 245.1L211.436 247.71C210.916 247.15 210.406 246.74 209.906 246.48C209.406 246.2 208.826 246.06 208.166 246.06C207.066 246.06 206.296 246.42 205.856 247.14C205.416 247.86 205.196 248.96 205.196 250.44C205.196 251.94 205.426 253.06 205.886 253.8C206.346 254.54 207.066 254.91 208.046 254.91C208.706 254.91 209.336 254.77 209.936 254.49C210.556 254.21 211.096 253.81 211.556 253.29L214.166 255.9ZM220.012 246.45H215.272V243H229.672V246.45H224.962V258H220.012V246.45ZM231.904 243H236.644V251.31L242.824 243H247.084V258H242.344V249.69L236.164 258H231.904V243ZM256.484 243H260.924L265.274 250.71L269.624 243H274.064V258H269.354V249.87L266.174 255.36H264.374L261.194 249.87V258H256.484V243ZM284.248 258.6C282.648 258.6 281.258 258.28 280.078 257.64C278.918 257 278.018 256.07 277.378 254.85C276.738 253.61 276.418 252.11 276.418 250.35C276.418 248.69 276.738 247.27 277.378 246.09C278.018 244.89 278.918 243.98 280.078 243.36C281.258 242.72 282.648 242.4 284.248 242.4C286.808 242.4 288.768 243.1 290.128 244.5C291.488 245.9 292.168 247.85 292.168 250.35C292.168 252.99 291.488 255.03 290.128 256.47C288.788 257.89 286.828 258.6 284.248 258.6ZM284.248 254.91C285.228 254.91 285.968 254.54 286.468 253.8C286.968 253.06 287.218 251.94 287.218 250.44C287.218 248.96 286.968 247.86 286.468 247.14C285.968 246.42 285.238 246.06 284.278 246.06C283.278 246.06 282.538 246.42 282.058 247.14C281.598 247.86 281.368 248.96 281.368 250.44C281.368 251.94 281.598 253.06 282.058 253.8C282.538 254.54 283.268 254.91 284.248 254.91ZM294.512 243H299.252V251.31L305.432 243H309.692V258H304.952V249.69L298.772 258H294.512V243ZM318.102 261.6C318.102 259.82 318.192 258.41 318.372 257.37C318.572 256.31 318.892 255.54 319.332 255.06C319.772 254.56 320.382 254.26 321.162 254.16C321.362 253.94 321.532 253.7 321.672 253.44C321.832 253.18 321.952 252.84 322.032 252.42C322.132 252 322.202 251.46 322.242 250.8C322.302 250.12 322.332 249.26 322.332 248.22V243H335.232V254.28C335.992 254.28 336.602 254.38 337.062 254.58C337.542 254.76 337.912 255.11 338.172 255.63C338.432 256.15 338.612 256.89 338.712 257.85C338.812 258.81 338.862 260.06 338.862 261.6H335.142C335.142 261.32 335.152 260.97 335.172 260.55C335.212 260.15 335.202 259.75 335.142 259.35C335.102 258.97 334.962 258.65 334.722 258.39C334.502 258.13 334.122 258 333.582 258H323.202C322.762 258 322.442 258.13 322.242 258.39C322.042 258.67 321.912 259.01 321.852 259.41C321.812 259.83 321.792 260.24 321.792 260.64C321.812 261.04 321.822 261.36 321.822 261.6H318.102ZM330.282 254.25V246.75H327.192C327.192 248.19 327.152 249.38 327.072 250.32C327.012 251.24 326.882 251.97 326.682 252.51C326.482 253.03 326.202 253.42 325.842 253.68C325.502 253.94 325.052 254.13 324.492 254.25H330.282ZM348.056 258.6C346.516 258.6 345.156 258.28 343.976 257.64C342.816 257 341.906 256.08 341.246 254.88C340.586 253.66 340.256 252.19 340.256 250.47C340.256 247.91 340.916 245.93 342.236 244.53C343.556 243.11 345.346 242.4 347.606 242.4C349.386 242.4 350.876 242.78 352.076 243.54C353.276 244.3 354.146 245.37 354.686 246.75C355.226 248.11 355.386 249.7 355.166 251.52H345.146C345.146 252.62 345.396 253.48 345.896 254.1C346.396 254.7 347.176 255 348.236 255C348.956 255 349.636 254.87 350.276 254.61C350.936 254.35 351.486 253.99 351.926 253.53L354.326 255.9C353.546 256.72 352.646 257.38 351.626 257.88C350.626 258.36 349.436 258.6 348.056 258.6ZM345.176 248.82H350.276C350.196 247.8 349.946 247.04 349.526 246.54C349.106 246.04 348.526 245.79 347.786 245.79C347.066 245.79 346.466 246.04 345.986 246.54C345.526 247.04 345.256 247.8 345.176 248.82ZM361.37 246.45H356.63V243H371.03V246.45H366.32V258H361.37V246.45ZM373.262 243H378.002V251.31L384.182 243H388.442V258H383.702V249.69L377.522 258H373.262V243Z" fill="#222222"/>
</svg>
