<svg width="51" height="49" viewBox="0 0 51 49" fill="none" xmlns="http://www.w3.org/2000/svg">
<path fill-rule="evenodd" clip-rule="evenodd" d="M23.2243 0.764836C29.365 0.547823 35.5312 1.19886 41.4812 2.70519C42.3457 2.90944 43.2103 3.15198 44.0112 3.54771C46.7701 4.83703 48.8424 7.46672 49.4781 10.4538C50.8258 17.2068 50.8258 24.215 49.4909 30.968C48.9569 33.5977 47.3168 35.9593 45.0538 37.389C43.9858 38.0911 42.7653 38.5124 41.5193 38.7932C40.9345 38.8953 40.4895 39.457 40.5022 40.0442C40.5022 42.6867 40.5022 45.3291 40.5022 47.9716C40.5531 48.4567 39.8793 48.6226 39.5614 48.3546C36.8915 46.0951 34.2344 43.8356 31.5772 41.5889C30.8906 40.9633 29.9625 40.6314 29.0344 40.6953C22.08 41.0655 15.062 40.3378 8.33646 38.4996C4.96731 37.4911 2.25928 34.5678 1.52189 31.1084C0.148802 24.3172 0.148802 17.2451 1.50917 10.4538C2.24657 6.93057 5.04359 3.95621 8.48902 2.9988C13.2948 1.68395 18.2532 0.943553 23.2243 0.764836Z" fill="#FF0003"/>
<path fill-rule="evenodd" clip-rule="evenodd" d="M15.3544 9.61134C14.706 9.70069 14.1847 10.3007 14.2101 10.9517C14.2101 12.5602 14.2101 14.1686 14.2101 15.7771C14.2101 16.4792 14.8585 17.1047 15.5578 17.0919C16.9944 17.0919 18.4438 17.0919 19.8805 17.0919C20.1729 17.0919 20.4907 17.0536 20.7704 17.1685C21.3044 17.3472 21.6985 17.8961 21.6731 18.4706C21.6731 22.7725 21.6731 27.0745 21.6731 31.3765C21.635 32.1297 22.3088 32.819 23.0589 32.7807C24.8388 32.7807 26.6187 32.7807 28.3987 32.7807C29.1615 32.8318 29.8735 32.1296 29.8226 31.3637C29.8226 27.0618 29.8226 22.7598 29.8226 18.4706C29.7845 17.7302 30.4583 17.0791 31.183 17.1047C32.7468 17.0919 34.3233 17.1047 35.8871 17.1047C36.599 17.143 37.2856 16.543 37.2856 15.8154C37.2983 14.1941 37.2856 12.5602 37.2856 10.9389C37.311 10.1858 36.6117 9.54751 35.8871 9.59857C29.0471 9.61134 22.2071 9.58581 15.3544 9.61134Z" fill="#FEFEFE"/>
</svg>
