<svg width="112" height="90" viewBox="0 0 112 90" fill="none" xmlns="http://www.w3.org/2000/svg">
<path d="M61.5595 0.315709C57.4555 0.315709 53.6673 0.315709 49.5633 0.315709C48.9319 0.315709 48.3005 0.315709 47.6691 0.315709C32.516 0.315709 17.0473 0.315709 1.89416 0.315709C0.947088 0.315709 0 1.2628 0 2.20987C0 26.518 0 50.826 0 75.1341C0 76.0812 0.947088 77.0283 1.89416 77.0283C16.7316 77.0283 31.2533 77.0283 46.0907 77.0283C46.0907 80.8165 46.0907 84.2891 46.0907 88.0774C46.0907 89.3402 47.6691 90.6029 48.6162 89.6559C49.879 88.7088 51.1417 87.7617 52.4045 86.499C53.3515 85.8676 54.2986 84.9205 55.2457 84.2891C55.5614 83.9734 55.8771 83.9734 56.1927 83.6577C56.5084 83.6577 56.5084 83.9734 56.8241 83.9734C57.7712 84.9205 58.7183 85.5519 59.3496 86.1833C60.6124 87.446 62.1909 88.3931 63.4536 89.6559C64.085 90.2872 65.0321 89.9715 65.3478 89.3401C65.6635 89.0245 65.9791 88.3931 65.9791 87.7617C65.9791 83.9734 65.9791 80.5008 65.9791 76.7126C80.5009 76.7126 95.0226 76.7126 109.544 76.7126C110.176 76.7126 110.491 76.3969 110.807 76.0812C111.123 75.7655 111.438 75.4498 111.438 74.8185C111.438 50.5104 111.438 26.2022 111.438 1.89416C111.438 0.947088 110.491 0 109.544 0C94.3912 0 79.2381 0 64.4007 0C63.1379 0.31569 62.5065 0.315709 61.5595 0.315709ZM46.0907 73.24C31.8847 73.24 17.6787 73.24 3.78831 73.24C3.78831 50.1947 3.78831 27.1493 3.78831 4.10397C17.9943 4.10397 32.2003 4.10397 46.0907 4.10397C46.0907 27.465 46.0907 50.5104 46.0907 73.24ZM62.1909 84.6048C60.2967 83.0264 58.4026 81.4479 56.8241 80.1852C56.5084 79.8695 55.5614 79.8695 54.93 80.1852C53.0359 81.7636 51.1417 83.342 49.2476 84.6048C49.2476 57.7712 49.2476 31.2533 49.2476 4.41968C53.3515 4.41968 57.1398 4.41968 61.2438 4.41968C61.5595 4.41968 61.5595 4.41968 61.8752 4.41968C62.1909 30.9376 62.1909 57.7712 62.1909 84.6048ZM65.6634 4.41968C79.5538 4.41968 93.4441 4.41968 107.334 4.41968C107.334 27.465 107.334 50.5103 107.334 73.5557C93.4441 73.5557 79.5538 73.5557 65.6634 73.5557C65.6634 50.5103 65.6634 27.465 65.6634 4.41968Z" fill="#FAFAFA"/>
<path d="M11.6805 22.4142C19.8885 22.4142 28.4121 22.4142 36.62 22.4142C38.1984 22.4142 38.1984 19.8887 36.62 19.8887C28.4121 19.8887 19.8885 19.8887 11.6805 19.8887C10.1021 19.8887 10.1021 22.4142 11.6805 22.4142Z" fill="#FAFAFA"/>
<path d="M11.6805 33.1473C19.8885 33.1473 28.4121 33.1473 36.62 33.1473C38.1984 33.1473 38.1984 30.6218 36.62 30.6218C28.4121 30.6218 19.8885 30.6218 11.6805 30.6218C10.1021 30.6218 10.1021 33.1473 11.6805 33.1473Z" fill="#FAFAFA"/>
<path d="M11.6805 44.1964C19.8885 44.1964 28.4121 44.1964 36.62 44.1964C38.1984 44.1964 38.1984 41.6709 36.62 41.6709C28.4121 41.6709 19.8885 41.6709 11.6805 41.6709C10.1021 41.6709 10.1021 44.1964 11.6805 44.1964Z" fill="#FAFAFA"/>
<path d="M11.6805 54.9303C19.8885 54.9303 28.4121 54.9303 36.62 54.9303C38.1984 54.9303 38.1984 52.4048 36.62 52.4048C28.4121 52.4048 19.8885 52.4048 11.6805 52.4048C10.1021 52.4048 10.1021 54.9303 11.6805 54.9303Z" fill="#FAFAFA"/>
<path d="M99.7579 19.8887C91.55 19.8887 83.0264 19.8887 74.8185 19.8887C73.24 19.8887 73.24 22.4142 74.8185 22.4142C83.0264 22.4142 91.55 22.4142 99.7579 22.4142C101.336 22.4142 101.336 19.8887 99.7579 19.8887Z" fill="#FAFAFA"/>
<path d="M99.7579 30.6218C91.55 30.6218 83.0264 30.6218 74.8185 30.6218C73.24 30.6218 73.24 33.1473 74.8185 33.1473C83.0264 33.1473 91.55 33.1473 99.7579 33.1473C101.336 33.1473 101.336 30.6218 99.7579 30.6218Z" fill="#FAFAFA"/>
<path d="M99.7579 41.6709C91.55 41.6709 83.0264 41.6709 74.8185 41.6709C73.24 41.6709 73.24 44.1964 74.8185 44.1964C83.0264 44.1964 91.55 44.1964 99.7579 44.1964C101.336 44.1964 101.336 41.6709 99.7579 41.6709Z" fill="#FAFAFA"/>
<path d="M99.7579 52.4048C91.55 52.4048 83.0264 52.4048 74.8185 52.4048C73.24 52.4048 73.24 54.9303 74.8185 54.9303C83.0264 54.9303 91.55 54.9303 99.7579 54.9303C101.336 54.9303 101.336 52.4048 99.7579 52.4048Z" fill="#FAFAFA"/>
</svg>
