<svg width="104" height="104" viewBox="0 0 104 104" fill="none" xmlns="http://www.w3.org/2000/svg">
<path d="M48 16.1924H17.6667C15.3681 16.1924 13.1637 17.1055 11.5384 18.7308C9.91309 20.3561 9 22.5605 9 24.859V85.5257C9 87.8243 9.91309 90.0287 11.5384 91.654C13.1637 93.2793 15.3681 94.1924 17.6667 94.1924H78.3333C80.6319 94.1924 82.8363 93.2793 84.4616 91.654C86.0869 90.0287 87 87.8243 87 85.5257V55.1924" stroke="white" stroke-width="4" stroke-linecap="round" stroke-linejoin="round"/>
<path d="M80.5 9.69239C82.2239 7.96848 84.562 7 87 7C89.438 7 91.7761 7.96848 93.5 9.69239C95.2239 11.4163 96.1924 13.7544 96.1924 16.1924C96.1924 18.6304 95.2239 20.9685 93.5 22.6924L52.3333 63.8591L35 68.1924L39.3333 50.8591L80.5 9.69239Z" stroke="white" stroke-width="4" stroke-linecap="round" stroke-linejoin="round"/>
</svg>
