<svg width="84" height="90" viewBox="0 0 84 90" fill="none" xmlns="http://www.w3.org/2000/svg">
<path d="M77.709 50.0893C72.6352 45.8036 64.891 43.9286 55.0105 44.4643C61.4195 40.1786 65.6922 32.6786 65.6922 24.375C65.6922 10.9822 54.7435 0 41.3914 0C28.0393 0 17.0906 10.9822 17.0906 24.375C17.0906 32.4107 20.8292 39.375 26.7041 43.9285C19.494 43.125 4.5397 43.6608 0 59.7322C0 60 0 60 0 60.2678V88.125C0 89.1964 0.801156 90 1.86932 90H81.9817C83.0499 90 83.8509 89.1964 83.8509 88.125V61.6071C83.8509 61.0714 83.3169 54.9107 77.709 50.0893ZM20.5622 24.375C20.5622 12.8572 29.9086 3.48219 41.3914 3.48219C52.8742 3.48219 62.2207 12.8572 62.2207 24.375C62.2207 35.8929 52.8742 45.2678 41.3914 45.2678H41.1243C29.9086 45.2678 20.5622 35.8929 20.5622 24.375ZM41.1243 52.7679H42.9937L45.6641 58.125L41.9255 65.0893L39.2551 59.7322L41.1243 52.7679ZM38.721 49.0179C38.721 48.2143 39.2551 47.6786 40.0562 47.6786H43.5278C44.3289 47.6786 44.863 48.2143 44.863 49.0179C44.863 49.8215 44.3289 50.3572 43.5278 50.3572H40.0562C39.5221 50.3572 38.721 49.5536 38.721 49.0179ZM45.397 52.2321C46.4652 51.6964 47.2663 50.3572 47.2663 49.0179C47.2663 48.75 47.2663 48.4821 47.2663 48.2143C48.8686 47.9464 50.2038 47.4107 51.539 46.875L46.9993 55.7143L45.397 52.2321ZM38.4539 52.5L37.3858 56.7857L32.5791 47.4107C33.9143 47.9465 34.9824 48.2143 36.3176 48.4822C36.3176 48.75 36.3176 49.0178 36.3176 49.2857C36.3176 50.3571 37.3858 51.6964 38.4539 52.5ZM80.1124 85.9821H3.73856V60.2678C8.27826 44.7321 25.1019 47.1429 29.1075 47.6786L40.3232 69.9107C40.5903 70.4464 41.3914 70.9821 41.9255 70.9821C42.7266 70.9821 43.2607 70.7143 43.5278 69.9107L54.7435 47.9464C63.8229 47.1428 70.766 48.75 75.3057 52.5C79.5783 56.25 80.1124 60.5358 80.1124 61.0715V85.9821Z" fill="#FAFAFA"/>
</svg>
