<svg width="50" height="57" viewBox="0 0 50 57" fill="none" xmlns="http://www.w3.org/2000/svg">
<path d="M1.10412 24.0142C0.473205 24.8028 0 25.7492 0 26.8533V51.6167C0 54.1404 2.05051 56.1909 4.57417 56.1909H5.20512L5.36281 56.3486L5.5205 56.1909H44.4795L44.6373 56.3486L44.795 56.1909H45.4259C47.9496 56.1909 50 54.1404 50 51.6167V26.8533C50 25.7492 49.6845 24.8028 48.8959 24.0142C48.8959 23.6987 48.7382 23.3833 48.5805 23.0679L25.8675 0.354889C25.3944 -0.118296 24.6057 -0.118296 24.1326 0.354889L1.4196 23.0679C1.10414 23.3833 1.10412 23.6987 1.10412 24.0142ZM7.57105 54.2981L19.2429 42.6261L24.1326 47.5158C24.2903 47.6735 24.6057 47.8313 25.0789 47.8313C25.3944 47.8313 25.7098 47.6735 26.0252 47.5158L30.9149 42.6261L42.5867 54.2981H7.57105ZM11.3565 31.9006V23.2255H39.2745V31.4275L25.0789 45.623L11.3565 31.9006ZM47.9495 26.8533V51.6167C47.9495 52.8785 47.0032 53.825 45.8991 54.1404L32.6498 40.8912L47.7919 25.7493C47.7919 26.0647 47.9495 26.5378 47.9495 26.8533ZM25.0789 3.0363L46.0568 24.0142L40.6941 29.377V22.5947C40.6941 22.1215 40.3786 21.806 39.9054 21.806H10.5678C10.0947 21.806 9.7792 22.1215 9.7792 22.5947V29.8502L3.94322 24.0142L25.0789 3.0363ZM2.05055 26.8533C2.05055 26.3801 2.2082 26.0647 2.36593 25.7493L17.5079 40.8912L4.25869 54.1404C3.15459 53.825 2.20824 52.8785 2.20824 51.6167V26.8533H2.05055Z" fill="#FAFAFA"/>
</svg>
