<svg width="50" height="51" viewBox="0 0 50 51" fill="none" xmlns="http://www.w3.org/2000/svg">
<path d="M47.6447 26.2226C48.9009 26.2226 50 25.1235 50 23.8673C50 10.6775 39.3224 0 26.1325 0C24.8763 0 23.7772 1.09915 23.7772 2.35533C23.7772 3.6115 24.8763 4.71066 26.1325 4.71066C36.8101 4.71066 45.4464 13.3468 45.4464 24.0243C45.2893 25.2805 46.3885 26.2226 47.6447 26.2226ZM26.1325 3.29747C25.6614 3.29747 25.3474 2.98343 25.3474 2.51236C25.3474 2.04129 25.6614 1.72725 26.1325 1.72725C38.5373 1.72725 48.4298 11.7766 48.4298 24.1814C48.4298 24.6524 48.1157 24.9665 47.6447 24.9665C47.1736 24.9665 46.8596 24.6524 46.8596 24.1814C46.7025 12.5617 37.4382 3.29747 26.1325 3.29747Z" fill="#FAFAFA"/>
<path d="M25.8184 7.85107C24.5622 7.85107 23.4631 8.95023 23.4631 10.2064C23.4631 11.4626 24.5622 12.5617 25.8184 12.5617C32.2564 12.5617 37.5951 17.9005 37.5951 24.3384C37.5951 25.5946 38.6943 26.6937 39.9505 26.6937C41.2067 26.6937 42.3058 25.5946 42.3058 24.3384C42.3058 15.2311 34.9257 7.85107 25.8184 7.85107ZM39.9505 25.1235C39.4794 25.1235 39.1654 24.8094 39.1654 24.3384C39.1654 16.9583 33.1985 11.1485 25.9755 11.1485C25.5044 11.1485 25.1903 10.8345 25.1903 10.3634C25.1903 9.89237 25.5044 9.57833 25.9755 9.57833C34.1406 9.57833 40.8926 16.3303 40.8926 24.4954C40.7356 24.6524 40.4216 25.1235 39.9505 25.1235Z" fill="#FAFAFA"/>
<path d="M34.7687 50.4043C35.0828 50.4043 35.5538 50.4043 35.8679 50.4043C37.9092 50.4043 39.6364 49.9332 41.2067 48.9911C41.9918 48.52 42.6199 48.049 43.091 47.4209L44.5042 45.8507C47.3306 42.7102 47.1735 37.6855 43.8761 34.8591L41.3637 32.6608C39.9505 31.4046 38.0662 30.6196 36.182 30.6196C33.9836 30.6196 31.7853 31.5617 30.3721 33.1319L28.9589 34.7021C28.3308 35.3302 28.0168 35.9583 27.5457 36.7434C21.7358 34.231 17.0252 29.9915 14.1987 24.4957C15.2979 24.0246 16.24 23.3965 17.0251 22.6114L18.4383 21.0412C19.8515 19.471 20.4797 17.4297 20.4797 15.3884C20.3226 13.3471 19.5375 11.3058 17.9673 10.0497L15.4549 7.85137C14.0417 6.5952 12.1574 5.81006 10.2732 5.81006C8.07485 5.81006 5.87651 6.7522 4.4633 8.32242L3.0501 9.89264C2.89308 10.0497 2.57905 10.3637 2.42202 10.6777C0.851793 12.0909 -0.561452 15.3884 0.223663 19.1569C3.52114 35.9583 17.8102 48.8341 34.7687 50.4043ZM3.99225 12.0909L4.14924 11.934C4.14924 11.934 4.14925 11.9339 4.30627 11.7769C4.46329 11.6199 4.62034 11.3059 4.77737 11.1488L6.19056 9.57862C7.28972 8.32245 8.85992 7.69434 10.4302 7.69434C11.8434 7.69434 13.0996 8.1654 14.1987 9.10753L16.7111 11.3058C17.8102 12.248 18.4383 13.6612 18.5954 15.2314C18.5954 16.8016 18.1243 18.2148 17.1822 19.314L15.769 20.8842C15.1409 21.6693 14.1987 22.1404 13.2566 22.4544L12.7855 22.6114C12.4715 22.7684 12.1574 22.9255 12.1574 23.2395C12.0004 23.5535 12.0004 23.8676 12.1574 24.1816L12.3144 24.6527C15.6119 31.2476 21.1077 36.2723 27.8597 38.9417L28.1738 39.0987C28.4878 39.2558 28.8019 39.2558 28.9589 39.0987C29.2729 38.9417 29.4299 38.7847 29.587 38.4706L29.744 38.1566C30.0581 37.3715 30.3721 36.7434 30.8431 36.1153L32.2564 34.5451C33.3555 33.2889 34.9257 32.6608 36.496 32.6608C37.9092 32.6608 39.1654 33.1319 40.2645 34.074L42.7769 36.2724C45.1322 38.3136 45.2893 41.9251 43.248 44.2804L41.8347 45.8507C41.3637 46.3217 41.0496 46.6358 40.4215 46.9498C39.0083 47.7349 37.2811 48.206 35.2398 48.049C19.0664 46.6358 5.71947 34.5451 2.57901 18.5288C1.79389 15.3884 3.05011 13.0331 3.99225 12.0909Z" fill="#FAFAFA"/>
</svg>
