<svg width="100" height="90" viewBox="0 0 100 90" fill="none" xmlns="http://www.w3.org/2000/svg">
<path d="M86 0H13.3333C6 0 0 6 0 13.3333V60C0 67.3333 6 73.3333 13.3333 73.3333H60.6667L85 89.6667C85.3333 90.0001 86.0001 90 86.3334 90C86.6667 90 87.3333 90.0001 87.6666 89.6667C88.6666 89.3334 89 88.3336 89 87.3336V71.6667C93.6667 69.6667 99.3333 65.3335 99.3333 59.3335V12.6668C99.6666 6.3335 93.6666 0 86 0ZM94.3333 60.3335C94.3333 63.3335 89.6667 67 85.6667 68.3333C84.6667 68.6667 84 69.6667 84 70.6667V83.0001L63.0001 69C62.6667 68.6667 62 68.6668 61.6667 68.6668H13.6668C9.00012 68.6668 5.33346 65.0001 5.33346 60.3335V13.6668C5.33346 9.00012 9.00012 5.33346 13.6668 5.33346H86.3334C91.0001 5.33346 94.6667 9.00012 94.6667 13.6668V60.3335H94.3333Z" fill="#FAFAFA"/>
<path d="M80.3333 17.3333H18.9999C16.3332 17.3333 13.9999 19.6666 13.9999 22.3333C13.9999 24.9999 16.3332 27.3333 18.9999 27.3333H80.3333C83 27.3333 85.3333 24.9999 85.3333 22.3333C85.3333 19.6666 83 17.3333 80.3333 17.3333ZM80.3333 23.9999H18.9999C17.9999 23.9999 17.3332 23.3333 17.3332 22.3333C17.3332 21.3333 17.9999 20.6666 18.9999 20.6666H80.3333C81.3333 20.6666 82 21.3333 82 22.3333C82 23.3333 81.3333 23.9999 80.3333 23.9999Z" fill="#FAFAFA"/>
<path d="M80.3333 32.0002H18.9999C16.3332 32.0002 13.9999 34.3336 13.9999 37.0002C13.9999 39.6669 16.3332 42.0002 18.9999 42.0002H80.3333C83 42.0002 85.3333 39.6669 85.3333 37.0002C85.3333 34.0002 83 32.0002 80.3333 32.0002ZM80.3333 38.3335H18.9999C17.9999 38.3335 17.3332 37.6668 17.3332 36.6668C17.3332 35.6668 17.9999 35.0001 18.9999 35.0001H80.3333C81.3333 35.0001 82 35.6668 82 36.6668C82 37.6668 81.3333 38.3335 80.3333 38.3335Z" fill="#FAFAFA"/>
<path d="M80.3333 45.6665H18.9999C16.3332 45.6665 13.9999 47.9998 13.9999 50.6665C13.9999 53.3332 16.3332 55.6665 18.9999 55.6665H80.3333C83 55.6665 85.3333 53.3332 85.3333 50.6665C85.3333 47.9998 83 45.6665 80.3333 45.6665ZM80.3333 52.3332H18.9999C17.9999 52.3332 17.3332 51.6665 17.3332 50.6665C17.3332 49.6665 17.9999 48.9998 18.9999 48.9998H80.3333C81.3333 48.9998 82 49.6665 82 50.6665C82 51.6665 81.3333 52.3332 80.3333 52.3332Z" fill="#FAFAFA"/>
</svg>
