<svg width="108" height="90" viewBox="0 0 108 90" fill="none" xmlns="http://www.w3.org/2000/svg">
<path d="M57.9341 56.5869V63.8624C58.2036 63.8624 58.4732 63.5929 58.7427 63.3234C60.09 62.5151 60.8983 61.1678 60.8983 59.8205C60.6289 58.4732 59.8204 57.3953 57.9341 56.5869Z" fill="#FAFAFA"/>
<path d="M97.2756 16.7066H81.3773V13.2036C81.3773 5.92813 75.4492 0 68.1738 0H39.3414C32.066 0 26.1378 5.92813 26.1378 13.2036V16.7066H10.2397C4.58097 16.7066 0 21.2874 0 26.9461V79.7605C0 85.4192 4.58097 90 10.2397 90H97.006C102.665 90 107.246 85.4192 107.246 79.7605V26.9461C107.515 21.2874 102.934 16.7066 97.2756 16.7066ZM103.743 79.7605C103.743 83.533 100.778 86.497 97.006 86.497H10.2397C6.4672 86.497 3.50313 83.533 3.50313 79.7605V26.9461C3.50313 23.1737 6.4672 20.2096 10.2397 20.2096H27.7546C28.8325 20.2096 29.6407 19.4012 29.6407 18.3233V12.9341C29.6407 7.81434 33.9521 3.50296 39.0719 3.50296H68.4432C73.563 3.50296 77.8743 7.81434 77.8743 12.9341V18.3233C77.8743 19.4012 78.6827 20.2096 79.7606 20.2096H97.2756C101.048 20.2096 104.012 23.1737 104.012 26.9461V79.7605H103.743Z" fill="#FAFAFA"/>
<path d="M68.4432 8.35352H39.6108C36.9162 8.35352 35.03 10.5092 35.03 12.9343V18.3235C35.03 19.4014 35.8384 20.2098 36.9162 20.2098H44.1917H45.539H47.9642H60.09H62.515H63.8623H71.1378C72.2157 20.2098 73.0241 19.4014 73.0241 18.3235V12.9343C73.0241 10.5092 70.8684 8.35352 68.4432 8.35352ZM69.2516 16.7068H63.8623H62.515H60.09H48.2336H45.8084H44.4611H39.0719V13.2038C39.0719 12.6649 39.6109 12.126 40.1498 12.126H68.4432C68.9821 12.126 69.5211 12.6649 69.5211 13.2038V16.7068H69.2516Z" fill="#FAFAFA"/>
<path d="M59.8204 47.1558V45.539C60.3593 45.8084 61.1677 46.0779 61.9761 46.0779C62.7844 46.0779 63.8624 45.539 64.1319 45.539L68.1738 43.1138C69.2516 42.3055 69.7905 41.4971 69.7905 40.1498C69.7905 39.3414 69.521 38.2635 68.7126 37.7246C66.2874 35.03 63.3235 33.1438 59.551 32.3354V30.1797C59.551 28.0241 57.9342 26.4072 55.7785 26.4072H52.2755C50.1198 26.4072 48.503 28.0241 48.503 30.1797V32.3354C47.1557 32.6049 45.8084 33.1438 44.4611 33.6827C37.4551 36.9162 36.1078 41.7665 36.3772 45.2695C36.3772 47.6947 37.1857 50.1198 38.8025 52.006C40.9582 54.9701 44.1916 56.8563 48.503 57.6647V61.4372C47.6946 60.8983 46.8863 60.0899 46.0779 59.2815C45.2696 58.4731 44.1916 57.9342 43.1138 57.9342C42.5749 57.9342 41.7666 58.2037 41.2277 58.4732C41.2277 58.4732 41.2276 58.4732 40.9581 58.4732L37.1858 60.6288C35.8385 61.4372 35.2995 62.5151 35.2995 63.5929C35.2995 64.4013 35.5689 65.2096 36.1079 65.7486C37.1857 67.0959 38.533 68.7126 40.1498 69.7905C42.5749 71.6767 45.2695 73.024 48.2336 73.5629V75.4492C48.2336 77.6049 49.8504 79.2216 52.0061 79.2216H55.5091C57.6648 79.2216 59.2814 77.6049 59.2814 75.4492V73.5629C61.7066 73.024 64.1317 72.2156 66.018 70.8683C69.7904 68.4432 71.9461 64.6707 71.9461 60.0899C71.9461 57.1258 71.1379 54.7007 69.5211 52.8145C67.6349 49.8504 64.1318 48.2336 59.8204 47.1558ZM64.4013 67.6348C62.515 68.9821 60.3594 69.7905 57.6647 70.06C56.8564 70.06 56.048 70.8684 56.048 71.9462V75.1797H52.2755V71.9462C52.2755 71.1378 51.7367 70.3294 50.6588 70.06C47.6947 69.521 45.0001 68.4432 42.8444 66.557C41.4971 65.4792 40.4192 64.4013 39.6108 63.3234L43.1138 61.4372H43.3833C45.2696 63.5929 47.6946 65.2097 49.8503 66.018C50.3892 66.2875 50.9282 66.018 51.4672 65.7486C52.0061 65.4791 52.2755 64.9402 52.2755 64.1318V55.7786C52.2755 54.9702 51.7367 54.1618 50.6588 53.8923C46.3474 53.3534 43.3832 51.7366 41.7665 49.3114C40.6886 47.9641 40.1498 46.3474 40.1498 44.7306C40.1498 41.2276 42.036 38.533 46.0779 36.6468C47.4253 36.1079 48.7726 35.569 50.6588 35.2995C51.4672 35.2995 52.2755 34.4911 52.2755 33.4132V29.6408H55.7785V33.4132C55.7785 34.2216 56.3175 35.03 57.3953 35.2995C60.8983 35.8384 63.5929 37.4551 65.7486 39.8803L61.9761 42.3055H61.7067C61.4372 42.3055 61.4372 42.3055 61.1677 42.036C60.3593 41.2276 59.2815 40.6887 58.2037 40.1498C57.6648 39.8803 56.8564 39.8803 56.3174 40.1498C55.7785 40.4192 55.5091 40.9582 55.5091 41.7665V48.5031C55.5091 49.3115 56.3174 50.1199 57.1258 50.3893C61.4372 50.9283 64.6707 52.545 66.5569 54.7006C67.6348 56.048 68.1738 57.6648 68.1738 59.551C68.4433 63.3235 67.0959 65.7486 64.4013 67.6348Z" fill="#FAFAFA"/>
<path d="M47.9642 44.7304C47.9642 46.0778 48.7725 47.1556 50.3893 47.6945V41.7664H50.1199C48.7726 42.5747 47.9642 43.6526 47.9642 44.7304Z" fill="#FAFAFA"/>
</svg>
