<svg width="150" height="88" viewBox="0 0 150 88" fill="none" xmlns="http://www.w3.org/2000/svg">
<path d="M19.8047 47.591C17.0852 48.2708 15.0456 50.6504 15.0456 53.3699C15.0456 54.7296 15.3855 56.0894 16.4053 57.1092L14.0258 72.0663C14.0258 72.7462 14.0258 73.4261 14.3657 73.766C14.7057 74.1059 15.3855 74.4459 16.0654 74.4459H26.6034C27.2833 74.4459 27.9632 74.1059 28.3031 73.766C28.643 73.4261 28.9829 72.7462 28.9829 72.0663L26.9433 56.4293C27.6232 55.4095 27.9632 54.3897 27.9632 53.3699C27.9632 51.3303 26.9433 49.2906 24.9037 48.2708V40.1124L38.5012 45.8913V79.8848C38.5012 83.9641 41.9005 87.3634 45.9797 87.3634H108.528C112.607 87.3634 116.006 83.9641 116.006 79.8848V43.8517L148.64 29.5744C149.32 29.2344 150 28.2146 150 27.5348C150 26.515 149.32 25.8351 148.64 25.4952L74.5343 0C74.1944 0 73.5145 0 73.1746 0C47.6794 9.5182 5.86733 24.8153 2.12804 25.1552C1.10823 25.1552 0.0884269 25.8351 0.0884269 26.8549C-0.251509 27.8747 0.428368 28.8945 1.44817 29.2345L20.8245 37.7328V47.591H19.8047ZM18.445 70.3666L20.8245 56.7692C20.8245 56.0894 20.8245 55.0696 20.1446 54.7296C19.8047 54.3897 19.4648 54.0497 19.4648 53.3699C19.4648 52.3501 20.1446 51.6702 21.1644 51.6702C22.1843 51.6702 22.8641 52.3501 22.8641 53.3699C22.8641 53.7098 22.5242 54.3897 22.5242 54.3897C22.1842 54.7296 21.8443 55.4095 21.8443 56.0894L23.8839 70.0267H18.445V70.3666ZM111.247 80.2248C111.247 81.9245 109.888 83.2842 108.188 83.2842H45.6398C43.9401 83.2842 42.5804 81.9245 42.5804 80.2248V48.2708L73.8545 61.8683C74.1944 61.8683 74.5343 62.2082 74.8743 62.2082C75.2142 62.2082 75.5541 62.2082 75.8941 61.8683L111.927 46.2312V80.2248H111.247ZM8.24689 28.5546C24.2239 23.4556 62.9765 9.17826 73.5145 5.09903L141.502 28.2147L74.5343 57.1092L30.3427 38.0728L67.7356 33.3137C69.4353 34.3335 71.8148 35.0134 74.5343 35.0134C79.6334 35.0134 83.7126 32.9738 83.7126 30.2543C83.7126 27.5348 79.9733 25.4952 74.5343 25.4952C70.1152 25.4952 66.7158 26.8549 65.696 29.2345L22.5242 35.0134L8.24689 28.5546ZM67.7356 29.9143C67.7356 28.8945 70.4551 27.5348 74.5343 27.5348C78.6135 27.5348 81.333 28.8945 81.333 29.9143C81.333 30.9341 78.6135 32.2939 74.5343 32.2939C70.4551 32.2939 67.7356 30.9341 67.7356 29.9143Z" fill="#FAFAFA"/>
</svg>
