<?xml version="1.0" encoding="UTF-8"?>
<!-- Creator: CorelDRAW 2020 (64-Bit) -->
<svg width="152mm" height="38.698mm" clip-rule="evenodd" fill-rule="evenodd" image-rendering="optimizeQuality" shape-rendering="geometricPrecision" text-rendering="geometricPrecision" version="1.1" viewBox="0 0 6784.7 1727.4" xml:space="preserve" xmlns="http://www.w3.org/2000/svg" xmlns:cc="http://creativecommons.org/ns#" xmlns:dc="http://purl.org/dc/elements/1.1/" xmlns:rdf="http://www.w3.org/1999/02/22-rdf-syntax-ns#"><metadata><rdf:RDF><cc:Work rdf:about=""><dc:format>image/svg+xml</dc:format><dc:type rdf:resource="http://purl.org/dc/dcmitype/StillImage"/><dc:title/></cc:Work></rdf:RDF></metadata>
 <defs>
  <style type="text/css">
   <![CDATA[
    .fil1 {fill:#34558B}
    .fil0 {fill:#85BBD7}
    .fil2 {fill:#34558B;fill-rule:nonzero}
   ]]>
  </style>
 </defs>
 <g transform="matrix(.97813 0 0 .97813 14.164 9.4426)">
  
  <path class="fil0" d="m2589.1 0h-879.79v437.18h34.14v250.34c81.34-392.5 429.03-687.51 845.65-687.52z" fill="#85bbd7"/>
  <path class="fil1" d="m1458.5 1139.5h75.11v54.13h56.51v-200.92h45.89v-142.56h49.27v-94.96h24.08v-67.68c-81.34-392.51-429.04-687.52-845.67-687.52v1327.4h219.65v173.02h375.16v-360.91z" fill="#34558b"/>
  <path class="fil1" d="m1994.3 1139.5h-75.11v54.13h-56.51v-200.92h-45.89v-142.56h-49.27v-94.96h-24.08v-67.68c81.34-392.51 429.04-687.52 845.66-687.52v1327.4h-219.65v173.02h-375.16v-360.91z" fill="#34558b"/>
  <path class="fil0" d="m863.67 1727.3c-476.99 0-863.67-386.68-863.67-863.67s386.68-863.67 863.67-863.67z" fill="#85bbd7"/>
  <polygon class="fil0" points="3452.8 0 3452.8 1727.4 2589.1 1727.4 2589.1 0" fill="#85bbd7"/><g fill="#34558b" fill-rule="nonzero">
  <path class="fil2" d="m3778.8 1579.3 47.68 119.06 47.71-119.06h24.93v145.91h-19.22v-56.81l1.78-61.33-47.88 118.14h-14.74l-47.78-117.83 1.91 61.02v56.81h-19.26v-145.91zm244.79 15.84h-70.35v130.07h-19.33v-145.91h89.68zm73.74 68.85 33.55-84.69h22.37l-51.61 121.55c-1.54 3.42-3.18 6.7-4.96 9.88-1.78 3.15-3.96 5.99-6.6 8.45-2.67 2.46-5.88 4.45-9.68 5.92s-8.55 2.19-14.23 2.22c-0.82-0.03-1.71-0.03-2.77-0.1-1.03-0.07-2.02-0.14-3.01-0.21-0.96-0.07-1.85-0.17-2.63-0.27-0.82-0.1-1.37-0.21-1.71-0.34l0.62-15.22c0.37 0.07 0.99 0.1 1.78 0.14 0.82 0.04 1.67 0.07 2.56 0.1s1.78 0.07 2.67 0.1c0.86 0.04 1.58 0.07 2.08 0.07 2.81 0 5.17-0.48 7.08-1.37 1.88-0.89 3.52-2.09 4.89-3.53s2.53-3.04 3.45-4.89c0.96-1.85 1.85-3.7 2.7-5.58l3.83-8.9-49.69-108.04h21.51l37.79 84.69zm221.67-84.69h19.22v145.91h-19.22v-112.42l-71.86 112.42h-19.33v-145.91h19.33v112.42zm79.15 0 47.68 119.06 47.71-119.06h24.93v145.91h-19.22v-56.81l1.78-61.33-47.88 118.14h-14.74l-47.78-117.83 1.91 61.02v56.81h-19.26v-145.91zm236.75 78.46h-63.21v51.71h73.43v15.73h-92.69v-145.91h91.7v15.84h-72.44v46.89h63.21v15.73zm146.28 67.45h-19.32v-67.45h-73.54v67.45h-19.25v-145.91h19.25v62.73h73.54v-62.73h19.32zm126.17-145.91h19.22v145.91h-19.22v-112.42l-71.86 112.42h-19.32v-145.91h19.32v112.42zm129.93 0 47.68 119.06 47.71-119.06h24.93v145.91h-19.22v-56.81l1.78-61.33-47.88 118.14h-14.74l-47.78-117.83 1.91 61.02v56.81h-19.26v-145.91zm151.79 136.2c0-3.22 0.96-5.88 2.84-8.04 1.91-2.12 4.79-3.18 8.58-3.18s6.7 1.06 8.65 3.18c1.99 2.16 2.98 4.82 2.98 8.04 0 3.08-0.99 5.64-2.98 7.7-1.95 2.08-4.86 3.11-8.65 3.11-3.8 0-6.67-1.03-8.58-3.11-1.88-2.05-2.84-4.62-2.84-7.7zm56.51 9.71v-145.91h47.71c7.45 0 14.16 0.75 20.04 2.26 5.85 1.5 10.84 3.87 14.98 7.01 4.11 3.18 7.22 7.21 9.41 12.07 2.15 4.89 3.25 10.74 3.25 17.55s-1.91 12.86-5.82 18.1c-3.86 5.23-9.13 9.3-15.83 12.18 4.1 1.12 7.73 2.8 10.88 4.99 3.18 2.22 5.85 4.82 8.03 7.83 2.16 3.01 3.8 6.36 4.96 10.12 1.12 3.73 1.67 7.63 1.67 11.73 0 6.81-1.13 12.83-3.45 18.06-2.29 5.27-5.54 9.68-9.75 13.23-4.2 3.59-9.3 6.26-15.26 8.07-5.91 1.81-12.55 2.7-19.83 2.7h-51zm19.26-68.23v52.5h31.74c4.62 0 8.72-0.62 12.28-1.85 3.59-1.23 6.6-2.97 9.06-5.23 2.5-2.22 4.38-4.96 5.68-8.21s1.95-6.84 1.95-10.88c0-4-0.55-7.62-1.61-10.91s-2.73-6.05-5.06-8.31c-2.29-2.29-5.24-4.04-8.76-5.27-3.56-1.23-7.77-1.84-12.62-1.84zm0-15.43h29.04c4.13 0 7.93-0.55 11.32-1.61 3.42-1.06 6.33-2.6 8.79-4.62 2.43-2.02 4.31-4.45 5.65-7.36 1.33-2.9 2.02-6.19 2.02-9.88 0-8-2.36-13.85-7.01-17.48-4.69-3.66-11.8-5.47-21.34-5.47h-28.46v46.41zm105.99 73.94c0-3.22 0.96-5.88 2.84-8.04 1.91-2.12 4.79-3.18 8.58-3.18 3.8 0 6.7 1.06 8.66 3.18 1.98 2.16 2.97 4.82 2.97 8.04 0 3.08-0.99 5.64-2.97 7.7-1.95 2.08-4.86 3.11-8.66 3.11s-6.67-1.03-8.58-3.11c-1.88-2.05-2.84-4.62-2.84-7.7zm166.84-136.2v145.91h-19.26v-130.07h-52.09l-1.71 52.5c-0.41 13.31-1.43 24.8-3.04 34.54-1.64 9.71-4.17 17.75-7.59 24.14-3.38 6.37-7.83 11.12-13.27 14.23s-12.21 4.65-20.28 4.65h-5.3v-15.73h4c4.69 0 8.62-1.13 11.83-3.42 3.18-2.25 5.78-5.85 7.8-10.77 2.02-4.9 3.53-11.29 4.55-19.12 1.06-7.86 1.78-17.34 2.16-28.52l2.33-68.34h89.88zm147.07 77.68c0 10.94-1.37 20.76-4.14 29.41s-6.7 16.01-11.77 22.1c-5.09 6.05-11.25 10.7-18.43 13.92-7.22 3.22-15.29 4.83-24.18 4.83-8.62 0-16.52-1.61-23.74-4.83-7.21-3.21-13.4-7.86-18.64-13.92-5.2-6.09-9.24-13.44-12.11-22.1s-4.31-18.47-4.31-29.41v-9.24c0-10.88 1.44-20.69 4.31-29.42 2.87-8.69 6.87-16.11 12-22.16 5.17-6.09 11.32-10.74 18.54-13.99s15.15-4.86 23.77-4.86c8.86 0 16.93 1.61 24.18 4.86s13.44 7.9 18.54 13.99c5.13 6.05 9.07 13.48 11.83 22.16 2.77 8.72 4.14 18.54 4.14 29.42v9.24zm-19.12-9.45c0-8.65-0.89-16.35-2.66-23.01-1.78-6.7-4.35-12.32-7.77-16.86-3.39-4.51-7.56-7.97-12.48-10.29-4.9-2.36-10.47-3.52-16.66-3.52-5.95 0-11.36 1.16-16.25 3.52-4.89 2.33-9.03 5.78-12.48 10.29-3.42 4.55-6.08 10.16-7.97 16.86-1.85 6.67-2.8 14.36-2.8 23.01v9.45c0 8.75 0.96 16.45 2.87 23.15 1.88 6.67 4.58 12.28 8.07 16.86 3.45 4.58 7.62 8.03 12.52 10.4 4.86 2.33 10.29 3.49 16.21 3.49 6.29 0 11.87-1.17 16.76-3.49 4.86-2.36 8.99-5.82 12.38-10.4 3.35-4.58 5.91-10.19 7.66-16.86 1.71-6.7 2.6-14.4 2.6-23.15zm72.86-68.23 47.68 119.06 47.71-119.06h24.93v145.91h-19.22v-56.81l1.78-61.33-47.89 118.14h-14.74l-47.78-117.83 1.91 61.02v56.81h-19.25v-145.91zm266.5 77.68c0 10.94-1.37 20.76-4.14 29.41s-6.7 16.01-11.77 22.1c-5.09 6.05-11.25 10.7-18.43 13.92-7.22 3.22-15.29 4.83-24.18 4.83-8.62 0-16.52-1.61-23.74-4.83-7.22-3.21-13.41-7.86-18.64-13.92-5.2-6.09-9.24-13.44-12.11-22.1s-4.31-18.47-4.31-29.41v-9.24c0-10.88 1.44-20.69 4.31-29.42 2.87-8.69 6.87-16.11 12-22.16 5.16-6.09 11.32-10.74 18.54-13.99s15.15-4.86 23.77-4.86c8.86 0 16.93 1.61 24.18 4.86s13.44 7.9 18.54 13.99c5.13 6.05 9.07 13.48 11.83 22.16 2.77 8.72 4.14 18.54 4.14 29.42v9.24zm-19.12-9.45c0-8.65-0.89-16.35-2.67-23.01-1.78-6.7-4.34-12.32-7.76-16.86-3.39-4.51-7.56-7.97-12.48-10.29-4.89-2.36-10.47-3.52-16.66-3.52-5.95 0-11.35 1.16-16.25 3.52-4.89 2.33-9.03 5.78-12.48 10.29-3.42 4.55-6.09 10.16-7.97 16.86-1.84 6.67-2.8 14.36-2.8 23.01v9.45c0 8.75 0.96 16.45 2.87 23.15 1.88 6.67 4.58 12.28 8.07 16.86 3.45 4.58 7.62 8.03 12.52 10.4 4.86 2.33 10.29 3.49 16.21 3.49 6.29 0 11.87-1.17 16.76-3.49 4.86-2.36 9-5.82 12.38-10.4 3.35-4.58 5.91-10.19 7.66-16.86 1.71-6.7 2.6-14.4 2.6-23.15zm160.1 77.68h-19.32v-67.45h-73.54v67.45h-19.25v-145.91h19.25v62.73h73.54v-62.73h19.32zm146.39-68.23c0 10.94-1.37 20.76-4.14 29.41s-6.7 16.01-11.76 22.1c-5.1 6.05-11.25 10.7-18.43 13.92-7.22 3.22-15.29 4.83-24.18 4.83-8.62 0-16.52-1.61-23.74-4.83-7.21-3.21-13.4-7.86-18.64-13.92-5.2-6.09-9.24-13.44-12.11-22.1s-4.31-18.47-4.31-29.41v-9.24c0-10.88 1.44-20.69 4.31-29.42 2.87-8.69 6.87-16.11 12-22.16 5.17-6.09 11.32-10.74 18.54-13.99 7.21-3.25 15.15-4.86 23.77-4.86 8.86 0 16.93 1.61 24.18 4.86s13.44 7.9 18.54 13.99c5.13 6.05 9.07 13.48 11.83 22.16 2.77 8.72 4.14 18.54 4.14 29.42zm-19.12-9.45c0-8.65-0.89-16.35-2.66-23.01-1.78-6.7-4.34-12.32-7.76-16.86-3.39-4.51-7.56-7.97-12.48-10.29-4.89-2.36-10.47-3.52-16.66-3.52-5.95 0-11.36 1.16-16.25 3.52-4.89 2.33-9.03 5.78-12.48 10.29-3.42 4.55-6.08 10.16-7.97 16.86-1.85 6.67-2.8 14.36-2.8 23.01v9.45c0 8.75 0.96 16.45 2.87 23.15 1.88 6.67 4.58 12.28 8.07 16.86 3.45 4.58 7.62 8.03 12.52 10.4 4.86 2.33 10.3 3.49 16.22 3.49 6.29 0 11.86-1.17 16.76-3.49 4.86-2.36 8.99-5.82 12.38-10.4 3.35-4.58 5.91-10.19 7.66-16.86 1.71-6.7 2.6-14.4 2.6-23.15v-9.45zm155.31 31.37c-0.82 6.91-2.5 13.31-5.06 19.18-2.57 5.92-6.12 11.05-10.67 15.36s-10.09 7.66-16.62 10.12c-6.57 2.43-14.19 3.66-22.95 3.66-8.62 0-16.45-1.61-23.46-4.83-7.01-3.21-12.99-7.76-17.99-13.68-4.95-5.92-8.82-13-11.53-21.27-2.7-8.31-4.04-17.55-4.04-27.77v-14.64c0-10.23 1.37-19.5 4.11-27.8 2.74-8.31 6.63-15.43 11.73-21.35 5.06-5.91 11.22-10.46 18.47-13.71s15.4-4.86 24.39-4.86c8.24 0 15.52 1.2 21.86 3.59 6.36 2.43 11.73 5.78 16.17 10.09 4.45 4.31 7.97 9.44 10.57 15.43 2.6 5.98 4.28 12.58 5.03 19.77h-19.36c-0.71-5.06-1.84-9.64-3.38-13.71s-3.66-7.56-6.36-10.44c-2.7-2.87-6.09-5.06-10.09-6.6s-8.82-2.29-14.43-2.29c-6.46 0-12.18 1.23-17.06 3.73-4.93 2.53-9.03 6.02-12.32 10.53-3.32 4.51-5.82 9.95-7.49 16.35-1.68 6.36-2.5 13.41-2.5 21.07v14.85c0 7.15 0.75 13.85 2.26 20.14 1.5 6.26 3.8 11.77 6.87 16.48 3.05 4.69 6.98 8.41 11.7 11.11 4.75 2.7 10.36 4.07 16.86 4.07 6.12 0 11.32-0.75 15.53-2.22s7.7-3.59 10.47-6.37c2.77-2.77 4.92-6.19 6.46-10.23s2.7-8.62 3.49-13.78h19.36zm138.45-21.92c0 10.94-1.37 20.76-4.14 29.41s-6.7 16.01-11.77 22.1c-5.09 6.05-11.25 10.7-18.43 13.92-7.22 3.22-15.29 4.83-24.18 4.83-8.62 0-16.52-1.61-23.74-4.83-7.22-3.21-13.41-7.86-18.64-13.92-5.2-6.09-9.24-13.44-12.11-22.1s-4.31-18.47-4.31-29.41v-9.24c0-10.88 1.44-20.69 4.31-29.42 2.87-8.69 6.87-16.11 12-22.16 5.16-6.09 11.32-10.74 18.54-13.99s15.15-4.86 23.77-4.86c8.86 0 16.93 1.61 24.18 4.86s13.44 7.9 18.54 13.99c5.13 6.05 9.06 13.48 11.83 22.16 2.77 8.72 4.14 18.54 4.14 29.42v9.24zm-19.12-9.45c0-8.65-0.89-16.35-2.67-23.01-1.78-6.7-4.34-12.32-7.76-16.86-3.39-4.51-7.56-7.97-12.48-10.29-4.89-2.36-10.47-3.52-16.66-3.52-5.95 0-11.35 1.16-16.25 3.52-4.89 2.33-9.03 5.78-12.48 10.29-3.41 4.55-6.08 10.16-7.97 16.86-1.84 6.67-2.8 14.36-2.8 23.01v9.45c0 8.75 0.96 16.45 2.87 23.15 1.88 6.67 4.58 12.28 8.07 16.86 3.45 4.58 7.63 8.03 12.52 10.4 4.86 2.33 10.29 3.49 16.21 3.49 6.29 0 11.87-1.17 16.76-3.49 4.86-2.36 9-5.82 12.38-10.4 3.35-4.58 5.91-10.19 7.66-16.86 1.71-6.7 2.6-14.4 2.6-23.15zm47.98 77.68v-145.91h47.71c7.45 0 14.16 0.75 20.05 2.26 5.85 1.5 10.84 3.87 14.98 7.01 4.1 3.18 7.21 7.21 9.4 12.07 2.16 4.89 3.25 10.74 3.25 17.55s-1.92 12.86-5.82 18.1c-3.86 5.23-9.13 9.3-15.84 12.18 4.11 1.12 7.73 2.8 10.88 4.99 3.18 2.22 5.85 4.82 8.03 7.83 2.16 3.01 3.8 6.36 4.96 10.12 1.12 3.73 1.67 7.63 1.67 11.73 0 6.81-1.13 12.83-3.45 18.06-2.29 5.27-5.54 9.68-9.75 13.23-4.21 3.59-9.31 6.26-15.26 8.07-5.91 1.81-12.55 2.7-19.84 2.7h-51zm19.26-68.23v52.5h31.74c4.62 0 8.72-0.62 12.28-1.85 3.59-1.23 6.6-2.97 9.06-5.23 2.5-2.22 4.38-4.96 5.68-8.21s1.95-6.84 1.95-10.88c0-4-0.55-7.62-1.61-10.91s-2.74-6.05-5.06-8.31c-2.29-2.29-5.24-4.04-8.76-5.27-3.56-1.23-7.76-1.84-12.62-1.84h-32.67zm0-15.43h29.04c4.14 0 7.93-0.55 11.32-1.61 3.42-1.06 6.32-2.6 8.79-4.62 2.43-2.02 4.31-4.45 5.65-7.36 1.33-2.9 2.01-6.19 2.01-9.88 0-8-2.36-13.85-7.01-17.48-4.69-3.66-11.8-5.47-21.35-5.47h-28.46v46.41zm189.07 45.59h-61.12l-13.75 38.07h-19.84l55.72-145.91h16.83l55.82 145.91h-19.73l-13.92-38.07zm-55.34-15.84h49.63l-24.87-68.24z"/>
  <polygon class="fil2" points="6727.8 59.36 6727.8 413.19 6675.8 413.19 6675.8 59.36 6548.5 59.36 6548.5 16.28 6855.4 16.28 6855.4 59.36"/>
  <path class="fil2" d="m3940.9 55.83h7.35c22.89 0 44.1 3.91 63.73 11.72 19.63 7.82 36.66 18.79 51.17 32.84 14.42 14.15 25.77 30.89 34.05 50.43s12.37 41.12 12.37 64.76c0 23.63-4.09 45.22-12.37 64.85s-19.63 36.56-34.05 50.71c-14.52 14.14-31.54 25.22-51.17 33.03-19.63 7.82-40.85 11.73-63.73 11.73h-7.35v53.68h-50.43v-53.68h-7.91c-22.89 0-44.19-3.91-63.83-11.73-19.63-7.81-36.66-18.79-51.08-32.75-14.52-13.95-25.77-30.79-33.96-50.43-8.19-19.63-12.28-41.22-12.28-64.85 0-23.64 4.09-45.22 12.28-64.85s19.44-36.56 33.96-50.7c14.42-14.24 31.45-25.22 51.08-33.03 19.63-7.82 40.94-11.72 63.83-11.72h7.91v-55.82h50.43v55.82zm-58.34 41.4c-17.86 0-33.68 2.88-47.45 8.65-13.86 5.67-25.5 13.77-34.89 24.1-9.49 10.32-16.56 22.89-21.4 37.49-4.84 14.61-7.25 30.79-7.25 48.66 0 17.96 2.41 34.24 7.25 48.75 4.84 14.52 11.91 26.98 21.4 37.4 9.39 10.33 21.02 18.33 34.89 23.92 13.77 5.67 29.59 8.46 47.45 8.46h7.91v-237.44h-7.91zm58.34 0v237.44h7.91c17.58 0 33.31-2.88 47.08-8.56 13.86-5.77 25.4-13.77 34.8-24.09 9.3-10.42 16.47-22.89 21.39-37.5 4.93-14.61 7.36-30.98 7.36-48.94 0-17.77-2.42-33.96-7.36-48.56-4.93-14.52-12.09-26.99-21.39-37.31-9.4-10.33-20.93-18.33-34.8-24.01-13.77-5.58-29.5-8.46-47.08-8.46h-7.91zm454.13 212.41h-166.26l-37.4 103.55h-53.97l151.56-396.91h45.78l151.84 396.91h-53.68zm-150.54-43.08h135l-67.64-185.62zm398.58-31.63h-48.29v178.27h-52.29v-396.91h52.29v175.01h40.85l138.82-175.01h65.13l-151.56 192.5 162.73 204.41h-64.01l-143.65-178.27zm412.37 11.73 91.27-230.37h60.85l-140.4 330.66c-3.97 9.37-8.65 18.26-13.49 26.89-4.81 8.56-10.78 16.31-17.96 22.98-7.22 6.71-16.01 12.11-26.33 16.1s-23.26 6.04-38.7 6.04c-2.23 0-4.66-0.1-7.53-0.28-2.78-0.17-5.5-0.37-8.19-0.56-2.6-0.17-5.03-0.48-7.16-0.75-2.22-0.27-3.72-0.56-4.66-0.93l1.68-41.4c1.02 0.19 2.71 0.29 4.84 0.37 2.22 0.08 4.56 0.19 6.98 0.28 2.41 0.09 4.85 0.2 7.26 0.28 2.31 0.08 4.28 0.18 5.67 0.18 7.63 0 14.07-1.29 19.26-3.72 5.12-2.39 9.59-5.68 13.31-9.58 3.71-3.9 6.85-8.31 9.39-13.31 2.56-5.03 5.13-10 7.36-15.17l10.42-24.19-135.19-293.91h58.52l102.81 230.37zm479.42-230.37v396.91h-52.38v-353.83h-141.7l-4.66 142.81c-1.11 36.2-3.9 67.45-8.28 93.97-4.47 26.42-11.36 48.29-20.66 65.69-9.21 17.3-21.31 30.24-36.1 38.7-14.79 8.47-33.21 12.65-55.18 12.65h-14.42v-42.8h10.88c12.75 0 23.45-3.07 32.19-9.3 8.66-6.14 15.73-15.91 21.22-29.31 5.49-13.31 9.58-30.7 12.37-52.01 2.88-21.4 4.84-47.17 5.86-77.6l6.33-185.89h244.51zm145.52 161.99h95.65c21.86 0 41.12 2.7 57.96 8.28s30.89 13.4 42.24 23.54c11.35 10.24 20 22.42 25.87 36.66 5.95 14.32 8.93 30.24 8.93 47.91 0 17.4-2.98 33.4-8.93 47.92-5.87 14.51-14.52 27.07-25.97 37.49-11.44 10.42-25.58 18.6-42.24 24.38-16.75 5.86-36.01 8.74-57.87 8.74h-147.93v-396.91h52.29zm0 42.98v149.14h95.65c14.61 0 27.07-2.05 37.49-6.24s18.98-9.86 25.68-16.93c6.61-7.07 11.44-15.26 14.51-24.38 3.16-9.21 4.66-18.8 4.66-28.75 0-10.05-1.49-19.44-4.66-28.19-3.07-8.83-7.91-16.56-14.51-23.26-6.7-6.61-15.26-11.82-25.68-15.63-10.42-3.82-22.89-5.77-37.49-5.77h-95.65zm500.92-161.89h-127.55v353.83h-52.01v-353.83h-127.28v-43.08h306.85v43.08zm283.21 170.36h-171.94v140.68h199.76v42.8h-252.14v-396.91h249.44v43.08h-197.06v127.56h171.94v42.8z"/>
  <path class="fil2" d="m3821.6 550.29 129.7 323.87 129.79-323.87h67.83v396.91h-52.29v-154.54l4.84-166.82-130.26 321.37h-40.1l-129.98-320.52 5.21 165.98v154.54h-52.38v-396.91h67.64zm669.98 0h52.29v396.91h-52.29v-305.82l-195.47 305.82h-52.57v-396.91h52.57v305.82zm200.04 241.53v155.38h-52.38v-396.91h146.35c22.61 0 42.43 3.08 59.73 9.03 17.31 5.96 31.72 14.42 43.45 25.22 11.72 10.79 20.66 23.63 26.7 38.42 6.14 14.8 9.21 31.08 9.21 48.66 0 19.07-3.07 36.1-9.21 51.08-6.04 15.07-14.98 27.63-26.7 37.78-11.73 10.24-26.14 17.96-43.45 23.35-17.31 5.3-37.12 8-59.73 8h-93.97zm0-42.8h93.97c15.26 0 28.47-1.86 39.45-5.67 10.98-3.82 20-9.21 26.98-16s12.1-14.89 15.35-24.29c3.26-9.3 4.93-19.63 4.93-30.89 0-10.14-1.67-20.01-4.93-29.59-3.25-9.58-8.37-17.95-15.35-25.21s-16-13.12-26.98-17.4c-10.98-4.37-24.19-6.61-39.45-6.61h-93.97zm605.04 12.56c0 29.77-3.72 56.48-11.26 80.01-7.53 23.54-18.23 43.55-32 60.1-13.86 16.47-30.61 29.13-50.15 37.87-19.63 8.74-41.59 13.11-65.78 13.11-23.45 0-44.94-4.37-64.57-13.11-19.64-8.75-36.47-21.4-50.71-37.87-14.14-16.56-25.12-36.56-32.94-60.1-7.81-23.53-11.72-50.24-11.72-80.01v-25.12c0-29.59 3.91-56.29 11.72-80.02 7.82-23.63 18.7-43.82 32.66-60.29 14.05-16.56 30.79-29.21 50.43-38.06 19.63-8.84 41.22-13.21 64.66-13.21 24.1 0 46.06 4.37 65.78 13.21s36.57 21.49 50.43 38.06c13.95 16.47 24.65 36.66 32.19 60.29 7.54 23.72 11.26 50.43 11.26 80.02zm-52.01-25.68c0-23.54-2.41-44.48-7.25-62.62-4.84-18.23-11.82-33.5-21.12-45.87-9.21-12.28-20.56-21.68-33.96-28-13.31-6.43-28.47-9.59-45.31-9.59-16.19 0-30.89 3.16-44.19 9.59-13.3 6.32-24.56 15.72-33.96 28-9.3 12.37-16.56 27.63-21.68 45.87-5.02 18.14-7.63 39.07-7.63 62.62v25.68c0 23.82 2.61 44.75 7.82 62.99 5.12 18.14 12.47 33.4 21.96 45.87 9.4 12.46 20.75 21.86 34.05 28.28 13.21 6.32 28 9.49 44.1 9.49 17.12 0 32.28-3.16 45.59-9.49 13.21-6.42 24.47-15.82 33.68-28.28 9.12-12.47 16.1-27.73 20.84-45.87 4.66-18.23 7.07-39.17 7.07-62.99v-25.68zm130.54 211.3v-396.91h129.79c20.28 0 38.52 2.05 54.52 6.14 15.91 4.09 29.49 10.52 40.75 19.07 11.16 8.66 19.64 19.63 25.59 32.84 5.87 13.3 8.84 29.21 8.84 47.73s-5.21 34.99-15.82 49.22c-10.51 14.24-24.84 25.31-43.08 33.12 11.16 3.07 21.03 7.63 29.59 13.58 8.65 6.05 15.91 13.12 21.86 21.31 5.86 8.18 10.33 17.3 13.49 27.54 3.07 10.14 4.56 20.75 4.56 31.92 0 18.51-3.07 34.89-9.4 49.12-6.24 14.33-15.07 26.33-26.51 36.01-11.45 9.77-25.31 17.02-41.5 21.96-16.1 4.93-34.15 7.35-53.97 7.35h-138.72zm52.38-185.62v142.81h86.34c12.56 0 23.73-1.67 33.41-5.02 9.77-3.35 17.95-8.1 24.65-14.23 6.79-6.05 11.91-13.49 15.44-22.33 3.54-8.84 5.3-18.61 5.3-29.59 0-10.88-1.49-20.74-4.37-29.67s-7.44-16.47-13.77-22.61c-6.24-6.23-14.24-10.98-23.82-14.32-9.68-3.35-21.13-5.03-34.33-5.03h-88.85zm0-41.96h78.99c11.26 0 21.59-1.49 30.79-4.38 9.31-2.88 17.22-7.07 23.92-12.56 6.61-5.49 11.72-12.09 15.35-20s5.49-16.84 5.49-26.89c0-21.77-6.42-37.68-19.07-47.54-12.75-9.95-32.1-14.89-58.06-14.89h-77.41zm600.38 41.96c0 29.77-3.72 56.48-11.26 80.01-7.53 23.54-18.23 43.55-32 60.1-13.86 16.47-30.61 29.13-50.15 37.87-19.63 8.74-41.59 13.11-65.78 13.11-23.45 0-44.94-4.37-64.57-13.11-19.64-8.75-36.47-21.4-50.71-37.87-14.14-16.56-25.12-36.56-32.94-60.1-7.81-23.53-11.72-50.24-11.72-80.01v-25.12c0-29.59 3.91-56.29 11.72-80.02 7.82-23.63 18.7-43.82 32.66-60.29 14.05-16.56 30.8-29.21 50.43-38.06 19.63-8.84 41.22-13.21 64.66-13.21 24.1 0 46.06 4.37 65.78 13.21 19.73 8.84 36.57 21.49 50.43 38.06 13.95 16.47 24.65 36.66 32.19 60.29 7.54 23.72 11.26 50.43 11.26 80.02zm-52.01-25.68c0-23.54-2.41-44.48-7.25-62.62-4.84-18.23-11.82-33.5-21.12-45.87-9.21-12.28-20.56-21.68-33.96-28-13.31-6.43-28.47-9.59-45.31-9.59-16.19 0-30.89 3.16-44.19 9.59-13.3 6.32-24.56 15.72-33.96 28-9.3 12.37-16.56 27.63-21.68 45.87-5.02 18.14-7.63 39.07-7.63 62.62v25.68c0 23.82 2.61 44.75 7.82 62.99 5.12 18.14 12.46 33.4 21.96 45.87 9.4 12.46 20.75 21.86 34.05 28.28 13.21 6.32 28 9.49 44.1 9.49 17.11 0 32.28-3.16 45.59-9.49 13.21-6.42 24.47-15.82 33.68-28.28 9.12-12.47 16.1-27.73 20.84-45.87 4.66-18.23 7.07-39.17 7.07-62.99v-25.68zm380.82-185.62h52.29v396.91h-52.29v-305.82l-195.48 305.82h-52.57v-396.91h52.57v305.82zm-14.7-98.8c0 10.69-1.86 20.56-5.58 29.4-3.72 8.93-9.12 16.65-16.28 23.07-7.07 6.42-15.63 11.54-25.68 15.17-10.14 3.63-21.39 5.39-33.96 5.39-12.56 0-23.91-1.76-33.96-5.39s-18.7-8.75-25.77-15.17-12.56-14.14-16.37-23.07c-3.82-8.84-5.67-18.7-5.67-29.4h41.12c0 5.49 0.75 10.61 2.23 15.53 1.4 4.93 3.72 9.21 6.89 12.94 3.25 3.72 7.44 6.7 12.56 8.84 5.2 2.23 11.53 3.35 18.98 3.35 7.25 0 13.49-1.12 18.7-3.35 5.12-2.14 9.4-5.12 12.65-8.84s5.58-8 7.07-12.94c1.49-4.93 2.14-10.05 2.14-15.53h40.94z"/>
  <path class="fil2" d="m4054.5 1481.2h-52.57v-353.83h-195.76v353.83h-52.29v-396.91h300.61v396.91zm419.74-185.62c0 29.77-3.72 56.48-11.26 80.02-7.53 23.54-18.18 43.59-32 60.1-13.81 16.51-30.61 29.14-50.15 37.87-19.62 8.76-41.59 13.12-65.78 13.12-23.45 0-44.94-4.37-64.58-13.12-19.63-8.75-36.52-21.36-50.7-37.87-14.19-16.52-25.13-36.57-32.94-60.1-7.82-23.53-11.72-50.24-11.72-80.02v-25.12c0-29.59 3.9-56.3 11.72-80.01 7.8-23.64 18.7-43.83 32.66-60.29 14.05-16.56 30.8-29.21 50.43-38.05s41.22-13.21 64.66-13.21c24.1 0 46.06 4.37 65.78 13.21s36.52 21.54 50.43 38.05c13.9 16.51 24.67 36.66 32.19 60.29 7.54 23.72 11.26 50.43 11.26 80.01zm-52.01-25.68c0-23.54-2.43-44.47-7.25-62.61-4.85-18.23-11.82-33.49-21.12-45.87-9.21-12.27-20.59-21.62-33.96-28-13.33-6.36-28.47-9.59-45.31-9.59-16.19 0-30.87 3.2-44.19 9.59-13.28 6.36-24.62 15.69-33.96 28-9.36 12.34-16.6 27.63-21.68 45.87-5.05 18.13-7.63 39.08-7.63 62.61v25.68c0 23.81 2.64 44.74 7.82 62.99 5.14 18.14 12.5 33.38 21.96 45.87 9.42 12.44 20.74 21.89 34.05 28.28 13.2 6.34 28 9.49 44.1 9.49 17.11 0 32.31-3.11 45.59-9.49 13.24-6.36 24.5-15.8 33.68-28.28 9.15-12.44 16.15-27.71 20.84-45.87 4.7-18.22 7.07-39.17 7.07-62.99v-25.68zm441.61-185.61v396.91h-52.38v-353.83h-141.7l-4.66 142.82c-1.17 36.18-3.85 67.47-8.28 93.97-4.41 26.43-11.37 48.29-20.65 65.69-9.22 17.29-21.31 30.25-36.1 38.7-14.79 8.46-33.22 12.65-55.18 12.65h-14.42v-42.8h10.89c12.75 0 23.45-3.08 32.19-9.31 8.65-6.14 15.71-15.91 21.22-29.31 5.47-13.3 9.55-30.71 12.37-52.01 2.84-21.4 4.82-47.17 5.86-77.6l6.33-185.89h244.51zm364.48 0h52.29v396.91h-52.29v-305.82l-195.48 305.82h-52.56v-396.91h52.56v305.82zm433.32 43.07h-127.55v353.83h-52.01v-353.83h-127.28v-43.07h306.85v43.07zm328.56-43.07h52.29v396.91h-52.29v-305.82l-195.48 305.82h-52.56v-396.91h52.56v305.82zm270.14 218.64h-48.29v178.27h-52.29v-396.91h52.29v175.01h40.84l138.82-175.01h65.12l-151.56 192.5 162.73 204.41h-64.01zm525.25-218.64h52.29v396.91h-52.29v-305.82l-195.48 305.82h-52.56v-396.91h52.56v305.82z"/>
 </g></g>
</svg>
